{"glyphs":{"0":{"ha":786,"x_min":58,"x_max":717,"o":"m 386 -33 q 515 11 453 -19 q 626 94 578 42 q 698 257 679 167 q 717 439 717 347 l 717 451 q 703 628 717 540 q 644 797 689 717 q 606 852 629 826 q 556 897 583 878 q 498 928 529 917 q 433 940 467 940 q 389 935 410 940 q 258 891 322 919 q 144 806 193 863 q 76 643 94 732 q 58 463 58 554 l 58 450 q 73 272 58 361 q 128 101 88 183 q 213 1 157 42 q 336 -40 269 -40 q 386 -33 356 -40 m 388 21 q 350 15 372 15 q 301 26 325 15 q 259 54 278 36 q 226 94 240 72 q 206 139 213 115 q 178 283 183 210 q 174 432 174 357 l 174 474 q 180 599 174 533 q 208 723 186 665 q 271 823 229 781 q 385 878 313 865 q 417 882 399 882 q 510 845 469 882 q 561 757 550 808 q 585 624 576 690 q 593 489 593 558 l 593 467 q 590 334 593 406 q 567 198 586 263 q 506 84 547 133 q 388 21 464 35 z "},"1":{"ha":796,"x_min":200,"x_max":583,"o":"m 296 -21 q 401 -1 350 -21 q 494 15 447 15 q 540 12 518 15 q 582 1 563 8 l 582 38 q 583 49 582 44 q 583 63 583 54 q 563 67 575 65 q 539 72 551 69 q 514 77 526 75 q 490 85 501 79 l 489 86 q 465 124 472 103 q 458 167 458 144 q 458 176 458 171 q 460 188 458 182 l 460 339 q 460 642 460 493 q 457 947 460 792 q 424 940 443 946 q 385 928 406 935 q 338 913 361 921 q 290 906 315 906 l 281 906 q 239 907 258 906 q 201 915 219 908 l 201 888 q 201 872 201 881 q 200 857 201 865 q 219 853 207 854 q 244 849 232 851 q 269 844 257 846 q 293 839 282 842 l 294 839 q 318 820 310 832 q 331 794 326 808 q 335 764 335 779 q 336 735 336 749 q 335 611 335 672 q 335 489 335 551 q 335 320 335 404 q 336 151 336 236 l 336 132 q 333 93 336 113 q 317 57 329 74 l 315 54 q 265 44 292 44 q 231 47 246 44 q 201 56 215 50 l 201 22 q 202 10 201 15 q 203 -1 203 6 q 296 -21 246 -21 m 200 0 l 203 -6 l 203 -1 q 200 0 200 -1 z "},"2":{"ha":786,"x_min":81,"x_max":688,"o":"m 654 199 l 625 203 q 616 158 624 179 q 585 126 608 138 l 583 126 q 522 115 551 119 q 461 107 493 110 q 430 101 446 104 q 397 96 414 99 q 319 83 358 89 q 240 76 281 76 q 221 76 231 76 q 201 78 211 76 l 197 88 q 301 186 254 133 q 397 293 349 239 q 458 362 428 328 q 519 428 488 396 q 574 484 546 454 q 624 546 601 514 q 661 614 647 578 q 675 690 675 650 l 675 710 q 656 798 675 756 q 603 873 636 840 q 529 925 571 906 q 442 944 488 944 q 393 938 421 944 q 289 909 340 926 q 194 864 238 892 q 117 772 142 829 q 92 651 92 714 l 92 643 q 146 637 118 639 q 203 633 174 635 l 203 647 q 202 656 203 651 q 201 665 201 661 q 214 737 201 701 q 249 801 226 772 q 303 848 272 829 q 372 871 335 867 q 411 878 393 878 q 465 865 439 878 q 512 832 492 853 q 544 785 532 811 q 556 731 556 758 q 555 724 556 728 q 554 717 554 719 l 554 715 q 483 531 532 615 q 370 371 435 446 q 231 229 306 296 q 81 101 156 163 q 81 50 81 74 q 83 -1 82 26 q 228 -28 154 -28 q 313 -22 269 -28 q 399 -8 356 -15 q 489 5 443 -1 q 581 11 535 11 q 629 9 606 11 q 675 1 653 7 q 679 98 678 51 q 682 193 681 144 q 668 196 675 194 q 654 199 661 197 m 688 193 l 682 199 l 682 193 l 688 193 z "},"3":{"ha":786,"x_min":54,"x_max":676,"o":"m 56 225 q 55 216 56 221 q 54 207 54 211 q 74 114 54 160 q 126 32 93 68 q 201 -26 158 -4 q 293 -49 244 -49 q 346 -40 318 -49 q 457 -12 399 -31 q 564 38 515 7 q 644 115 613 69 q 676 222 676 160 l 676 244 q 660 324 676 286 q 615 393 643 363 q 550 444 588 424 q 471 468 513 464 l 468 479 q 530 510 499 492 q 587 551 561 528 q 628 603 613 574 q 644 668 644 632 l 644 693 q 626 783 644 739 q 575 863 607 828 q 501 918 543 897 q 411 939 458 939 q 357 931 383 939 q 257 903 307 924 q 167 849 207 882 q 103 771 128 815 q 79 672 79 726 l 79 669 q 138 663 111 665 q 189 660 165 660 l 189 668 q 202 736 189 703 q 238 796 215 769 q 292 840 261 822 q 360 860 324 857 q 394 865 375 865 q 446 852 422 865 q 487 817 469 839 q 514 769 504 796 q 524 715 524 742 q 522 696 524 701 q 523 688 522 692 q 524 678 524 683 q 500 594 524 631 q 440 533 476 558 q 359 492 403 507 q 274 474 315 478 l 264 474 q 261 472 261 474 q 258 472 261 472 l 258 406 q 246 401 246 401 q 255 403 247 401 q 272 406 263 404 q 286 408 282 408 q 307 411 293 408 q 347 418 326 415 q 390 421 368 421 q 430 417 410 421 q 468 406 450 414 l 468 404 q 527 337 508 379 q 546 249 546 294 l 546 231 q 529 156 546 190 q 484 95 513 122 q 420 51 456 68 q 347 26 385 33 q 331 24 339 25 q 313 22 322 22 q 253 38 281 22 q 204 77 225 53 q 172 132 183 101 q 160 194 160 163 q 161 206 160 201 q 107 213 133 207 q 56 225 81 218 m 167 206 l 161 211 l 161 206 l 167 206 z "},"4":{"ha":783,"x_min":6,"x_max":750,"o":"m 365 -8 q 435 5 400 -1 q 508 14 471 11 q 533 15 521 15 q 557 15 546 15 q 635 13 599 15 q 707 6 671 10 q 707 17 707 11 q 708 31 707 24 q 710 43 710 38 q 710 57 710 50 l 710 65 q 664 70 686 68 q 615 79 642 72 l 614 81 q 581 118 590 96 q 572 165 572 140 q 573 175 572 169 q 574 185 574 181 l 574 272 l 579 278 l 601 278 q 680 275 643 278 q 749 268 717 272 l 749 282 q 749 313 749 299 q 750 342 749 326 q 669 349 711 346 q 581 353 628 353 l 575 358 q 574 642 575 503 q 568 925 574 781 q 549 926 557 926 q 533 926 542 926 q 485 925 508 926 q 439 922 463 924 q 231 623 339 767 q 6 342 122 479 q 7 324 7 332 q 7 307 7 315 l 7 283 q 7 275 7 279 q 8 264 7 271 q 185 244 94 244 q 321 253 253 244 q 456 274 389 263 l 463 268 l 463 224 q 462 201 463 213 q 461 179 461 190 l 461 168 q 459 126 461 147 q 443 86 457 104 l 442 83 q 379 57 411 68 q 311 42 347 46 q 313 10 313 25 q 313 -19 313 -4 l 365 -8 m 111 331 q 293 576 207 451 q 463 828 379 700 l 472 825 l 468 744 q 463 644 465 694 q 461 542 461 593 q 461 494 461 518 q 463 449 461 472 q 464 425 464 438 q 464 401 464 414 q 464 378 464 390 q 463 354 464 365 l 458 349 q 447 347 451 347 q 435 344 442 346 q 312 326 374 335 q 188 318 250 318 q 115 322 153 318 l 111 331 m 306 -21 l 313 -26 l 313 -19 l 306 -21 z "},"5":{"ha":786,"x_min":72,"x_max":708,"o":"m 182 386 l 189 386 q 265 475 213 443 q 378 518 317 507 q 418 524 396 524 q 482 506 453 524 q 532 460 511 489 q 565 398 553 432 q 576 331 576 364 q 576 316 576 324 q 574 301 575 308 q 575 290 575 296 q 575 279 575 285 q 561 194 575 236 q 522 118 547 153 q 460 60 496 83 q 381 29 424 36 q 339 22 357 22 q 277 38 306 22 q 226 80 249 54 q 192 138 204 106 q 179 203 179 171 q 180 208 179 207 q 181 213 181 210 q 127 218 154 214 q 72 231 100 222 l 72 226 q 92 128 72 176 q 147 42 113 81 q 226 -21 181 3 q 321 -44 271 -44 q 376 -36 344 -44 q 494 -2 435 -28 q 600 64 553 24 q 677 157 647 104 q 707 274 707 210 l 707 293 q 708 306 708 300 q 708 319 708 313 q 690 422 708 371 q 638 514 671 474 q 558 580 604 554 q 458 606 513 606 q 415 601 438 606 q 206 513 299 576 l 196 517 q 208 789 204 656 l 214 796 q 296 801 254 796 q 379 813 338 806 q 465 824 422 819 q 553 829 508 829 q 604 827 579 829 q 653 819 629 825 q 651 843 651 833 q 651 867 651 853 q 651 890 651 878 q 649 917 650 903 q 597 926 624 924 q 543 928 569 928 q 458 922 500 928 q 372 910 415 917 q 283 897 328 903 q 193 892 239 892 q 126 896 153 892 q 110 647 117 769 q 100 394 104 524 q 182 386 143 386 m 96 396 l 100 390 l 100 394 q 98 395 99 394 q 96 396 97 396 z "},"6":{"ha":786,"x_min":72,"x_max":710,"o":"m 458 944 q 411 938 436 944 q 260 880 332 919 q 147 768 188 840 q 86 585 100 681 q 72 394 72 490 q 88 230 72 311 q 144 78 103 149 q 227 -7 174 26 q 340 -40 281 -40 q 394 -32 367 -40 l 396 -32 q 507 -3 451 -26 q 608 58 563 21 q 681 146 653 96 q 710 256 710 196 q 709 266 710 261 q 708 276 708 271 l 708 278 q 710 292 710 285 q 710 306 710 299 q 692 404 710 356 q 642 492 674 453 q 567 555 610 531 q 472 579 524 579 q 431 575 453 579 q 310 531 368 561 q 208 457 253 500 l 197 461 l 197 522 q 208 633 197 576 q 243 740 218 690 q 309 826 268 790 q 411 875 350 863 q 424 877 418 876 q 436 878 429 878 q 485 867 461 878 q 527 838 508 856 q 557 795 546 819 q 568 746 568 771 q 675 733 621 746 q 653 813 672 775 q 605 881 635 851 q 537 927 575 910 q 458 944 499 944 m 199 268 q 213 349 199 310 q 252 420 226 388 q 313 475 278 453 q 389 504 347 497 q 426 510 406 510 q 494 491 464 510 q 546 443 524 472 q 580 378 568 414 q 592 307 592 342 q 592 292 592 299 q 590 278 592 285 q 591 269 590 274 q 592 261 592 265 q 577 182 592 221 q 538 112 563 143 q 478 60 513 81 q 401 35 443 39 q 358 29 383 29 q 293 47 322 29 q 243 94 264 65 q 210 158 222 122 q 199 228 199 193 q 201 250 199 243 q 200 258 201 254 q 199 268 199 263 m 675 726 l 683 732 q 678 733 681 732 q 675 733 676 733 l 675 726 z "},"7":{"ha":786,"x_min":60,"x_max":676,"o":"m 82 713 q 104 708 93 710 q 122 707 115 707 q 123 710 122 710 q 124 714 124 711 q 128 748 125 732 q 146 779 131 764 l 147 781 q 186 792 165 788 q 226 797 207 797 l 238 797 q 297 802 267 797 q 358 813 326 807 q 435 824 396 819 q 515 829 475 829 q 581 825 547 829 l 585 817 q 477 569 529 693 q 372 321 425 446 q 299 147 335 231 q 225 -26 264 63 l 235 -26 q 329 -18 281 -26 q 497 395 411 192 q 676 806 583 599 q 676 831 676 819 q 675 856 676 842 q 674 881 674 869 q 672 906 674 892 q 601 922 636 917 q 531 926 567 926 q 442 922 486 926 q 353 910 397 917 q 264 897 308 903 q 174 892 219 892 q 119 894 146 892 q 69 903 93 896 q 69 856 69 878 q 67 810 68 835 q 65 761 65 786 q 64 714 65 738 q 72 714 68 714 q 82 713 78 714 m 60 715 l 64 710 l 64 714 q 62 715 63 714 q 60 715 61 715 z "},"8":{"ha":786,"x_min":61,"x_max":713,"o":"m 519 488 q 578 515 549 497 q 630 556 607 533 q 667 608 653 579 q 681 671 681 638 q 680 679 681 675 q 679 688 679 683 l 679 700 q 660 790 679 746 q 607 867 640 833 q 531 922 574 901 q 440 942 488 942 q 415 940 428 942 q 389 935 403 939 q 287 908 339 926 q 191 860 235 890 q 119 786 147 829 q 92 686 92 743 l 92 664 q 104 596 92 629 q 138 534 117 563 q 189 484 160 506 q 251 453 218 463 l 251 442 q 181 415 215 433 q 121 372 147 397 q 78 315 94 347 q 61 246 61 283 q 63 226 61 233 l 63 213 q 84 116 63 163 q 141 34 106 69 q 223 -23 176 -1 q 319 -44 269 -44 q 386 -33 349 -44 q 495 -8 438 -25 q 601 39 553 10 q 681 112 649 68 q 713 218 713 156 l 713 240 q 697 320 713 282 q 656 390 682 358 q 595 445 631 422 q 519 476 560 468 l 519 488 m 181 228 q 198 305 181 269 q 244 368 215 340 q 310 414 274 396 q 386 439 347 432 q 426 444 403 444 q 490 428 460 444 q 543 388 521 413 q 578 330 565 363 q 592 264 592 297 q 591 256 592 260 q 590 249 590 253 l 590 236 q 574 159 590 196 q 528 93 557 122 q 464 45 500 64 q 389 21 428 26 q 347 15 371 15 q 283 31 314 15 q 230 72 253 46 q 193 130 207 97 q 179 196 179 163 q 181 217 179 210 l 181 228 m 200 665 l 200 672 q 215 744 200 710 q 256 805 231 778 q 316 850 282 832 q 386 875 350 868 q 402 878 394 876 q 418 879 410 879 q 476 865 449 879 q 524 827 503 850 q 556 775 544 804 q 568 717 568 746 q 567 710 568 714 q 567 703 567 706 q 567 694 567 699 q 568 685 568 689 q 553 616 568 649 q 514 558 539 583 q 457 515 489 532 q 390 494 425 499 q 347 488 369 488 q 290 502 317 488 q 242 540 263 517 q 210 592 222 563 q 199 651 199 621 q 199 658 199 654 q 200 665 200 663 z "},"9":{"ha":786,"x_min":65,"x_max":701,"o":"m 311 -46 q 336 -43 324 -46 q 364 -37 349 -40 q 513 20 442 -19 q 625 131 585 60 q 686 306 671 213 q 701 492 701 399 l 701 506 q 686 671 701 589 q 626 824 671 753 q 540 906 594 872 q 425 940 486 940 q 376 933 404 940 q 264 901 318 919 q 165 847 210 882 q 90 747 113 807 q 67 624 67 688 l 67 622 q 65 608 65 615 q 65 594 65 601 q 83 497 65 546 q 131 408 100 447 q 204 344 161 368 q 299 319 247 319 q 321 321 310 319 q 343 325 332 322 q 462 367 406 339 q 563 440 518 396 l 572 436 l 572 378 q 563 266 572 324 q 528 158 553 208 q 464 72 504 108 q 364 24 424 35 q 332 19 347 19 q 283 31 307 19 q 242 59 260 42 q 215 100 225 76 q 204 149 204 124 q 153 153 179 150 q 99 163 126 157 q 117 83 99 121 q 164 17 135 46 q 231 -28 193 -11 q 311 -46 269 -46 m 385 394 q 343 389 367 389 q 276 407 307 389 q 224 454 246 425 q 189 519 201 483 q 176 592 176 556 q 177 608 176 600 q 179 622 178 615 q 178 631 179 628 q 178 640 178 635 q 193 719 178 681 q 235 789 208 758 q 297 840 261 819 q 375 864 333 860 q 413 869 392 869 q 476 851 447 869 q 526 803 506 832 q 558 738 547 774 q 569 668 569 703 q 568 646 569 653 l 568 631 q 555 551 568 590 q 518 478 542 511 q 460 423 494 446 q 385 394 426 400 m 99 169 l 92 164 q 99 163 93 163 l 99 165 l 99 169 z "},"\u0007":{"ha":540,"x_min":357,"x_max":465,"o":"m 432 467 l 433 467 q 449 473 443 467 q 457 488 456 479 q 465 517 465 500 q 450 556 465 540 q 411 571 435 571 q 372 556 388 571 q 357 517 357 540 q 372 478 357 493 q 411 463 388 463 q 432 467 421 463 m 454 494 l 454 492 q 429 471 446 478 q 407 494 407 474 q 414 511 407 504 q 431 518 421 518 q 448 511 440 518 q 454 494 456 504 z "},"‛":{"ha":540,"x_min":357,"x_max":465,"o":"m 432 467 l 433 467 q 449 473 443 467 q 457 488 456 479 q 465 517 465 500 q 450 556 465 540 q 411 571 435 571 q 372 556 388 571 q 357 517 357 540 q 372 478 357 493 q 411 463 388 463 q 432 467 421 463 m 454 494 l 454 492 q 429 471 446 478 q 407 494 407 474 q 414 511 407 504 q 431 518 421 518 q 448 511 440 518 q 454 494 456 504 z "},"‟":{"ha":540,"x_min":357,"x_max":465,"o":"m 432 467 l 433 467 q 449 473 443 467 q 457 488 456 479 q 465 517 465 500 q 450 556 465 540 q 411 571 435 571 q 372 556 388 571 q 357 517 357 540 q 372 478 357 493 q 411 463 388 463 q 432 467 421 463 m 454 494 l 454 492 q 429 471 446 478 q 407 494 407 474 q 414 511 407 504 q 431 518 421 518 q 448 511 440 518 q 454 494 456 504 z "},"\u0005":{"ha":714,"x_min":153,"x_max":547,"o":"m 153 1007 l 153 1001 q 168 933 153 965 q 209 875 183 900 q 267 835 235 850 q 335 821 300 821 q 343 822 339 821 q 351 822 347 822 l 356 822 q 425 837 390 822 q 487 876 460 851 q 531 934 514 901 q 547 1004 547 967 l 547 1008 l 524 1008 q 503 959 521 979 q 460 928 485 939 q 406 911 435 917 q 353 906 378 906 q 339 904 346 904 q 326 904 333 904 q 275 910 301 904 q 228 928 249 915 q 192 959 207 940 q 176 1006 178 978 q 169 1006 171 1006 q 164 1007 168 1007 l 153 1007 z "},"\u0006":{"ha":751,"x_min":296,"x_max":443,"o":"m 296 918 q 316 869 296 890 q 364 847 336 847 l 369 847 q 420 871 397 850 q 443 919 443 892 q 422 969 443 947 q 372 992 400 992 l 371 992 q 319 966 343 985 q 296 918 296 947 z "},"\b":{"ha":718,"x_min":185,"x_max":521,"o":"m 185 928 l 185 919 q 197 861 185 890 q 229 809 208 832 q 277 772 250 786 q 335 757 304 757 q 351 758 346 757 q 414 776 383 763 q 468 813 444 790 q 506 863 492 835 q 521 924 521 890 l 521 929 q 508 989 521 960 q 475 1040 496 1018 q 426 1076 454 1063 q 368 1090 399 1090 q 360 1090 364 1090 q 351 1089 356 1089 q 291 1073 321 1086 q 238 1038 261 1060 q 199 989 214 1017 q 185 928 185 961 m 238 915 l 238 921 q 272 999 238 968 q 350 1036 307 1029 l 351 1036 q 358 1037 354 1036 q 365 1038 363 1038 q 403 1029 385 1038 q 435 1006 421 1021 q 457 974 449 992 q 465 935 465 956 l 465 929 q 456 887 465 907 q 432 851 447 867 q 397 824 417 835 q 356 811 376 814 q 338 810 350 810 q 299 819 317 810 q 267 842 281 828 q 246 876 254 857 q 238 915 238 896 z "},"\n":{"ha":714,"x_min":217,"x_max":619,"o":"m 236 782 q 250 781 242 781 l 253 781 q 281 811 267 796 q 310 842 294 826 q 354 889 333 865 q 396 936 375 913 q 400 941 397 938 q 404 946 403 944 q 417 965 411 956 q 424 989 424 975 q 411 1016 422 1004 q 385 1028 400 1028 l 383 1028 q 345 1006 360 1024 q 318 969 331 988 q 306 945 311 957 q 294 921 301 933 q 257 850 275 885 q 226 783 239 815 q 231 783 229 783 q 236 782 233 782 m 449 785 l 492 832 q 541 887 517 860 q 593 939 565 914 q 611 963 603 950 q 619 986 619 975 q 603 1017 617 1004 q 572 1032 589 1029 q 539 1014 553 1032 q 517 978 525 996 q 498 938 507 958 q 478 899 489 918 q 448 840 463 869 q 418 782 433 811 l 449 785 m 408 781 l 414 771 q 416 776 415 774 q 418 782 417 779 l 408 781 m 217 785 l 224 778 q 226 783 224 781 q 217 785 224 785 z "},"\u000b":{"ha":726,"x_min":224,"x_max":478,"o":"m 378 0 q 324 -44 350 -21 q 276 -95 297 -68 q 240 -153 254 -122 q 224 -219 225 -185 q 233 -258 225 -239 q 253 -291 240 -276 q 284 -315 267 -306 q 322 -324 301 -324 q 328 -322 325 -324 q 333 -321 331 -321 q 417 -284 381 -312 q 478 -219 454 -256 q 478 -218 478 -219 q 476 -215 478 -217 q 467 -208 465 -206 q 468 -208 469 -210 q 431 -242 453 -228 q 382 -258 408 -257 q 368 -260 378 -260 q 319 -236 339 -260 q 299 -183 299 -212 l 299 -176 q 339 -67 306 -115 q 417 19 372 -18 l 403 19 l 378 0 m 435 19 l 429 31 q 423 25 426 28 q 417 19 419 22 l 435 19 z "},"\f":{"ha":714,"x_min":149,"x_max":546,"o":"m 285 821 l 313 779 q 353 782 335 781 q 392 786 371 783 l 450 874 q 499 948 476 913 q 546 1022 522 983 q 540 1023 542 1024 q 533 1024 539 1022 q 517 1025 526 1025 q 491 1001 503 1013 q 464 976 479 990 q 410 926 438 951 q 356 874 383 901 l 349 874 q 260 947 300 911 q 185 1019 221 983 l 164 1019 l 158 1019 q 221 915 189 961 q 285 821 253 868 m 154 1031 l 149 1021 q 153 1020 151 1021 q 158 1019 156 1019 q 154 1031 156 1025 z "},"\r":{"ha":444,"x_min":32,"x_max":403,"o":"m 225 665 q 167 651 197 658 q 106 644 138 644 l 99 644 l 64 649 q 46 652 56 650 q 36 654 36 654 q 34 628 35 639 q 33 603 33 617 q 34 602 36 603 q 35 601 32 601 q 44 600 43 601 q 138 582 92 596 l 140 581 q 164 540 157 561 q 171 497 171 519 l 171 149 q 169 101 171 125 q 149 60 167 78 l 147 58 q 117 48 133 51 q 83 44 100 44 q 55 46 68 44 q 35 50 42 47 l 35 26 q 35 13 35 19 q 36 -1 35 7 q 124 -14 75 -14 q 173 -10 147 -14 q 222 1 199 -6 q 268 10 244 8 q 315 13 292 13 q 400 1 358 13 q 402 28 401 17 q 403 56 403 39 q 391 58 400 57 q 375 60 382 58 q 344 66 360 63 q 313 75 328 69 l 310 76 q 285 116 292 94 q 279 161 279 138 l 279 313 q 278 494 279 404 q 276 678 278 585 l 225 665 m 283 679 l 276 685 l 276 678 q 283 679 281 678 z "},"\u0019":{"ha":236,"x_min":-233,"x_max":456,"o":"m 132 528 q -45 248 43 385 q -233 -24 -133 111 q -203 -31 -215 -28 q -175 -37 -192 -35 q -23 188 -94 75 q 121 418 49 300 q 282 674 200 547 q 456 925 364 800 q 425 931 439 929 q 394 936 411 933 q 260 733 325 836 q 132 528 196 631 m 397 940 l 392 938 q 393 936 393 938 q 394 936 393 936 q 396 938 396 938 q 397 940 396 939 z "},"\u001a":{"ha":835,"x_min":14,"x_max":806,"o":"m 257 578 l 263 583 q 336 592 299 586 q 413 604 374 597 l 438 608 q 482 613 460 613 q 499 612 490 613 q 515 611 507 611 q 525 610 521 611 q 535 610 529 610 l 538 610 q 574 570 565 597 q 582 517 582 543 l 582 506 q 582 342 582 424 q 581 179 582 261 q 578 131 581 156 q 558 85 575 106 l 557 82 q 504 61 529 71 q 456 49 479 51 l 456 -4 q 540 12 496 7 q 628 17 583 17 l 643 17 q 726 13 686 17 q 803 1 767 8 q 803 13 803 7 q 804 26 803 18 l 804 28 q 806 39 806 35 q 806 50 806 44 l 806 54 q 797 55 800 56 q 788 56 793 54 q 751 63 768 58 q 714 78 733 67 l 713 78 q 691 117 697 96 q 685 160 685 138 q 686 181 685 174 q 688 328 688 256 q 689 475 689 400 q 688 576 689 528 q 688 678 688 625 l 678 678 q 628 676 653 678 q 581 672 604 675 q 548 670 565 671 q 514 668 531 669 q 463 662 490 665 q 411 654 436 658 q 338 642 375 647 q 263 636 300 638 l 257 642 l 257 740 q 270 818 257 779 q 308 888 283 857 q 367 940 333 919 q 443 965 401 961 q 461 967 453 967 q 479 968 469 968 q 512 964 496 968 q 540 949 528 960 q 574 894 564 925 q 583 831 583 863 q 628 830 608 831 q 672 828 647 829 q 672 872 672 851 q 669 915 671 892 q 668 958 668 939 q 667 1003 668 979 q 601 1018 635 1014 q 532 1022 567 1022 q 497 1021 514 1022 q 463 1018 481 1019 q 351 992 407 1014 q 249 933 294 969 q 176 849 204 897 q 147 740 147 800 q 147 728 147 733 q 150 715 147 722 l 150 642 l 143 636 q 126 638 135 638 q 110 639 118 638 q 59 644 83 642 q 15 650 35 646 q 15 641 15 643 q 14 632 14 639 l 14 600 q 74 591 42 594 q 142 585 107 588 l 147 579 q 149 363 147 471 q 153 146 150 254 q 153 107 154 126 q 144 69 151 88 l 143 67 q 111 49 128 53 q 76 44 94 44 q 29 49 50 44 l 26 50 q 22 50 28 47 q 24 25 24 35 q 25 0 25 15 q 120 -12 74 -7 q 210 -19 167 -17 q 234 -20 222 -19 q 260 -21 246 -21 q 322 -19 292 -21 q 383 -15 351 -18 l 383 38 q 367 35 376 36 q 346 35 358 35 q 293 40 315 35 l 290 42 q 257 128 257 82 q 258 135 257 131 q 258 142 258 139 q 257 306 257 225 q 257 469 257 386 l 257 578 m 22 50 l 22 53 q 21 51 18 53 q 21 50 21 51 q 22 50 21 50 z "},"\u001b":{"ha":842,"x_min":14,"x_max":811,"o":"m 254 578 l 260 583 l 301 589 q 367 596 333 593 q 421 603 400 599 l 421 654 q 344 643 385 647 q 260 636 303 639 l 254 642 l 254 726 q 253 735 254 731 q 253 743 253 739 q 269 824 253 785 q 312 895 285 864 q 376 946 339 926 q 457 968 414 965 q 474 970 465 969 q 492 971 483 971 q 523 967 507 971 q 556 954 539 964 l 557 954 q 582 906 576 932 q 588 851 588 879 q 590 683 589 767 q 590 515 590 600 q 590 347 590 431 q 588 179 589 264 q 585 131 588 156 q 565 85 582 106 l 564 82 q 512 62 536 71 q 463 50 488 53 l 463 -3 q 618 17 538 17 l 661 17 q 808 1 736 17 q 808 13 808 7 q 810 26 808 18 l 810 28 q 811 39 811 35 q 811 50 811 44 l 811 53 q 767 60 789 56 q 721 76 744 64 l 719 78 q 698 117 704 96 q 692 161 692 138 q 693 182 692 175 q 695 358 694 271 q 696 533 696 444 q 694 766 696 651 q 688 999 693 881 q 608 1016 649 1010 q 526 1022 568 1022 q 491 1020 508 1022 q 456 1017 474 1018 q 346 991 401 1013 q 246 933 290 969 q 174 849 201 897 q 146 742 146 800 q 146 728 146 735 q 147 715 146 722 l 147 642 l 142 636 q 125 638 133 638 q 108 639 117 638 q 60 644 85 642 q 15 650 35 646 q 15 641 15 643 q 14 632 14 639 l 14 600 q 74 591 42 594 q 140 585 106 588 l 146 579 q 147 363 146 471 q 151 146 149 254 q 151 107 153 126 q 143 69 150 88 l 142 67 q 110 49 126 53 q 75 44 93 44 q 29 49 50 44 l 26 50 q 22 50 28 47 q 24 25 24 35 q 25 0 25 15 q 118 -12 72 -7 q 208 -19 164 -18 q 240 -21 224 -21 q 272 -21 257 -21 q 326 -20 300 -21 q 383 -17 353 -19 l 383 38 q 380 37 381 38 q 376 36 379 36 q 357 33 367 33 q 338 33 349 33 q 315 34 326 33 q 293 40 304 35 l 290 42 q 263 79 271 57 q 254 126 254 101 q 255 134 254 131 q 256 142 256 138 q 254 306 254 225 q 254 469 254 386 l 254 578 m 22 50 l 22 53 q 21 51 18 53 q 21 50 21 51 q 22 50 21 50 z "},"\u001c":{"ha":861,"x_min":21,"x_max":821,"o":"m 724 217 l 724 199 q 721 151 724 174 q 699 108 718 128 l 697 107 q 638 90 669 93 q 575 83 607 86 q 556 82 565 82 q 536 81 546 82 q 485 74 511 78 q 431 67 458 71 q 383 58 407 63 q 332 51 360 54 l 326 57 q 324 247 324 153 q 324 439 324 343 l 326 443 q 376 483 353 463 q 424 524 400 503 q 488 578 456 551 q 557 629 519 606 l 557 700 q 485 644 517 672 q 415 586 453 617 q 375 553 396 569 q 333 518 354 536 l 324 522 q 324 568 324 546 q 325 614 325 590 l 325 726 q 328 774 325 750 q 349 815 332 797 l 351 815 q 413 845 381 838 q 478 857 444 853 l 479 857 q 497 859 489 858 q 510 861 506 860 l 510 894 q 509 910 510 904 q 508 924 508 915 q 477 919 490 921 q 444 914 464 917 q 358 899 401 907 q 269 889 314 892 q 238 888 253 888 q 207 888 222 888 q 125 891 165 888 q 49 901 85 894 q 49 888 49 894 q 47 872 49 882 q 46 856 46 863 q 46 842 46 849 q 59 840 54 840 q 71 838 64 839 q 117 831 94 835 q 163 821 139 828 l 164 819 q 199 775 192 804 q 207 717 207 746 l 207 697 q 206 574 207 635 q 206 453 206 514 l 203 449 q 108 388 151 414 q 21 339 64 363 q 22 306 22 319 q 22 271 22 292 q 113 320 69 296 q 197 372 157 344 l 206 368 q 207 270 206 319 q 208 171 208 221 l 208 131 q 204 94 208 111 q 185 63 200 76 l 182 61 q 147 50 165 53 q 110 47 129 47 q 76 49 92 47 q 46 54 61 51 q 46 42 46 47 q 47 26 46 36 q 49 8 49 17 q 49 -6 49 1 q 133 -21 90 -17 q 221 -25 176 -25 q 334 -19 278 -25 q 447 -7 390 -14 q 563 6 506 0 q 679 13 621 13 q 810 1 746 13 q 817 149 815 79 q 821 296 819 219 q 772 303 794 301 q 725 307 749 306 q 724 261 725 283 q 724 217 724 239 m 725 313 l 719 307 l 725 307 l 725 313 z "},"\u001d":{"ha":454,"x_min":0,"x_max":460,"o":"m 175 428 l 175 135 q 173 90 175 113 q 156 49 171 68 l 154 47 q 82 32 119 32 q 58 33 69 32 q 40 38 47 35 q 40 11 40 22 q 42 -14 40 1 q 76 -21 58 -18 q 113 -24 93 -24 q 169 -18 140 -24 q 226 -4 199 -12 q 344 14 282 14 q 407 10 382 14 l 407 42 q 408 53 407 49 q 408 64 408 57 q 397 65 408 64 q 376 68 386 67 q 346 71 361 69 q 318 76 331 72 l 314 78 q 290 114 296 93 q 283 157 283 135 l 283 172 q 284 258 283 217 q 285 344 285 300 l 285 515 l 286 519 q 369 581 326 551 q 460 625 411 610 q 459 636 460 632 q 458 647 458 640 l 458 681 q 372 640 413 667 q 293 583 332 614 l 285 589 q 284 804 285 699 q 282 1019 283 910 q 231 1004 263 1015 q 173 986 201 994 q 113 978 144 978 l 107 978 q 93 977 100 978 q 79 976 86 976 q 40 981 54 976 l 40 950 q 40 940 40 943 q 39 929 39 936 q 56 926 43 926 q 82 925 69 926 q 108 924 96 924 q 132 919 121 924 l 133 919 q 169 881 161 907 q 176 828 176 856 l 176 818 q 176 660 176 739 q 175 501 175 581 l 174 497 q 91 437 135 464 q 0 393 47 410 l 0 338 q 85 377 44 353 q 165 432 126 401 l 175 428 z "},"\u001e":{"ha":778,"x_min":46,"x_max":718,"o":"m 50 46 q 51 21 51 33 q 51 -1 51 10 q 215 -28 129 -28 q 310 -22 263 -28 q 407 -8 358 -15 q 504 5 456 -1 q 603 11 553 11 q 658 8 632 11 q 708 1 685 6 l 718 235 q 701 237 713 236 q 676 239 690 238 q 656 242 665 240 q 635 244 646 243 l 635 229 q 634 219 635 224 q 633 208 633 214 l 633 190 q 630 143 633 165 q 607 101 626 121 l 606 100 q 551 82 581 86 q 490 75 521 78 q 469 73 479 74 q 444 69 458 72 l 424 65 q 322 48 374 54 q 218 42 271 42 q 190 42 203 42 q 163 44 176 43 l 158 53 q 277 216 221 133 q 390 383 333 299 q 546 611 468 500 q 708 819 624 722 q 708 842 708 831 q 707 864 708 853 q 706 885 706 875 q 704 908 706 896 q 630 924 668 919 q 554 928 592 928 q 457 923 506 928 q 360 911 408 918 q 263 899 311 904 q 167 893 215 893 q 78 900 117 893 q 75 831 75 864 q 74 763 75 799 q 73 718 74 739 q 71 674 72 697 q 153 665 122 668 q 151 683 151 672 q 151 710 151 696 l 151 717 q 160 772 151 744 q 197 813 169 800 l 199 813 q 250 824 225 819 q 303 832 275 828 q 324 835 314 835 q 346 839 335 836 q 439 854 392 850 q 535 858 486 858 q 561 858 549 858 q 586 857 574 857 l 590 849 q 485 702 536 775 q 383 554 433 629 q 217 316 300 432 q 47 96 135 200 q 49 71 49 85 q 50 46 49 58 m 47 99 l 46 94 q 46 94 46 94 q 47 96 46 96 l 47 99 m 326 1072 l 354 1031 q 394 1033 376 1032 q 433 1038 413 1035 l 492 1125 q 541 1199 518 1164 q 588 1274 564 1235 q 582 1274 583 1275 q 575 1275 581 1274 q 558 1276 568 1276 q 533 1253 544 1264 q 506 1228 521 1242 q 452 1178 479 1203 q 397 1125 425 1153 l 390 1125 q 302 1199 342 1163 q 226 1271 263 1235 l 206 1271 l 200 1271 q 263 1166 231 1213 q 326 1072 294 1119 m 196 1282 l 190 1272 q 195 1272 193 1272 q 200 1271 197 1271 q 196 1282 197 1276 z "},"\u001f":{"ha":694,"x_min":64,"x_max":631,"o":"m 199 -18 q 280 -14 239 -18 q 363 -4 321 -10 q 444 5 403 1 q 526 8 486 8 q 578 7 554 8 q 624 1 601 6 q 624 24 624 15 q 626 49 625 33 q 631 210 631 132 q 603 213 615 213 q 576 217 592 214 l 575 217 q 564 217 568 218 q 553 218 560 217 l 553 196 q 551 148 553 172 q 539 100 549 124 l 538 99 q 489 74 517 78 q 433 67 461 69 q 396 63 414 65 q 358 57 378 60 q 285 48 321 51 q 211 44 250 44 l 185 44 l 181 54 q 263 153 222 103 q 344 257 304 204 q 478 426 411 343 q 617 581 544 510 q 617 599 617 590 q 615 619 617 608 q 614 639 614 631 q 614 657 614 647 q 490 671 558 671 q 410 667 450 671 q 329 658 369 663 q 249 649 289 653 q 167 644 208 644 q 126 646 146 644 q 90 650 106 647 q 90 630 90 642 q 88 606 89 618 q 84 528 85 565 q 83 451 83 492 q 99 449 85 451 q 158 444 133 444 l 158 457 q 160 509 158 483 q 172 557 163 535 l 174 558 q 223 588 196 581 q 279 597 250 594 q 309 600 294 599 q 339 604 324 601 q 398 612 368 608 q 458 615 428 615 q 475 615 467 615 q 492 614 483 615 l 496 604 q 430 524 463 564 q 365 443 397 485 q 217 259 292 350 q 64 90 143 168 q 65 69 64 81 q 67 44 65 57 q 68 21 68 32 q 68 -1 68 10 q 199 -18 135 -18 m 64 0 l 68 -6 l 68 -1 q 64 0 65 -1 m 285 821 l 313 779 q 353 782 335 781 q 392 786 371 783 l 450 874 q 499 948 476 913 q 546 1022 522 983 q 540 1023 542 1024 q 533 1024 539 1022 q 517 1025 526 1025 q 491 1001 503 1013 q 464 976 479 990 q 410 926 438 951 q 356 874 383 901 l 349 874 q 260 947 300 911 q 185 1019 221 983 l 164 1019 l 158 1019 q 221 915 189 961 q 285 821 253 868 m 154 1031 l 149 1021 q 153 1020 151 1021 q 158 1019 156 1019 q 154 1031 156 1025 z "}," ":{"ha":339,"x_min":0,"x_max":0,"o":""},"!":{"ha":497,"x_min":171,"x_max":328,"o":"m 249 250 q 279 267 268 265 q 284 355 282 313 q 289 443 286 397 q 299 623 294 533 q 306 803 303 713 q 310 833 308 818 q 310 864 311 849 q 307 888 310 876 q 300 911 304 900 q 285 931 296 922 q 264 939 275 939 q 249 932 256 939 l 246 931 q 237 924 242 928 q 225 917 232 921 q 195 896 210 908 q 181 865 181 883 l 181 860 q 179 847 179 853 q 179 835 179 842 q 179 815 179 825 q 181 796 179 807 q 181 788 181 792 q 182 781 182 785 q 191 595 185 688 q 204 410 197 503 q 210 322 207 365 q 217 233 214 278 q 233 240 226 236 q 249 250 240 243 m 325 58 q 320 90 325 74 q 308 125 315 107 q 294 138 303 132 q 275 143 286 143 q 254 135 263 143 q 218 113 238 121 q 185 94 200 104 q 171 67 171 85 l 171 58 q 176 24 174 42 q 189 -12 179 7 q 205 -33 194 -24 q 226 -42 215 -42 q 243 -35 236 -42 q 258 -24 250 -29 q 275 -14 267 -19 q 311 13 294 -1 q 328 49 328 26 q 326 53 328 51 q 325 58 325 56 m 213 233 l 218 228 q 217 231 218 229 q 217 233 217 232 l 213 233 z "},"\"":{"ha":475,"x_min":60,"x_max":403,"o":"m 401 914 l 401 915 q 403 928 403 921 q 401 942 403 936 l 401 950 q 386 994 401 974 q 346 1015 371 1015 l 342 1015 q 306 995 318 1015 q 293 953 293 975 l 293 951 q 294 938 294 947 q 295 931 294 935 q 296 924 296 926 q 320 765 308 843 q 342 606 332 686 l 350 606 l 351 606 q 379 759 367 683 q 401 914 392 835 m 165 910 q 167 924 167 915 q 167 933 167 929 q 168 939 168 936 l 168 946 q 154 984 168 965 q 119 1003 140 1003 l 106 1003 q 73 986 86 1003 q 60 950 60 969 l 60 943 q 60 929 60 936 q 61 915 60 922 l 61 914 q 82 752 69 831 q 110 592 94 674 l 121 592 q 140 751 131 671 q 165 910 150 831 m 351 600 l 360 604 q 351 606 357 606 l 351 600 m 121 586 l 126 592 l 121 592 l 121 586 z "},"#":{"ha":1081,"x_min":49,"x_max":1021,"o":"m 415 656 l 410 651 q 342 647 376 649 q 274 646 308 646 q 220 647 246 646 q 165 650 194 647 q 158 631 161 639 q 150 611 154 622 q 144 598 147 603 q 139 585 142 593 q 289 576 203 576 q 334 577 313 576 q 378 579 356 578 l 383 572 l 313 371 l 307 367 l 283 367 q 181 370 231 367 q 85 381 131 374 q 80 369 82 374 q 75 356 78 364 q 65 333 72 349 q 53 306 58 317 q 49 294 49 294 q 63 317 50 293 q 169 303 115 310 q 278 297 222 297 l 283 290 q 228 136 254 211 q 178 -19 203 61 q 198 -22 190 -21 q 217 -24 206 -22 q 237 -26 228 -25 q 257 -28 246 -26 q 310 134 282 56 q 367 294 338 213 l 372 299 q 461 305 417 300 q 550 317 506 310 l 575 321 l 582 314 q 553 230 567 272 q 524 143 539 188 q 496 61 508 100 q 468 -21 483 22 q 506 -17 486 -19 q 549 -10 525 -14 l 665 328 l 671 332 q 807 336 738 336 q 853 335 831 336 q 900 333 875 335 q 906 347 903 342 q 911 361 908 353 q 918 378 914 368 q 925 394 922 388 q 928 403 928 401 q 925 399 929 406 q 859 403 894 401 q 786 404 824 404 q 742 404 764 404 q 700 403 721 404 l 694 410 q 713 465 703 438 q 733 521 722 493 q 749 565 742 543 q 764 610 757 586 l 769 614 q 985 601 886 614 q 990 613 988 608 q 994 626 992 618 q 1004 649 997 633 q 1016 676 1011 664 q 1019 688 1021 688 q 1007 664 1019 688 q 906 676 958 672 q 800 682 853 679 l 794 689 q 803 713 799 700 q 811 738 807 726 q 856 868 835 804 q 899 1003 878 932 q 876 1004 892 1003 q 844 1007 860 1006 q 819 1008 825 1007 q 772 860 796 932 q 721 713 747 788 q 716 699 718 706 q 711 685 714 692 l 706 681 q 606 674 656 678 q 504 661 556 669 l 497 668 q 503 688 500 678 q 510 707 507 697 q 562 856 538 785 q 610 1006 586 926 l 585 1003 q 558 1000 571 1001 q 531 996 544 999 q 474 825 503 910 q 415 656 444 740 m 472 589 q 510 594 492 592 q 547 599 528 596 q 613 606 581 603 q 679 611 646 610 l 685 604 q 668 552 676 578 q 649 501 660 526 q 631 451 639 476 q 613 399 622 425 l 607 394 q 574 390 590 392 q 540 385 557 388 q 472 376 506 379 q 400 369 438 372 l 394 376 l 429 474 q 449 529 439 501 q 467 585 458 557 l 472 589 m 532 1000 l 528 996 l 531 996 q 531 998 532 997 q 532 1000 531 999 z "},"$":{"ha":786,"x_min":71,"x_max":706,"o":"m 289 -49 q 315 -47 301 -49 q 342 -43 328 -46 l 349 -49 l 349 -158 q 378 -151 364 -154 q 404 -144 393 -147 q 408 -144 407 -143 q 411 -143 408 -144 l 411 -89 q 411 -58 411 -74 q 410 -28 411 -43 l 414 -22 q 513 12 461 -10 q 608 65 565 33 q 678 138 650 96 q 706 236 706 181 l 706 254 q 679 353 706 308 q 611 431 653 399 q 518 484 569 464 q 417 508 467 504 l 411 514 l 411 885 l 415 890 q 429 892 422 892 q 446 893 436 893 q 499 884 474 893 q 544 853 525 875 l 544 851 q 578 776 568 814 q 589 700 588 739 q 626 695 607 697 q 664 688 644 693 q 663 736 664 714 q 663 785 663 758 q 663 835 663 811 q 661 886 663 860 q 574 930 622 913 q 476 947 526 947 q 453 947 465 947 q 428 942 442 946 l 418 939 l 411 944 l 411 994 q 411 1015 411 1006 q 410 1036 411 1025 q 399 1034 404 1035 q 386 1031 393 1033 q 366 1027 381 1029 q 341 1023 351 1025 q 329 1020 331 1021 q 349 1022 328 1019 l 349 928 l 344 922 q 252 892 300 910 q 164 846 204 874 q 97 779 124 818 q 71 688 71 740 l 71 675 q 94 577 71 622 q 157 499 118 532 q 244 444 196 465 q 342 419 292 424 l 347 414 l 347 21 l 343 15 q 304 11 324 11 q 243 22 272 11 q 194 58 214 32 q 154 143 165 97 q 140 233 143 189 q 117 238 131 235 q 90 243 104 240 l 74 249 l 74 217 q 74 171 74 193 q 75 125 74 149 q 76 76 76 101 q 76 29 76 53 q 176 -28 121 -7 q 289 -49 231 -49 m 411 401 l 417 407 q 481 393 449 406 q 540 360 514 381 q 582 310 565 339 q 599 247 599 281 l 599 231 q 582 162 599 193 q 540 106 565 131 q 481 63 514 81 q 418 33 449 44 l 411 39 l 411 401 m 347 522 l 340 517 q 276 536 307 521 q 220 574 244 551 q 181 627 196 597 q 167 692 167 657 l 167 700 q 183 763 167 735 q 224 812 199 790 q 280 849 249 833 q 340 872 311 864 l 347 867 l 347 522 m 75 31 l 76 26 l 76 29 q 75 31 75 29 z "},"%":{"ha":1074,"x_min":51,"x_max":1011,"o":"m 815 -12 q 826 -14 822 -14 q 836 -14 831 -14 q 909 6 876 -14 q 964 58 942 26 q 998 129 986 90 q 1010 206 1010 168 q 1010 215 1010 211 q 1008 228 1010 221 l 1008 229 q 1010 248 1010 239 q 1011 268 1011 257 q 999 351 1011 310 q 965 425 988 392 q 907 479 942 458 q 828 500 872 500 l 807 500 q 730 478 763 500 q 675 422 697 456 q 642 345 653 388 q 632 263 632 303 q 632 249 632 256 q 633 236 632 243 l 633 235 q 631 218 632 226 q 631 201 631 210 q 641 126 631 164 q 672 56 651 88 q 724 6 693 25 q 794 -14 754 -14 q 813 -12 806 -14 l 815 -12 m 228 399 l 238 399 q 257 397 244 397 q 333 419 300 397 q 387 476 365 442 q 419 551 408 510 q 431 633 431 593 q 431 647 431 640 q 429 661 431 654 l 429 674 q 422 750 429 713 q 400 824 415 788 q 338 890 381 868 q 247 913 294 913 l 243 913 q 166 901 206 913 q 104 857 126 889 q 65 768 76 817 q 53 669 53 719 q 51 653 51 661 q 51 635 51 644 q 62 552 51 594 q 94 476 72 510 q 150 420 117 442 q 228 399 183 399 m 235 439 q 176 463 197 443 q 146 513 156 483 q 134 575 136 542 q 132 638 132 608 l 132 660 q 134 724 132 689 q 147 792 136 760 q 178 845 157 824 q 240 869 200 867 q 299 847 278 867 q 330 797 319 826 q 342 734 340 768 q 344 671 344 700 l 344 656 q 344 642 344 649 q 343 629 343 636 q 339 566 342 599 q 326 505 336 533 q 294 458 315 476 q 235 439 274 440 m 815 28 q 759 50 779 31 q 729 97 739 69 q 718 158 719 125 q 717 219 717 190 l 717 242 q 717 256 717 249 q 718 269 718 263 q 722 331 719 299 q 734 392 724 364 q 765 438 744 419 q 822 460 785 457 q 878 438 857 456 q 909 396 899 421 q 922 340 919 371 q 925 281 925 310 l 925 239 q 924 174 925 210 q 912 106 922 138 q 879 51 901 74 q 815 28 857 29 m 285 -49 q 431 214 360 83 q 576 479 503 344 q 704 713 642 599 q 833 946 767 826 l 799 946 q 787 947 792 946 q 774 947 782 947 q 760 921 767 932 q 747 896 754 910 q 490 424 618 657 q 225 -44 361 192 q 233 -45 226 -44 q 249 -47 240 -46 l 250 -47 q 263 -49 257 -49 q 276 -49 269 -49 l 285 -49 z "},"&":{"ha":1054,"x_min":83,"x_max":1049,"o":"m 1049 507 q 807 524 925 524 q 539 503 672 524 l 538 503 q 487 498 513 500 q 436 496 461 496 q 340 506 383 496 q 291 526 314 511 q 251 563 268 542 q 225 610 235 585 q 215 664 215 636 l 215 689 q 235 763 215 731 q 288 817 256 794 q 358 850 319 839 q 435 861 397 861 l 453 861 q 501 855 478 861 q 546 833 524 849 l 547 832 q 576 770 568 803 q 585 703 585 738 l 585 692 q 620 696 601 694 q 660 699 639 697 q 659 774 660 738 q 657 849 658 810 q 656 885 657 868 q 656 922 656 903 q 575 928 624 928 q 478 924 525 928 q 460 922 468 922 q 442 921 451 921 q 332 907 390 919 q 224 867 274 894 q 141 798 174 840 q 108 693 108 756 l 108 679 q 124 605 108 640 q 164 540 139 569 q 222 491 189 511 q 293 463 256 471 l 292 451 q 215 431 253 447 q 149 387 178 414 q 101 324 119 360 q 83 249 83 289 q 83 236 83 242 q 85 225 83 232 l 85 218 q 113 108 85 157 q 185 23 140 58 q 285 -31 229 -12 q 399 -50 342 -50 q 447 -46 424 -50 l 449 -46 q 576 -24 513 -46 q 692 40 640 -1 q 777 137 744 81 q 810 261 810 193 q 810 278 810 269 q 808 294 810 286 l 808 458 l 813 464 q 825 465 817 465 q 838 464 833 465 q 858 463 844 463 l 860 463 q 879 460 874 460 q 910 456 894 458 q 940 443 926 454 l 942 442 q 965 392 958 418 q 971 338 971 365 l 971 333 q 1047 325 1001 332 q 1049 375 1049 351 q 1049 429 1049 400 l 1049 507 m 700 454 l 700 294 q 701 285 700 290 q 701 276 701 281 q 681 179 701 226 q 627 95 661 132 q 547 35 593 58 q 450 11 501 13 q 432 8 442 8 q 413 8 422 8 q 333 24 372 8 q 263 66 293 39 q 213 130 232 93 q 194 208 194 167 l 194 221 q 193 243 193 228 q 221 330 193 294 q 290 388 249 365 q 381 422 332 411 q 474 433 431 432 q 521 438 497 433 q 568 446 544 443 q 631 453 600 450 q 694 460 663 457 l 700 454 m 1047 324 q 1049 325 1047 325 l 1047 325 l 1047 324 z "},"'":{"ha":260,"x_min":65,"x_max":182,"o":"m 144 683 q 163 800 154 742 q 179 917 171 858 q 181 931 181 921 q 181 937 181 933 q 182 943 182 940 l 182 946 q 179 967 182 956 q 170 989 176 979 q 156 1006 164 999 q 136 1013 147 1013 q 124 1011 129 1013 q 83 989 100 1006 q 65 949 65 972 l 65 942 q 65 928 65 935 q 68 915 65 922 l 76 851 q 94 722 85 785 q 115 593 104 660 q 119 594 115 593 q 131 600 122 596 l 144 683 m 131 597 l 133 601 q 131 600 132 600 l 131 597 z "},"(":{"ha":411,"x_min":90,"x_max":332,"o":"m 201 390 l 201 415 q 206 564 201 489 q 222 713 210 639 q 258 858 235 788 q 322 992 282 928 q 298 1007 311 1000 q 269 1014 285 1014 q 140 737 190 883 q 90 435 90 590 l 90 417 q 96 268 90 344 q 120 119 101 192 q 174 -20 139 46 q 269 -137 210 -86 q 274 -137 272 -137 q 281 -136 276 -136 q 317 -140 297 -136 q 231 118 261 -15 q 201 390 201 251 m 324 -156 l 332 -147 q 317 -140 325 -142 q 320 -148 319 -144 q 324 -156 321 -151 z "},")":{"ha":411,"x_min":75,"x_max":310,"o":"m 129 -181 q 260 101 210 -46 q 310 408 310 249 l 310 421 q 304 569 310 493 q 280 719 299 646 q 225 859 261 793 q 129 976 189 925 l 119 976 q 98 977 108 976 q 83 981 88 978 q 167 722 136 857 q 199 444 199 588 l 199 419 q 194 273 199 347 q 178 125 190 199 q 141 -19 165 51 q 78 -153 117 -89 q 102 -172 89 -164 q 129 -181 115 -179 m 75 -150 l 75 -157 q 78 -153 75 -156 l 75 -150 z "},"*":{"ha":711,"x_min":107,"x_max":593,"o":"m 356 650 q 380 594 368 622 q 403 538 392 567 q 415 503 410 519 q 428 469 421 488 q 436 474 433 472 q 444 479 439 476 q 471 496 457 488 q 496 511 485 504 q 513 522 507 518 q 519 526 519 526 q 501 547 508 538 q 485 567 494 556 q 439 622 461 594 q 392 675 417 650 l 397 685 q 498 673 450 682 q 593 651 546 664 l 593 672 q 593 685 593 679 q 592 700 593 692 l 592 701 q 591 726 592 715 q 590 750 590 736 q 494 738 544 749 q 393 715 444 728 l 388 725 q 417 760 403 742 q 446 796 431 778 q 480 838 465 819 q 514 879 494 857 q 496 890 510 882 q 465 907 482 899 l 465 908 q 446 919 454 915 q 426 929 438 922 q 406 872 417 899 q 385 815 396 846 l 356 738 l 344 738 q 328 778 336 758 q 311 818 319 797 l 311 819 q 291 868 300 846 q 271 917 282 890 q 225 888 247 901 q 183 863 203 874 q 192 851 190 856 q 201 839 194 846 l 201 838 q 250 778 225 807 q 308 715 275 749 l 304 706 q 202 719 251 711 q 111 739 153 726 q 111 715 111 725 q 110 693 111 707 q 108 667 108 678 q 107 642 108 656 q 196 650 150 642 q 288 668 242 658 q 294 669 292 669 q 303 671 299 669 l 308 661 q 278 626 293 644 q 247 590 263 608 q 211 544 228 565 q 181 508 194 524 q 203 495 194 501 q 226 482 213 489 q 249 469 239 475 q 271 456 258 463 q 289 503 281 481 q 307 549 297 525 q 326 598 317 574 q 344 649 335 622 l 356 650 z "},"+":{"ha":1172,"x_min":161,"x_max":1000,"o":"m 543 449 l 538 443 q 448 435 493 438 q 357 432 403 432 q 256 435 306 432 q 161 446 207 439 l 161 379 q 265 365 214 369 q 365 361 317 361 q 453 364 410 361 q 539 371 496 367 l 544 365 q 545 269 544 317 q 546 174 546 222 l 546 -15 q 561 -12 556 -14 q 578 -10 567 -11 q 599 -6 590 -7 q 617 -4 608 -6 q 618 186 618 93 q 618 379 618 281 l 624 385 q 710 393 667 390 q 799 396 754 396 q 901 392 851 396 q 1000 382 951 389 l 1000 449 q 897 460 947 456 q 799 464 847 464 q 710 461 754 464 q 622 453 665 458 l 617 458 q 617 649 617 554 q 615 839 617 743 q 599 837 608 838 q 571 833 590 836 q 558 831 564 832 q 544 829 551 831 l 544 642 q 544 545 544 593 q 543 449 543 497 m 544 835 l 540 829 l 544 829 l 544 835 z "},",":{"ha":410,"x_min":92,"x_max":285,"o":"m 190 -94 q 221 -24 206 -58 q 251 46 236 11 q 257 54 254 49 q 265 68 260 60 q 278 96 272 82 q 285 126 285 110 q 261 154 278 144 q 225 164 244 164 q 176 148 194 164 q 148 108 158 132 q 133 56 138 83 q 125 7 128 29 l 125 6 q 119 -40 122 -18 q 111 -85 115 -61 q 99 -141 104 -115 q 92 -197 94 -167 q 110 -201 100 -200 q 131 -204 119 -203 q 142 -206 138 -204 q 166 -150 154 -178 q 190 -94 178 -122 m 140 -210 l 146 -206 l 142 -206 q 140 -210 140 -206 z "},"-":{"ha":557,"x_min":18,"x_max":386,"o":"m 124 308 q 176 308 151 308 q 228 310 201 308 q 283 311 256 311 q 340 311 313 311 l 382 311 q 386 363 386 332 q 382 408 386 389 q 331 411 354 411 q 282 411 308 411 q 228 411 254 411 q 175 410 203 411 q 119 408 147 408 q 64 408 92 408 l 22 408 q 18 357 18 388 q 19 333 18 346 q 22 310 19 321 q 73 308 49 307 q 124 308 97 308 m 18 311 l 24 307 q 22 308 24 308 q 22 310 22 308 q 20 310 21 310 q 18 311 19 311 z "},".":{"ha":285,"x_min":63,"x_max":221,"o":"m 63 72 l 63 60 q 81 4 63 31 q 129 -22 99 -22 q 140 -21 136 -22 l 142 -21 q 197 3 174 -21 q 221 60 221 28 l 221 72 q 202 128 221 101 q 153 156 183 156 q 147 155 150 156 q 142 154 144 154 q 86 129 110 154 q 63 72 63 104 z "},"/":{"ha":394,"x_min":-81,"x_max":414,"o":"m -21 -151 q 78 87 32 -31 q 169 326 124 204 q 285 629 228 481 q 414 928 343 778 q 385 938 399 933 q 354 944 372 942 q 271 736 311 839 q 190 528 231 633 q 62 195 126 360 q -75 -133 -3 31 q -47 -144 -60 -140 q -21 -151 -33 -149 m -81 -131 l -78 -139 q -75 -133 -75 -133 q -81 -131 -78 -131 z "},":":{"ha":506,"x_min":167,"x_max":325,"o":"m 169 64 q 173 35 169 51 q 183 3 176 18 q 199 -21 189 -11 q 225 -31 210 -31 q 238 -29 235 -31 q 246 -26 240 -28 q 254 -22 251 -24 q 301 8 278 -10 q 325 54 325 25 q 324 59 325 57 q 324 64 324 61 l 324 72 q 320 98 324 85 q 310 122 317 111 q 294 141 303 133 q 272 149 285 149 q 251 143 263 149 l 242 139 q 216 127 229 133 q 192 113 203 121 q 174 94 181 104 q 167 72 167 85 q 168 68 167 69 q 169 64 169 67 m 169 597 l 169 586 q 183 533 169 561 q 222 506 197 506 q 244 513 231 506 q 256 517 253 515 q 301 541 278 526 q 325 581 325 556 q 324 586 325 583 q 324 592 324 589 l 324 594 q 320 623 324 607 q 309 652 317 639 q 290 675 301 665 q 265 685 279 685 q 250 681 260 685 q 196 648 222 668 q 169 597 169 628 z "},";":{"ha":497,"x_min":157,"x_max":354,"o":"m 207 -210 q 234 -150 222 -179 q 256 -93 246 -121 q 284 -17 269 -54 q 318 54 299 21 l 319 54 q 328 69 325 65 q 344 99 336 85 q 354 129 351 114 q 335 159 350 147 q 300 171 319 171 l 296 171 q 248 146 267 164 q 217 103 229 128 q 199 52 206 79 q 190 0 193 25 q 190 -6 190 -3 q 189 -12 189 -10 l 189 -14 q 174 -101 181 -58 q 157 -189 167 -144 q 207 -210 181 -208 m 171 592 l 171 575 q 185 527 171 551 q 224 503 200 503 q 233 506 228 503 q 246 511 239 508 q 299 544 274 524 q 325 597 325 565 l 325 611 q 322 637 325 624 q 311 661 318 650 q 294 679 304 672 q 272 686 285 686 q 251 679 265 686 q 197 645 224 667 q 171 592 171 624 z "},"<":{"ha":1172,"x_min":168,"x_max":986,"o":"m 578 611 q 377 518 478 563 q 168 446 276 474 l 168 382 q 369 285 264 324 q 583 213 474 247 q 788 144 686 181 q 981 56 889 108 q 984 94 983 78 q 986 132 985 110 q 794 220 894 185 q 590 288 694 256 q 432 339 510 313 q 282 397 354 365 l 283 410 q 435 468 360 433 q 588 542 511 503 q 781 633 683 590 q 986 700 878 676 q 985 719 985 711 q 983 739 985 728 q 981 757 982 746 q 979 775 979 768 q 775 703 875 747 q 578 611 675 658 m 986 778 l 979 782 l 979 775 q 982 776 981 776 q 986 778 983 776 z "},"=":{"ha":1172,"x_min":158,"x_max":997,"o":"m 169 288 q 172 270 171 276 q 174 253 172 264 q 275 244 225 246 q 376 243 325 243 q 496 245 436 243 q 617 250 556 247 q 740 254 679 253 q 863 256 801 256 q 925 256 896 256 q 988 253 956 256 q 994 288 992 271 q 997 322 996 306 q 917 326 956 325 q 838 326 879 326 q 718 325 776 326 q 599 321 660 324 q 476 317 536 318 q 353 315 415 315 q 258 317 306 315 q 165 321 211 318 q 168 306 168 314 q 169 288 168 297 m 169 556 q 165 521 167 531 q 244 517 206 518 q 322 517 282 517 q 442 518 383 517 q 561 522 501 519 q 684 526 624 525 q 807 528 744 528 q 901 526 854 528 q 997 521 949 525 q 994 548 997 528 q 986 590 992 568 q 885 597 935 596 q 785 599 835 599 q 664 597 724 599 q 543 593 604 596 q 420 589 481 590 q 297 588 360 588 q 235 587 265 588 q 172 589 204 586 q 171 574 171 582 q 169 556 171 565 m 164 329 l 158 322 q 162 322 161 322 q 165 321 163 321 q 165 325 165 324 q 164 329 164 326 m 174 596 l 168 590 q 170 590 169 590 q 172 589 171 589 q 173 592 172 592 q 174 596 174 593 z "},">":{"ha":1172,"x_min":174,"x_max":993,"o":"m 176 699 q 368 608 267 644 q 574 540 469 572 q 729 490 653 517 q 876 432 806 464 l 875 421 q 731 363 803 396 q 588 293 660 329 q 387 200 488 244 q 176 131 286 156 q 177 106 176 117 q 179 82 178 96 q 181 66 181 74 q 182 54 182 58 q 386 123 285 78 q 592 219 488 168 q 787 313 689 268 q 993 383 885 357 l 993 447 q 795 540 900 503 q 583 613 690 578 q 379 682 479 644 q 181 775 279 719 q 178 736 179 754 q 176 699 178 718 m 182 783 l 174 779 q 177 777 176 778 q 181 775 178 776 q 181 779 181 778 q 182 783 182 781 z "},"?":{"ha":631,"x_min":49,"x_max":551,"o":"m 318 285 q 323 344 319 315 q 338 399 326 372 l 339 399 q 391 463 363 435 q 449 515 419 490 q 521 596 490 550 q 551 697 551 642 l 551 708 q 535 791 551 750 q 490 865 518 832 q 423 919 461 899 q 342 939 385 939 q 315 937 329 939 q 288 929 301 935 q 206 907 247 922 q 128 867 164 892 q 71 807 93 842 q 49 729 49 772 q 49 720 49 725 q 50 711 50 715 l 50 703 q 101 693 75 696 q 151 689 126 690 l 151 692 q 161 752 151 722 q 190 807 171 782 q 234 849 208 832 q 292 871 260 867 q 325 876 304 876 q 369 865 349 876 q 403 833 389 853 q 426 790 418 814 q 433 743 433 767 q 433 733 433 739 q 432 724 433 728 l 432 713 q 423 651 432 679 q 399 596 414 622 q 364 545 383 569 q 324 497 344 521 q 304 476 314 486 q 286 454 294 465 l 286 453 q 239 326 239 397 q 239 314 239 319 q 240 301 239 308 l 240 300 q 241 273 240 286 q 243 246 242 260 q 244 235 243 239 q 244 224 244 231 q 258 228 242 224 q 289 235 274 232 q 303 237 296 236 q 317 240 310 238 q 316 263 317 251 q 318 285 315 274 m 206 40 l 206 31 q 222 -17 206 7 q 264 -42 239 -42 q 281 -37 269 -42 q 336 0 315 -31 q 357 65 357 31 l 357 74 q 341 115 357 97 q 301 132 325 132 q 286 129 292 132 l 285 129 q 229 98 253 122 q 206 40 206 74 m 317 236 l 321 242 q 317 240 319 240 l 317 236 z "},"@":{"ha":1382,"x_min":81,"x_max":1293,"o":"m 818 164 l 818 156 q 828 109 818 132 q 854 68 838 86 q 892 40 871 50 q 938 29 914 29 q 957 32 943 29 l 958 32 q 1054 51 1008 32 q 1136 101 1100 69 q 1251 253 1210 164 q 1293 439 1293 343 l 1293 461 q 1253 640 1293 554 q 1149 793 1214 726 q 998 899 1083 860 q 819 939 913 939 q 789 938 804 939 q 758 933 774 936 q 524 867 636 915 q 315 746 413 819 q 221 658 264 707 q 147 554 178 610 q 98 436 115 499 q 81 308 81 374 l 81 286 q 95 157 81 221 q 138 35 110 93 q 207 -75 167 -24 q 299 -165 247 -126 l 300 -165 q 454 -252 369 -224 q 628 -281 539 -281 q 728 -278 675 -281 q 825 -274 782 -276 q 892 -267 868 -271 q 901 -260 915 -262 q 828 -255 888 -257 q 646 -253 768 -253 q 475 -221 557 -253 q 324 -131 393 -189 q 194 41 240 -60 q 149 250 149 142 l 149 275 q 197 513 149 399 q 339 711 246 628 q 542 844 431 792 q 775 910 653 896 q 798 912 786 911 q 821 913 810 913 q 981 883 904 913 q 1118 797 1058 853 q 1228 649 1188 735 q 1268 472 1268 564 l 1268 439 q 1220 247 1268 338 q 1089 97 1172 156 q 1033 65 1063 78 q 971 50 1004 53 l 965 50 q 918 72 938 50 q 899 121 899 93 l 899 132 q 903 169 899 151 q 913 203 907 186 l 1029 621 q 1006 622 1017 622 q 985 622 996 622 l 939 622 l 936 613 q 921 556 928 585 q 904 499 914 526 l 893 499 q 878 544 890 522 q 850 584 867 567 q 811 612 833 601 q 765 622 789 622 q 755 622 760 622 q 743 619 750 621 q 628 577 681 608 q 533 503 576 546 q 438 372 475 446 q 401 214 401 297 q 401 206 401 210 q 400 197 400 201 q 413 124 400 161 q 448 58 425 88 q 503 11 471 29 q 574 -7 535 -7 q 593 -6 586 -7 l 594 -6 q 663 10 631 -6 q 721 50 694 25 q 769 106 747 75 q 808 167 792 136 l 818 164 m 747 601 q 753 602 750 601 q 760 603 757 603 q 806 590 785 603 q 842 558 828 578 q 865 513 857 538 q 874 465 874 489 l 874 456 q 848 308 874 381 q 783 169 822 235 q 751 119 768 144 q 712 74 733 94 q 665 39 690 53 q 607 21 639 25 q 601 20 604 21 q 596 19 599 19 q 553 31 572 19 q 522 61 535 43 q 501 101 508 79 q 493 146 493 124 l 493 157 q 526 331 493 247 q 608 490 560 415 q 666 562 632 528 q 747 601 700 596 z "},"A":{"ha":938,"x_min":-28,"x_max":954,"o":"m 133 -15 q 271 -24 199 -21 q 291 -24 282 -24 q 313 -25 300 -25 l 313 0 q 313 17 313 8 q 311 36 313 25 l 271 36 q 224 43 247 36 q 192 79 200 50 l 192 81 q 200 128 192 108 q 218 186 210 156 q 230 224 224 206 q 243 263 236 243 l 249 267 l 263 267 q 361 272 313 267 q 460 283 410 276 l 461 283 q 548 293 504 289 q 636 299 592 297 l 642 294 q 651 267 647 281 q 660 240 656 254 q 674 201 667 221 q 688 163 681 182 l 688 161 q 688 158 688 158 q 689 154 689 157 q 693 139 692 147 q 694 122 694 131 l 694 121 q 660 78 688 85 q 601 69 632 71 q 579 68 590 68 q 564 65 568 68 l 564 1 q 651 11 607 7 q 746 15 696 15 l 783 15 q 869 12 828 15 q 950 1 911 8 q 953 31 953 19 q 954 61 953 42 q 909 70 932 64 q 863 88 886 76 l 861 89 q 820 144 836 114 q 793 210 804 175 q 681 535 740 375 q 558 860 621 696 q 542 901 550 881 q 526 942 535 921 q 459 935 490 939 q 392 926 428 931 q 329 747 360 835 q 265 568 299 660 q 201 387 233 476 q 136 206 168 297 q 130 189 133 197 q 124 169 126 181 q 111 133 117 151 q 99 101 106 115 l 97 101 q 56 66 81 78 q 4 54 32 54 q -28 58 -14 54 l -28 54 q -28 40 -28 47 q -26 28 -28 35 q -24 15 -25 21 q -24 0 -24 8 q 55 -8 17 -4 q 133 -15 93 -12 m 272 346 l 319 476 q 381 651 351 564 q 440 828 411 739 l 451 828 l 489 724 q 552 549 521 636 q 614 375 583 463 l 608 368 q 538 362 572 365 q 467 354 503 358 q 373 344 419 349 q 278 339 326 340 l 272 346 m -28 1 l -24 -4 l -24 0 q -26 1 -25 0 q -28 1 -26 1 z "},"B":{"ha":913,"x_min":39,"x_max":831,"o":"m 251 -26 q 355 -20 303 -26 q 460 -6 407 -14 q 572 13 517 3 q 683 40 628 24 q 739 65 713 49 q 785 105 765 82 q 817 156 806 128 q 829 215 829 183 l 829 226 q 831 246 831 233 q 812 331 831 290 q 761 403 793 372 q 688 453 729 435 q 601 474 646 472 l 600 485 q 673 506 636 490 q 740 544 710 521 q 788 600 769 568 q 807 672 807 632 l 807 686 q 779 790 807 746 q 708 864 751 835 q 609 908 664 893 q 499 922 554 922 q 448 919 474 922 q 399 910 422 917 q 301 899 350 903 q 201 896 251 896 q 44 904 115 896 q 42 881 43 892 q 42 863 42 869 q 41 853 42 856 q 40 844 40 851 q 95 836 68 842 q 153 824 122 831 l 154 822 q 191 775 183 804 q 199 715 199 746 l 199 699 q 198 567 199 632 q 197 436 197 503 q 199 304 197 369 q 200 172 200 239 l 200 163 q 197 110 200 136 q 175 63 194 83 l 172 61 q 142 52 157 54 q 111 50 126 50 q 74 53 92 50 q 40 58 57 56 q 40 46 40 51 q 42 31 40 40 q 43 14 43 22 q 43 -1 43 7 q 251 -26 147 -26 m 321 417 q 367 422 344 419 q 413 428 389 424 q 489 439 450 439 q 569 428 529 439 q 640 394 608 417 q 692 339 672 372 q 711 263 711 306 q 710 255 711 258 q 710 247 710 251 l 710 243 q 680 150 710 185 q 606 95 650 115 q 510 65 561 75 q 415 49 458 56 q 369 42 392 44 q 322 38 347 39 l 317 43 q 315 226 315 135 q 315 410 315 318 l 321 417 m 315 488 q 316 575 315 532 q 317 663 317 618 l 317 835 l 322 840 q 366 844 346 843 q 407 849 386 846 q 485 860 443 860 q 557 851 521 860 q 622 823 593 842 q 669 774 651 804 q 688 704 688 744 l 688 682 q 660 594 688 629 q 590 538 632 560 q 499 506 547 517 q 408 490 450 496 q 366 485 388 488 q 321 482 344 482 l 315 488 m 39 0 l 43 -6 l 43 -1 q 39 0 40 -1 z "},"C":{"ha":882,"x_min":60,"x_max":788,"o":"m 668 117 l 667 117 q 595 61 639 76 q 508 39 551 46 q 442 35 475 35 q 351 48 394 35 q 278 99 308 61 q 203 245 224 165 q 182 408 182 325 q 180 433 181 419 q 179 458 179 446 q 199 601 179 529 q 260 733 219 674 q 360 833 300 793 q 497 881 419 874 q 514 883 506 882 q 531 883 522 883 q 591 874 561 883 q 644 843 621 865 l 644 842 q 681 751 671 797 q 692 658 692 704 q 703 657 699 657 q 715 656 708 657 q 747 651 732 653 q 778 646 763 649 q 774 765 776 708 q 768 883 772 821 q 653 931 715 915 q 529 946 592 946 q 516 945 522 946 q 503 944 510 944 q 326 888 411 929 q 175 783 242 847 q 86 619 113 711 q 60 433 60 528 l 60 415 q 80 245 60 329 q 153 90 100 161 q 273 -1 200 28 q 424 -31 346 -31 q 469 -27 446 -31 q 515 -19 492 -24 q 560 -14 538 -15 q 606 -10 582 -12 q 694 0 650 -6 q 778 13 739 6 q 783 101 782 58 q 786 190 785 144 q 786 224 786 208 q 788 258 786 240 q 749 263 772 261 q 701 268 725 265 q 694 190 700 229 q 668 117 688 150 m 701 274 l 696 268 l 701 268 l 701 274 z "},"D":{"ha":1010,"x_min":39,"x_max":939,"o":"m 43 -1 q 288 -26 160 -26 q 351 -25 319 -26 q 414 -19 382 -24 q 514 -3 464 -12 q 612 19 564 6 q 706 54 660 33 q 793 106 751 75 q 903 251 868 164 q 939 432 939 339 l 939 469 q 902 664 939 569 q 790 826 865 758 q 667 895 735 875 q 528 915 600 915 q 470 913 499 915 q 414 906 442 910 l 413 906 q 315 897 364 900 q 217 894 265 894 q 132 897 175 894 q 44 904 89 899 q 42 881 43 893 q 42 861 42 868 q 41 851 42 854 q 40 842 40 849 q 52 841 47 840 q 64 840 57 842 q 110 834 88 838 q 153 821 132 831 l 153 819 q 189 770 181 800 q 197 710 197 740 l 197 697 q 196 579 197 638 q 194 461 194 521 q 195 317 194 389 q 197 172 196 244 q 198 158 197 165 q 199 143 199 150 q 194 101 199 121 q 174 65 189 81 l 171 64 q 137 53 154 56 q 100 51 119 51 q 39 60 68 51 l 43 -1 m 414 843 q 458 847 436 846 q 503 849 479 849 q 613 836 558 849 q 707 786 667 824 q 796 642 772 725 q 819 474 819 558 l 819 465 q 801 317 819 390 q 733 186 783 244 q 606 92 679 124 q 453 46 532 60 q 387 39 421 40 q 318 36 353 38 l 313 42 q 308 389 308 214 q 313 829 308 608 l 318 835 l 328 835 q 367 839 346 835 q 389 842 378 842 q 414 843 401 842 z "},"E":{"ha":939,"x_min":40,"x_max":833,"o":"m 319 419 q 333 421 326 421 q 349 422 340 421 l 350 422 q 375 424 363 422 q 401 428 388 425 q 410 429 406 429 q 418 431 414 429 q 485 438 453 438 q 501 437 493 438 q 518 435 510 436 l 519 435 q 565 399 550 425 q 579 344 579 372 l 579 321 l 576 311 q 611 313 596 313 q 647 313 626 313 l 647 650 l 631 650 q 603 650 615 650 q 575 649 590 650 l 576 640 l 576 611 q 566 558 576 583 q 529 521 556 533 l 528 521 q 466 503 497 511 q 403 490 435 496 q 389 489 396 489 q 376 488 383 489 q 349 483 363 485 q 321 482 336 482 l 315 488 q 316 574 315 532 q 317 661 317 617 l 317 832 l 322 838 q 376 844 350 840 q 429 851 401 847 q 539 864 486 860 q 558 865 550 865 q 578 865 568 865 q 661 857 619 865 q 713 817 694 846 q 731 753 731 788 l 731 708 q 756 705 746 706 q 781 701 767 704 q 804 699 794 699 q 826 696 814 699 q 822 801 824 751 q 817 908 819 851 q 728 924 774 919 q 636 928 683 928 q 521 923 578 928 q 406 911 464 918 q 292 899 347 904 q 179 893 238 893 q 109 895 143 893 q 43 904 75 897 q 43 890 43 897 q 42 878 43 885 q 40 864 40 871 q 40 851 40 858 l 40 844 q 95 836 68 842 q 153 824 122 831 l 154 822 q 180 798 171 813 q 193 767 189 783 q 198 733 197 750 q 199 699 199 715 q 197 567 197 632 q 197 436 197 503 q 199 304 197 369 q 200 172 200 239 l 200 156 q 197 106 200 131 q 175 63 193 82 l 172 61 q 142 52 157 54 q 111 50 126 50 q 74 53 92 50 q 40 58 57 56 q 40 46 40 51 q 42 31 40 40 q 43 13 43 21 q 43 -1 43 6 q 140 -22 92 -15 q 238 -28 189 -28 q 351 -22 294 -28 q 467 -8 408 -15 l 468 -8 q 586 4 528 -1 q 703 10 644 10 q 824 1 769 10 q 830 114 828 61 q 833 226 832 167 q 749 235 794 232 l 749 194 q 736 134 749 165 q 692 94 724 103 q 626 85 660 88 q 558 81 593 83 q 504 75 531 79 q 450 65 478 71 q 389 56 419 60 q 324 49 358 51 l 318 54 q 315 233 315 144 q 315 413 315 322 l 319 419 m 576 311 l 576 307 l 576 311 z "},"F":{"ha":836,"x_min":40,"x_max":788,"o":"m 325 839 q 363 844 344 842 q 400 850 381 847 q 450 858 425 854 q 501 863 475 863 l 529 863 q 576 862 553 863 q 624 856 600 861 q 674 819 657 849 q 692 754 692 789 l 692 706 q 707 703 694 704 q 731 701 719 703 l 732 701 q 760 697 747 699 q 788 693 772 696 q 785 764 786 729 q 782 835 785 799 q 781 869 781 854 q 779 906 781 886 q 694 922 739 917 q 604 926 650 926 q 497 922 551 926 q 388 910 442 917 q 278 898 332 903 q 168 893 224 893 q 103 895 133 893 q 43 903 72 897 q 43 890 43 896 q 42 874 43 885 q 40 857 40 864 q 40 843 40 850 q 94 835 68 839 q 154 822 121 831 l 156 821 q 192 774 185 804 q 200 714 200 743 l 200 697 q 199 597 200 647 q 199 496 199 547 q 200 333 199 414 q 201 171 201 253 l 201 149 q 199 103 201 125 q 178 63 196 81 l 176 61 q 146 51 163 54 q 114 49 129 49 q 77 51 94 49 q 42 58 60 54 q 43 31 43 53 q 43 15 43 24 q 44 -1 43 8 q 134 -15 89 -10 q 225 -19 179 -19 q 249 -19 238 -19 q 271 -18 260 -19 q 342 -14 307 -17 q 413 -7 376 -11 q 456 -2 436 -4 q 497 3 475 0 l 497 28 q 497 44 497 36 q 499 65 497 54 l 493 64 l 486 63 l 485 63 q 468 61 476 61 q 451 58 460 61 q 422 56 436 57 q 392 54 407 54 q 378 54 385 54 q 365 56 372 54 l 364 56 q 327 101 333 71 q 319 160 321 131 q 319 168 319 164 q 318 175 318 172 l 318 294 q 317 355 318 325 q 317 415 317 385 l 321 421 q 340 424 331 424 q 360 426 349 425 q 377 427 369 428 q 393 431 385 426 q 478 439 436 439 l 494 439 q 549 410 528 436 q 569 351 569 383 l 569 333 q 569 324 569 329 q 568 314 569 318 q 567 313 568 311 q 567 313 567 315 l 638 313 l 638 649 l 565 649 l 567 639 l 567 610 q 556 558 567 583 q 517 521 544 532 q 456 505 486 511 q 394 493 426 499 q 340 485 372 488 q 332 484 336 485 q 322 483 328 483 l 317 489 q 317 661 317 576 q 319 833 317 746 l 325 839 z "},"G":{"ha":983,"x_min":56,"x_max":958,"o":"m 613 943 q 551 939 582 943 q 367 895 456 924 q 204 814 278 867 q 92 653 129 747 q 56 464 56 560 l 56 433 q 78 254 56 343 q 154 93 100 165 q 278 -6 203 29 q 435 -42 354 -42 q 492 -36 465 -42 q 612 -10 553 -25 q 729 21 671 4 q 769 31 750 26 q 807 42 788 36 l 811 207 l 811 225 q 814 265 811 244 q 825 303 817 285 l 828 304 q 872 326 849 321 q 918 332 894 332 q 935 331 925 332 q 957 329 946 331 q 958 340 958 336 q 958 351 958 346 l 958 390 q 858 397 907 394 q 756 399 808 399 q 637 397 696 400 q 517 388 578 394 l 517 326 q 524 327 522 328 q 532 328 526 326 q 563 332 547 331 q 594 333 578 333 q 633 330 614 333 q 671 317 653 326 l 672 315 q 694 275 690 297 q 697 229 697 253 l 697 150 q 697 122 697 135 q 696 93 696 108 l 693 88 q 678 82 686 85 q 663 76 669 79 l 661 76 q 580 49 621 61 q 496 29 539 36 q 473 26 485 28 q 449 25 461 25 q 333 58 383 25 q 247 143 282 92 q 193 258 211 194 q 175 382 175 321 q 175 401 175 392 q 176 421 175 411 l 176 433 q 192 588 176 510 q 256 731 207 667 q 382 831 306 797 q 538 876 458 865 l 539 876 q 557 878 549 878 q 575 879 565 879 q 631 871 603 879 q 679 842 658 863 l 679 840 q 710 762 703 803 q 718 681 718 721 q 758 679 738 681 q 803 675 779 678 q 802 765 803 722 q 799 856 801 808 q 797 883 797 869 q 796 911 796 897 q 704 935 750 926 q 613 943 658 943 m 800 910 l 796 915 l 796 911 q 800 910 797 910 z "},"H":{"ha":1086,"x_min":39,"x_max":1035,"o":"m 260 -18 q 277 -19 268 -18 q 294 -19 286 -19 q 339 -21 318 -21 q 381 -21 360 -21 q 418 -21 400 -21 q 461 -18 438 -21 l 461 43 q 440 41 450 42 q 424 40 431 40 q 386 42 404 40 q 350 51 368 44 l 347 53 q 316 106 322 74 q 310 169 310 139 q 308 290 308 231 q 307 410 307 350 l 314 417 q 422 422 368 417 q 531 433 476 426 q 645 446 589 440 q 760 451 701 451 l 765 446 q 765 326 765 385 q 764 207 764 267 l 764 199 q 760 142 764 171 q 736 94 757 114 l 735 94 q 674 69 704 75 q 613 61 643 64 q 613 29 613 42 q 611 0 613 18 q 708 12 658 7 q 813 17 757 17 q 920 12 865 17 q 1031 0 975 7 q 1032 11 1032 4 q 1032 31 1032 19 q 1033 45 1032 38 q 1035 63 1033 53 l 1019 63 q 971 67 994 63 q 924 81 947 72 l 922 81 q 883 124 892 96 q 874 185 874 153 q 874 196 874 190 q 875 207 875 201 q 877 327 876 267 q 878 449 878 388 q 876 588 878 519 q 874 726 874 656 l 874 751 q 877 797 874 775 q 896 838 881 819 l 899 839 q 934 848 915 846 q 972 850 953 850 q 1008 849 993 850 q 1035 846 1022 849 l 1032 865 l 1032 867 q 1030 888 1031 878 q 1029 906 1029 899 q 919 915 974 913 q 811 919 864 918 q 738 922 774 919 q 664 924 701 924 q 636 924 649 924 q 610 922 625 924 q 610 908 610 914 q 611 892 611 901 l 611 860 q 631 862 622 861 q 646 863 639 863 q 683 860 665 863 q 718 851 701 858 l 719 850 q 754 794 747 826 q 761 731 761 763 q 763 628 763 679 q 764 525 764 578 l 758 519 q 644 515 700 519 q 531 503 589 510 q 422 491 476 496 q 314 486 368 486 l 307 492 q 308 595 307 544 q 308 699 308 646 l 308 708 q 313 763 308 735 q 338 811 318 790 l 339 811 q 399 835 369 828 q 458 844 429 842 q 459 856 458 851 q 460 868 460 861 l 460 906 q 362 894 411 899 q 258 889 313 889 q 153 894 207 889 q 43 906 99 899 l 43 900 q 43 885 43 893 q 42 871 43 878 q 40 855 40 863 q 39 844 39 847 q 94 838 67 843 q 151 824 122 832 l 153 822 q 190 770 185 803 q 196 706 196 738 l 196 699 q 194 577 196 636 q 193 456 193 518 q 195 315 193 385 q 197 175 197 246 l 197 174 q 196 158 196 167 q 196 144 196 151 l 196 135 q 192 98 196 115 q 172 67 189 81 l 169 65 q 136 55 153 57 q 100 53 119 53 q 66 55 81 53 q 39 60 51 57 l 39 54 q 39 40 39 47 q 40 28 39 35 l 40 26 q 42 13 42 19 q 43 -1 43 6 q 152 -12 97 -8 q 260 -18 207 -15 m 39 0 l 43 -6 l 43 -1 q 41 -1 42 -1 q 39 0 40 0 z "},"I":{"ha":547,"x_min":43,"x_max":493,"o":"m 151 -21 q 209 -16 179 -21 q 267 -3 239 -11 q 383 14 321 14 q 440 10 414 14 q 492 1 465 7 l 492 38 q 492 49 492 44 q 493 63 493 54 q 478 66 486 64 q 457 68 469 68 l 456 68 q 416 74 436 71 q 376 82 396 76 l 375 82 q 333 130 340 97 q 326 194 326 163 l 326 203 q 327 333 326 268 q 328 465 328 399 q 327 597 328 532 q 326 728 326 661 l 326 750 q 329 799 326 775 q 351 843 332 824 l 353 844 q 421 858 385 858 q 460 856 443 858 q 493 847 478 853 q 492 861 493 857 q 492 875 492 865 q 492 890 492 882 q 490 907 492 899 q 433 919 463 914 q 376 924 404 924 q 269 908 324 924 q 149 892 211 892 q 44 904 90 892 l 44 867 q 44 855 44 860 q 43 843 43 850 q 72 839 58 840 q 100 835 85 838 q 130 829 115 832 q 160 824 144 826 l 161 824 q 201 777 193 808 q 208 717 208 746 l 208 153 q 204 105 208 129 q 182 61 200 81 l 181 61 q 148 47 165 50 q 115 43 131 43 q 76 47 94 43 q 44 56 58 50 l 44 31 q 45 15 44 22 q 46 -1 46 7 q 151 -21 93 -21 m 43 0 l 46 -6 l 46 -1 q 43 0 43 -1 z "},"J":{"ha":785,"x_min":22,"x_max":736,"o":"m 232 -49 l 239 -49 q 379 -17 313 -49 q 493 69 446 14 q 559 206 543 129 q 575 360 575 283 q 574 544 576 451 q 572 728 572 636 l 572 750 q 576 797 572 774 q 597 839 579 821 l 600 840 q 631 849 615 847 q 665 851 647 851 q 704 849 688 851 q 736 844 721 847 q 736 857 736 851 q 735 874 736 864 q 733 890 733 883 q 733 904 733 897 q 651 916 693 911 q 561 921 608 921 q 537 920 549 921 q 513 919 525 919 l 497 919 q 433 916 465 919 q 369 907 401 913 l 368 907 q 313 900 342 904 q 271 896 285 896 q 269 865 269 878 q 269 835 269 853 q 289 837 281 836 q 308 839 297 838 q 338 843 324 842 q 367 844 351 844 q 401 842 383 844 q 433 832 418 839 l 435 831 q 454 791 451 814 q 457 746 457 768 l 457 724 q 458 685 457 704 q 458 646 458 667 q 460 563 460 604 q 460 481 460 521 l 460 392 q 454 274 460 338 q 428 156 449 211 q 367 60 407 100 q 258 13 326 21 l 256 13 q 181 37 208 13 q 138 97 153 61 q 119 174 124 133 q 113 249 114 215 q 70 254 92 251 q 22 264 49 257 q 26 72 22 169 q 28 39 28 54 q 29 8 29 24 q 126 -33 75 -18 q 232 -49 178 -49 m 26 10 l 29 6 l 29 8 q 26 10 26 8 z "},"K":{"ha":939,"x_min":39,"x_max":917,"o":"m 263 -19 l 315 -19 q 388 -18 351 -19 q 461 -11 424 -17 l 461 49 q 442 47 453 47 q 417 46 431 46 q 354 54 383 46 l 351 56 q 322 110 328 79 q 317 171 317 140 q 315 303 315 238 q 315 436 315 369 q 315 567 315 503 q 317 699 315 632 q 319 751 317 725 q 332 800 321 776 l 333 801 q 382 830 354 822 q 438 844 410 838 q 451 847 444 846 q 461 849 458 847 l 461 911 q 365 894 415 900 q 261 888 314 888 l 242 888 q 140 892 189 888 q 43 903 90 896 q 42 884 43 896 q 40 861 42 872 q 40 852 40 854 q 39 843 39 850 q 42 842 42 843 q 44 842 42 842 q 101 835 72 839 q 153 821 129 832 q 191 774 183 806 q 199 714 199 743 l 199 697 q 198 579 199 638 q 197 461 197 521 q 199 316 197 388 q 200 172 200 244 l 200 135 q 196 97 200 115 q 176 65 192 79 l 174 64 q 140 53 157 56 q 106 51 124 51 q 39 60 68 51 q 41 36 40 47 q 42 18 42 25 q 43 -1 42 6 q 153 -15 99 -10 q 263 -19 208 -19 m 435 358 q 535 251 485 306 q 633 140 585 197 q 647 123 642 133 q 654 101 651 113 l 653 97 q 622 73 640 78 q 583 65 603 68 q 576 65 579 64 q 568 64 572 65 q 567 32 567 44 q 567 1 567 19 q 650 11 606 8 q 742 17 694 14 q 831 10 789 14 q 913 1 874 7 l 913 6 q 913 21 913 14 q 914 35 913 28 q 916 51 915 43 q 917 61 917 58 l 910 61 q 857 76 881 64 q 813 108 833 89 q 774 148 792 126 q 739 190 756 169 q 607 340 679 265 q 460 493 535 415 l 460 500 q 545 606 501 554 q 633 711 589 658 q 651 730 640 718 q 667 749 661 742 q 700 789 682 769 q 739 824 718 808 q 784 848 760 839 q 836 857 808 857 q 852 856 844 857 q 867 854 860 856 q 878 851 875 851 l 879 851 q 889 849 882 851 q 901 844 896 846 q 904 844 906 843 q 890 851 903 844 q 889 856 890 856 q 889 860 889 856 q 888 883 888 874 q 885 908 888 894 q 826 914 854 913 q 771 917 799 915 q 746 917 758 917 q 721 918 733 917 q 663 921 692 921 q 607 921 635 921 q 581 922 592 921 q 556 922 569 922 q 556 908 556 914 q 557 892 557 901 l 557 860 l 558 860 q 593 856 575 860 q 619 832 611 851 l 619 829 q 603 794 617 810 q 576 760 590 778 q 572 754 574 757 q 568 749 571 751 l 568 747 q 531 701 549 724 q 494 654 514 678 q 417 556 456 606 q 338 460 378 507 q 386 409 361 435 q 435 358 411 383 m 335 464 l 335 456 q 336 457 336 457 q 338 460 336 458 q 336 461 336 461 q 335 464 336 463 m 39 0 l 43 -6 l 43 -1 q 41 -1 42 -1 q 39 0 40 0 z "},"L":{"ha":854,"x_min":39,"x_max":815,"o":"m 721 289 q 721 276 721 282 q 719 265 721 272 q 718 242 718 254 q 718 218 718 231 l 718 217 q 716 203 717 210 q 715 189 715 196 q 710 145 714 165 q 690 110 706 125 l 689 108 q 631 90 661 94 q 571 83 601 86 l 528 79 q 476 74 503 76 q 421 65 449 71 q 375 57 397 61 q 325 50 353 53 l 319 56 q 317 314 317 186 q 317 574 317 443 l 317 717 q 321 768 317 742 q 344 814 325 794 l 346 814 q 419 847 381 839 q 499 860 458 854 l 500 860 q 502 860 503 860 q 504 861 501 861 l 504 893 q 503 908 504 903 q 503 922 503 914 q 458 916 479 919 q 413 908 438 913 q 339 895 376 901 q 263 888 301 889 q 243 887 253 888 q 224 886 233 886 q 131 891 175 886 q 44 903 88 896 q 42 879 43 890 q 42 861 42 868 q 41 852 42 854 q 40 843 40 850 q 97 835 68 840 q 154 822 125 829 l 156 821 q 192 774 185 803 q 200 714 200 744 l 200 697 q 199 566 200 631 q 199 436 199 501 q 200 304 199 369 q 201 172 201 239 l 201 156 q 198 106 201 131 q 176 63 194 82 l 174 61 q 142 52 158 54 q 110 50 126 50 q 73 53 90 50 q 39 58 56 56 q 41 36 40 47 q 42 18 42 25 q 42 8 42 11 q 43 -1 43 6 q 135 -20 89 -15 q 226 -25 181 -25 q 339 -19 283 -25 q 453 -7 394 -14 q 563 6 507 0 q 676 11 618 11 q 743 9 711 11 q 804 1 775 7 q 811 149 808 79 q 815 296 814 219 q 766 303 790 300 q 721 307 742 306 l 721 289 m 719 314 l 714 307 l 721 307 q 720 310 721 308 q 719 314 719 311 z "},"M":{"ha":1338,"x_min":42,"x_max":1285,"o":"m 932 926 q 860 699 897 810 q 782 476 822 589 q 749 383 765 429 q 718 289 733 336 q 711 268 715 278 q 704 247 707 258 q 678 174 690 211 q 660 97 667 136 l 649 97 q 624 194 638 146 q 594 288 611 242 q 567 363 581 326 q 539 439 554 400 q 457 665 497 553 q 381 896 417 778 q 331 894 354 894 q 282 894 307 894 q 166 897 224 894 q 47 904 108 899 q 47 894 47 901 q 44 881 46 888 q 42 860 43 869 q 42 843 42 850 q 94 837 68 840 q 149 825 121 833 l 150 824 q 185 779 176 808 q 194 722 194 750 q 194 710 194 715 q 193 699 193 706 q 189 451 189 574 q 192 313 189 382 q 194 175 194 244 l 194 135 q 191 100 194 117 q 172 69 188 83 l 169 68 q 135 57 153 60 q 99 54 118 54 q 67 55 79 54 q 42 58 54 56 q 43 34 42 50 q 47 0 44 18 q 171 -10 111 -7 q 290 -17 231 -14 q 325 -19 308 -18 q 358 -22 342 -21 q 390 -23 375 -24 q 422 -25 406 -22 q 422 -11 422 -17 q 421 4 421 -6 q 421 18 421 11 q 419 35 421 26 l 413 35 q 325 47 367 35 l 324 49 q 287 98 297 68 q 276 158 276 128 l 276 172 q 274 316 276 244 q 272 460 272 388 q 274 648 272 554 q 279 836 276 742 l 290 838 q 423 443 353 638 q 568 50 493 249 q 581 16 575 32 q 593 -18 586 0 q 619 -15 608 -17 q 646 -12 631 -14 q 669 -10 657 -11 q 697 -7 682 -10 q 744 126 721 61 q 792 258 768 190 q 899 565 847 413 q 1000 872 951 717 l 1013 871 q 1020 663 1018 767 q 1022 454 1022 558 q 1022 331 1022 392 q 1019 207 1021 269 q 1017 155 1019 181 q 1001 107 1014 129 l 999 106 q 940 77 971 86 q 878 68 908 68 q 877 52 878 58 q 876 36 876 46 l 876 7 q 885 8 883 8 q 894 8 888 7 l 896 8 q 962 14 929 11 q 1028 17 994 17 q 1047 16 1038 17 q 1065 15 1056 15 q 1172 10 1119 14 q 1278 0 1224 6 q 1280 15 1279 10 q 1282 31 1281 21 q 1283 46 1283 40 q 1285 61 1283 51 q 1229 67 1257 64 q 1171 79 1201 69 l 1169 81 q 1133 122 1142 96 q 1125 176 1125 149 q 1126 191 1125 185 q 1126 204 1126 197 q 1131 449 1131 325 q 1128 585 1131 518 q 1125 722 1125 653 l 1125 744 q 1128 791 1125 768 q 1147 833 1131 814 l 1150 835 q 1192 844 1171 842 q 1235 847 1213 847 q 1263 847 1250 847 q 1283 844 1275 846 q 1283 859 1282 854 q 1282 874 1283 864 l 1278 904 q 1103 920 1189 915 q 932 926 1018 925 m 1282 904 l 1278 910 l 1278 904 l 1282 904 z "},"N":{"ha":1093,"x_min":39,"x_max":1046,"o":"m 236 894 q 141 897 189 894 q 43 904 93 899 l 39 843 q 94 836 67 842 q 150 822 121 831 l 151 821 q 189 769 183 803 q 194 704 194 736 l 194 697 q 193 576 194 635 q 192 456 192 517 q 194 315 192 385 q 196 175 196 246 l 196 149 q 193 105 196 126 q 172 67 190 83 l 169 65 q 136 55 153 57 q 101 53 119 53 q 39 60 67 53 l 39 54 q 39 40 39 47 q 40 28 39 35 l 40 26 q 42 10 42 18 q 43 0 43 3 q 141 -10 94 -6 q 239 -17 188 -14 q 308 -19 274 -19 q 378 -19 343 -19 q 410 -20 396 -19 q 443 -21 424 -21 l 443 40 q 420 38 431 39 q 401 38 410 38 q 365 40 382 38 q 331 50 347 43 l 331 51 q 294 99 304 71 q 285 156 285 128 l 285 169 q 283 301 285 236 q 282 431 282 365 q 283 628 282 531 q 288 826 285 726 l 299 829 q 399 640 347 733 q 503 453 450 547 q 626 232 565 342 q 743 7 686 122 q 761 8 754 8 q 778 8 769 8 l 817 8 q 847 8 833 8 q 878 10 861 8 q 886 226 883 119 q 889 443 889 333 q 887 584 889 514 q 885 725 885 654 l 885 749 q 888 795 885 772 q 907 835 890 818 l 908 836 q 947 846 926 843 q 986 849 967 849 q 1020 848 1007 849 q 1046 844 1033 847 l 1043 864 l 1043 865 q 1041 887 1042 876 q 1040 904 1040 897 q 986 908 1013 907 q 931 913 960 910 q 889 915 910 914 q 846 918 868 917 q 810 919 828 919 q 775 921 793 919 q 726 922 751 922 q 675 922 701 922 l 640 922 q 641 908 640 914 q 642 892 642 901 l 642 860 q 658 861 651 861 q 672 861 665 861 q 712 859 693 861 q 750 850 731 857 l 751 849 q 786 801 776 829 q 796 742 796 772 l 796 728 q 797 598 796 661 q 799 469 799 535 q 794 110 799 289 l 783 108 q 744 224 769 168 q 689 335 719 281 q 599 497 644 417 q 507 660 554 578 q 438 777 472 718 q 372 897 404 836 q 303 895 338 896 q 236 894 269 894 m 375 897 l 371 900 q 372 897 371 897 l 375 897 z "},"O":{"ha":983,"x_min":58,"x_max":917,"o":"m 58 457 l 58 442 q 80 265 58 353 q 150 106 101 178 q 268 -1 194 39 q 422 -40 342 -40 q 453 -38 438 -40 q 483 -33 468 -36 q 642 9 564 -19 q 781 94 719 38 q 883 252 851 160 q 914 439 914 344 l 914 451 q 917 471 917 463 q 917 492 917 481 q 890 651 917 571 q 813 795 863 731 q 695 900 764 860 q 544 940 626 940 q 486 935 514 940 q 324 892 404 919 q 183 807 243 864 q 125 732 149 774 q 87 645 101 690 q 65 552 72 600 q 58 457 58 504 m 790 465 q 778 310 790 388 q 724 165 767 232 q 620 72 683 104 q 488 28 557 39 q 438 24 463 24 q 333 46 383 24 q 254 117 283 68 q 194 265 211 186 q 176 424 176 343 l 176 435 q 188 590 176 513 q 243 735 200 668 q 349 829 283 797 q 482 872 414 861 q 526 876 504 876 q 631 852 582 876 q 713 781 681 828 q 774 628 757 710 q 790 465 792 547 z "},"P":{"ha":849,"x_min":39,"x_max":792,"o":"m 217 -19 q 239 -19 228 -19 q 261 -18 250 -19 l 285 -18 q 347 -15 315 -18 q 410 -7 378 -11 l 411 -7 q 467 0 439 -4 q 510 4 494 4 q 510 19 510 14 q 511 35 511 25 l 511 67 q 490 65 503 67 q 464 61 478 64 q 401 54 432 54 q 346 65 369 54 l 343 67 q 322 104 325 82 q 318 150 318 126 l 318 175 q 317 279 318 228 q 317 382 317 331 l 322 388 q 363 393 343 390 q 406 400 383 396 l 407 400 q 410 400 410 400 q 413 401 410 401 q 445 408 429 404 q 476 414 461 411 q 572 431 525 422 q 665 456 619 439 q 758 528 724 476 q 792 639 792 581 q 791 649 792 643 q 790 658 790 654 l 790 663 q 763 780 790 722 q 682 869 735 838 q 486 921 596 921 q 394 913 442 921 q 185 896 290 896 q 44 904 107 896 q 42 881 43 893 q 42 863 42 869 q 41 853 42 856 q 40 844 40 851 q 93 836 67 840 q 153 824 119 832 l 154 822 q 191 775 183 804 q 199 715 199 746 l 199 699 q 198 567 199 632 q 197 436 197 503 q 199 303 197 369 q 200 171 200 238 l 200 153 q 197 106 200 129 q 175 63 194 82 l 172 61 q 114 50 149 50 q 74 53 90 50 q 40 60 57 56 q 40 46 40 53 q 42 31 40 40 q 43 14 43 22 q 43 -1 43 7 q 131 -15 88 -10 q 217 -19 174 -19 m 317 449 l 317 835 l 322 840 q 362 844 342 842 q 401 851 382 847 q 435 856 418 854 q 469 857 451 857 q 519 853 494 857 q 568 843 544 850 l 569 843 q 642 778 615 822 q 668 685 668 733 l 668 667 q 653 586 668 625 q 604 521 638 547 q 507 478 557 493 q 406 454 457 464 q 365 449 386 451 q 322 443 344 446 l 317 449 m 39 0 l 43 -6 l 43 -1 q 41 -1 42 -1 q 39 0 40 0 z "},"Q":{"ha":982,"x_min":54,"x_max":985,"o":"m 426 -44 q 503 -37 476 -44 q 553 -22 531 -31 q 603 -7 575 -14 q 682 0 631 0 q 740 -15 700 0 q 823 -47 779 -29 q 906 -79 867 -64 q 965 -96 946 -94 l 985 -43 q 920 -22 949 -39 q 865 16 892 -4 q 810 54 838 36 q 749 78 782 72 l 746 88 q 822 158 790 117 q 873 247 853 199 q 903 347 893 294 q 913 449 913 399 q 893 622 913 535 q 830 778 874 708 q 716 891 786 847 q 544 935 646 935 q 324 897 417 935 q 172 791 232 860 q 83 625 111 722 q 54 408 54 528 q 81 251 54 332 q 156 106 107 171 q 273 -2 204 40 q 426 -44 342 -44 m 790 468 q 774 304 790 385 q 717 160 757 224 q 612 58 678 97 q 447 19 546 19 q 314 58 367 19 q 230 156 261 96 q 186 287 199 215 q 174 424 174 358 q 190 595 174 514 q 247 738 207 676 q 357 835 288 799 q 531 871 426 871 q 662 832 611 871 q 741 733 713 793 q 780 603 769 674 q 790 468 790 532 z "},"R":{"ha":976,"x_min":39,"x_max":957,"o":"m 43 -1 q 147 -15 93 -11 q 258 -19 201 -19 l 310 -19 q 396 -18 353 -19 q 483 -11 439 -17 l 483 49 q 422 44 458 44 q 365 49 392 44 l 364 49 q 335 72 346 57 q 320 103 325 86 q 314 138 315 119 q 313 172 313 156 l 313 296 q 312 356 313 326 q 311 417 311 385 l 317 422 q 399 426 357 422 q 461 433 431 433 q 556 414 511 433 q 626 347 601 394 q 694 200 665 276 q 750 46 724 124 q 756 28 753 35 q 763 10 760 21 q 854 7 807 8 q 951 0 901 6 l 951 6 q 951 21 951 14 q 953 35 951 28 q 955 51 954 43 q 956 61 956 58 q 956 62 954 61 q 956 63 957 63 l 943 63 q 870 92 901 63 q 832 161 839 121 q 803 239 818 201 q 774 315 789 276 l 774 317 q 749 373 765 346 q 710 421 733 400 q 658 455 688 442 q 597 468 629 468 l 596 479 q 671 505 633 488 q 738 549 708 522 q 785 610 767 575 q 804 685 804 644 l 804 707 q 769 813 804 765 q 681 885 733 861 q 601 906 640 901 q 521 911 561 911 q 458 909 489 911 q 394 904 426 907 q 242 896 319 896 q 145 899 194 896 q 44 906 96 901 q 42 882 43 894 q 42 863 42 869 q 41 853 42 856 q 40 844 40 851 q 44 844 43 844 q 49 843 46 843 q 101 836 75 840 q 150 824 126 832 l 151 822 q 188 779 179 807 q 197 721 197 751 q 197 710 197 715 q 196 699 196 704 q 194 580 194 639 q 193 461 193 521 q 194 317 193 389 q 196 172 194 246 q 197 158 196 165 q 197 143 197 150 q 194 102 197 122 q 175 67 190 82 l 174 65 q 140 54 157 57 q 106 51 124 51 q 39 60 69 51 l 43 -1 m 317 478 l 311 483 q 312 657 311 571 q 314 831 313 743 l 319 836 l 329 836 q 351 837 340 836 q 372 839 361 838 q 389 840 381 840 q 406 842 397 840 q 453 847 429 844 q 501 849 476 849 q 581 840 543 849 q 658 790 629 829 q 686 701 686 750 l 686 683 q 658 594 686 631 q 589 533 631 557 q 497 498 547 510 q 404 483 447 486 q 383 482 393 482 q 365 481 375 482 q 345 478 354 479 q 326 478 336 478 l 317 478 z "},"S":{"ha":767,"x_min":69,"x_max":696,"o":"m 294 -44 q 344 -40 319 -44 q 462 -9 400 -29 q 576 44 524 11 q 662 125 628 76 q 696 240 696 174 l 696 251 q 678 344 696 300 q 628 419 661 388 q 523 485 582 463 q 403 518 464 508 q 329 535 368 524 q 257 568 290 547 q 202 619 224 589 q 181 692 181 649 l 181 700 q 201 772 181 742 q 251 822 221 801 q 317 856 281 843 q 388 876 354 869 q 426 881 406 881 q 470 875 450 881 q 510 854 490 869 l 513 854 q 556 779 542 821 q 571 696 571 738 q 611 693 592 694 q 649 689 631 692 q 648 788 649 740 q 644 886 647 835 q 556 928 604 913 q 458 944 508 944 q 432 943 446 944 q 404 939 418 942 q 292 910 351 928 q 184 862 233 892 q 102 787 135 832 q 69 678 69 742 l 69 675 q 83 597 69 635 q 122 526 97 558 q 178 471 146 494 q 250 436 211 447 l 251 436 q 306 419 279 425 q 361 407 333 413 q 450 388 406 399 q 531 343 494 376 q 562 293 553 324 q 571 233 571 263 l 571 228 q 550 149 571 183 q 497 90 529 115 q 426 47 465 64 q 347 24 386 31 q 331 22 339 22 q 313 21 322 21 q 253 31 282 21 q 203 64 225 40 l 203 65 q 163 147 175 104 q 147 233 150 189 l 126 238 q 96 243 110 240 q 71 249 82 246 q 73 140 72 190 q 76 31 74 89 q 179 -24 122 -3 q 294 -44 236 -44 m 74 33 l 76 29 l 76 31 q 74 33 74 33 z "},"T":{"ha":919,"x_min":32,"x_max":875,"o":"m 668 926 q 547 922 607 926 q 424 910 486 917 q 305 897 364 903 q 186 892 246 892 q 112 894 147 892 q 43 903 76 897 q 37 770 39 833 q 32 638 35 707 q 73 632 53 635 q 115 629 93 629 l 115 704 q 120 756 115 729 q 144 801 125 782 l 146 803 q 203 819 174 817 q 263 824 232 822 q 287 824 275 824 q 310 826 299 825 q 392 835 349 832 l 397 829 q 396 599 396 714 q 396 369 396 485 l 396 158 q 393 109 396 133 q 371 65 390 85 l 368 65 q 306 40 339 46 q 239 35 274 35 l 231 35 l 231 4 q 231 -12 231 -6 q 232 -26 232 -18 q 341 -19 286 -25 q 451 -4 396 -14 q 542 6 497 4 q 636 8 588 8 l 674 8 q 674 22 674 15 q 675 39 674 29 q 676 56 676 49 q 676 71 676 64 l 654 71 q 607 72 631 71 q 560 76 583 74 l 558 76 q 532 99 542 85 q 518 129 522 113 q 513 163 514 146 q 513 197 513 181 q 513 331 513 264 q 514 465 514 397 q 513 656 514 561 q 511 846 513 750 l 515 851 q 542 854 529 854 q 571 854 556 854 q 585 855 579 854 q 599 856 592 856 q 616 856 607 856 q 633 857 625 857 q 699 851 667 857 q 760 828 731 846 l 761 828 q 782 787 778 810 q 788 740 786 764 q 788 728 788 733 q 789 717 788 724 l 789 651 q 807 649 800 650 q 824 647 814 649 q 849 645 839 646 q 875 642 860 644 q 869 774 872 710 q 863 906 867 838 q 765 922 814 917 q 668 926 717 926 m 867 904 l 863 910 l 863 906 q 865 905 864 906 q 867 904 865 904 z "},"U":{"ha":1033,"x_min":21,"x_max":1000,"o":"m 792 919 q 718 922 756 921 q 643 924 681 924 q 615 924 628 924 q 588 922 603 924 q 588 908 588 914 q 589 890 589 901 l 589 861 q 601 863 593 863 q 621 863 610 863 q 658 860 640 863 q 696 856 676 858 q 700 855 699 856 q 704 854 701 854 l 707 854 q 749 799 742 835 q 757 729 757 763 q 758 672 757 701 q 758 615 758 643 q 760 514 760 565 q 760 413 760 464 l 760 331 q 761 315 761 324 q 761 299 761 308 q 743 203 761 250 q 694 117 725 156 q 619 56 663 79 q 525 31 576 32 q 507 28 515 29 q 489 28 499 28 q 418 38 453 28 q 358 76 383 49 q 306 173 319 118 q 292 283 293 228 q 291 388 292 336 q 290 490 290 439 q 290 593 290 543 q 292 696 290 643 q 296 755 292 725 q 321 810 300 785 l 322 811 q 392 835 357 828 q 463 846 426 843 l 463 908 q 447 905 453 907 q 431 901 440 903 q 343 890 386 894 q 254 886 300 886 l 240 886 q 129 890 182 886 q 25 901 76 894 l 25 897 q 25 883 25 890 q 24 869 25 876 q 22 853 22 861 q 21 843 21 846 q 74 836 47 840 q 129 824 101 832 l 131 822 q 167 774 158 804 q 175 715 175 744 l 175 696 q 174 579 175 638 q 172 463 172 521 q 172 379 172 421 q 174 297 172 339 q 192 165 175 231 q 253 47 208 99 q 343 -17 289 4 q 456 -37 397 -37 q 507 -33 482 -37 q 649 3 579 -22 q 768 85 719 29 q 812 142 796 110 q 836 211 828 175 q 847 285 844 247 q 849 358 849 322 q 847 542 849 450 q 844 725 844 633 l 844 758 q 848 799 844 779 q 867 835 851 819 l 868 836 q 903 846 885 843 q 942 849 922 849 q 974 848 961 849 q 1000 844 988 847 l 997 864 l 997 865 q 995 884 996 875 q 994 904 994 893 q 894 914 944 911 q 792 919 843 917 m 1000 904 l 994 910 l 994 904 l 1000 904 z "},"V":{"ha":938,"x_min":17,"x_max":914,"o":"m 717 524 q 751 615 733 569 q 783 706 768 660 q 798 751 789 726 q 821 798 807 776 q 853 834 835 819 q 899 849 872 849 q 914 847 910 849 l 910 907 q 829 915 868 911 q 749 921 790 918 q 721 922 735 922 q 693 924 707 922 q 641 927 665 926 q 589 929 617 928 l 589 904 q 589 886 589 894 q 590 868 589 879 l 599 867 l 603 868 l 635 868 q 686 861 663 868 q 718 824 710 854 l 718 818 q 717 803 718 810 q 713 790 715 797 l 708 772 q 660 614 689 692 q 603 457 631 536 q 540 265 571 361 q 476 72 508 169 l 465 72 q 419 216 443 144 q 371 360 396 288 q 310 541 339 451 q 254 722 282 631 q 252 735 253 729 q 249 749 251 742 q 243 770 246 760 q 240 794 240 781 l 240 796 q 271 828 247 822 q 318 836 294 833 q 333 837 326 838 q 347 840 340 836 l 349 840 q 354 841 351 840 q 360 842 357 842 q 372 844 367 843 q 381 844 378 844 l 381 906 q 291 892 338 896 q 196 889 244 889 q 21 906 104 889 q 20 887 21 899 q 18 864 19 875 q 17 855 18 857 q 17 846 17 853 l 32 846 q 81 831 61 846 q 114 794 100 817 q 135 747 128 772 q 150 700 143 721 q 267 332 207 513 q 390 -33 328 151 q 425 -29 400 -33 q 474 -22 450 -25 q 499 -19 486 -19 q 525 -15 511 -18 q 619 254 571 119 q 717 524 667 389 m 524 -19 l 528 -15 l 525 -15 q 524 -19 524 -17 z "},"W":{"ha":1400,"x_min":6,"x_max":1385,"o":"m 574 364 q 616 509 594 438 q 657 653 638 581 q 677 733 668 693 q 692 815 686 774 l 703 814 q 716 731 707 772 q 736 646 725 690 q 751 597 743 621 q 767 547 760 572 q 852 271 811 408 q 929 -7 893 133 q 964 -7 949 -7 q 997 -6 979 -7 q 1031 -3 1015 -4 q 1064 -3 1046 -3 q 1178 357 1121 176 q 1272 726 1235 538 q 1274 732 1274 729 q 1275 740 1274 736 q 1285 776 1279 757 q 1299 813 1290 796 q 1322 840 1308 829 q 1357 851 1336 851 q 1371 850 1367 851 q 1374 849 1374 850 q 1376 849 1374 849 l 1385 849 q 1384 863 1383 858 q 1383 876 1385 867 q 1381 892 1382 886 q 1379 906 1381 897 q 1343 909 1360 908 q 1307 911 1326 910 l 1226 915 q 1190 918 1208 917 q 1154 922 1172 919 q 1113 926 1132 925 q 1071 929 1093 928 q 1072 919 1071 926 q 1074 903 1072 913 q 1075 888 1075 896 q 1075 872 1075 881 l 1075 867 l 1097 867 q 1103 866 1100 867 q 1110 865 1107 865 q 1140 864 1124 865 q 1169 857 1156 863 q 1191 842 1182 851 q 1203 815 1200 832 l 1203 814 q 1196 757 1203 788 q 1118 448 1161 601 q 1031 139 1075 294 q 1024 115 1028 128 q 1017 92 1019 103 l 1006 92 q 988 176 997 133 q 968 260 979 218 q 892 513 932 388 q 813 764 853 638 q 788 843 800 804 q 761 922 775 882 q 738 920 749 921 q 714 918 726 919 q 683 916 697 917 q 650 913 668 915 q 597 724 624 817 q 542 535 569 631 q 473 295 507 414 q 406 54 439 176 l 394 54 q 356 235 382 149 q 290 467 322 351 q 226 700 257 582 q 216 744 219 722 q 213 790 213 767 l 213 792 q 242 828 217 821 q 292 836 268 836 l 303 836 q 325 836 314 836 q 350 835 338 836 q 351 847 350 842 q 351 858 351 851 q 351 875 351 867 q 353 896 351 885 q 282 892 317 893 q 210 890 247 890 l 178 890 q 161 892 169 892 q 144 893 153 892 q 71 898 107 896 q 11 904 35 900 q 10 891 10 896 q 10 876 11 886 q 8 861 8 867 q 6 846 7 856 l 15 846 q 56 834 40 846 q 83 805 72 822 q 101 766 94 788 q 113 725 107 744 q 117 711 115 718 q 121 697 118 704 q 225 328 176 511 q 332 -39 274 146 l 368 -39 q 414 -39 392 -39 q 461 -37 438 -39 q 517 163 489 63 q 574 364 544 264 m 460 -42 l 465 -37 l 461 -37 q 460 -42 460 -39 z "},"X":{"ha":1022,"x_min":35,"x_max":974,"o":"m 222 181 q 191 136 208 158 q 153 97 174 114 q 108 68 132 79 q 57 57 83 57 l 35 57 l 39 -1 q 91 -8 63 -6 q 149 -12 119 -10 l 207 -17 q 306 -21 254 -21 q 344 -22 326 -21 q 382 -24 361 -22 l 382 38 l 372 38 q 364 36 368 38 l 361 36 q 349 38 354 38 q 336 38 343 38 q 297 41 317 38 q 267 67 276 44 l 267 69 q 278 112 267 93 q 304 149 290 131 q 397 269 351 210 q 485 392 442 329 l 493 393 q 580 287 539 340 q 665 176 621 233 q 669 172 667 175 q 674 167 672 168 l 674 165 q 691 138 682 151 q 700 108 700 124 l 700 106 q 665 75 689 82 q 618 65 642 68 q 612 65 615 65 q 606 64 608 64 l 593 63 l 589 61 l 589 0 q 680 13 633 7 q 778 17 726 18 q 878 12 829 15 q 969 1 926 8 l 974 61 q 878 99 921 64 q 806 179 836 133 q 696 331 753 257 q 579 479 639 404 l 579 485 q 681 623 632 556 q 785 760 731 690 q 842 826 806 799 q 922 853 879 853 q 936 853 929 853 q 950 850 943 853 l 956 850 l 957 850 q 956 855 957 853 q 956 861 956 857 q 954 885 954 875 q 951 910 954 896 q 922 912 935 911 q 892 914 908 913 q 840 918 865 917 q 788 919 814 919 q 722 921 756 921 q 658 924 690 921 q 638 926 647 925 q 624 926 628 926 l 624 863 l 656 863 q 692 859 675 863 q 719 838 708 856 l 721 835 q 713 808 719 821 q 697 785 706 796 q 678 757 688 769 q 660 731 669 744 q 594 642 626 686 q 531 553 563 597 l 521 551 q 447 643 482 599 q 374 736 413 688 q 336 796 344 765 l 336 799 q 346 822 338 813 q 366 835 354 831 q 390 842 378 840 q 415 844 403 843 q 431 846 424 846 q 444 846 438 846 l 444 907 q 351 894 399 899 q 250 888 303 889 q 63 903 151 888 q 63 883 63 896 q 60 861 63 872 q 58 852 60 854 q 57 843 57 850 q 157 809 111 842 q 231 728 203 776 q 247 706 239 717 q 263 685 254 696 q 347 573 306 628 q 435 465 389 518 l 435 458 q 330 318 382 388 q 222 181 278 249 z "},"Y":{"ha":938,"x_min":10,"x_max":918,"o":"m 31 844 q 72 835 53 844 q 105 809 90 825 q 131 774 119 793 q 150 736 142 754 q 275 517 213 625 q 408 304 338 410 l 410 301 l 410 160 q 406 110 410 135 q 383 65 403 85 l 382 65 q 313 40 347 44 q 242 35 278 36 l 242 -3 q 242 -15 242 -10 q 243 -26 243 -19 q 351 -17 296 -24 q 465 -3 407 -11 l 467 -3 q 560 6 514 3 q 653 10 606 10 q 669 9 663 10 q 686 8 676 8 q 688 39 688 26 q 689 71 689 51 q 675 72 681 71 q 661 72 669 72 q 617 73 639 72 q 575 76 596 74 l 574 76 q 535 119 544 92 q 526 176 526 146 l 526 318 l 528 321 q 643 528 581 428 q 767 733 706 629 q 788 770 776 750 q 815 808 800 790 q 847 837 829 825 q 888 849 864 849 q 899 848 894 849 q 910 846 904 847 l 915 846 l 915 850 q 915 863 915 857 q 914 876 915 869 l 914 878 q 912 894 913 886 q 911 907 911 901 q 830 914 869 913 q 749 918 790 915 l 664 922 q 624 925 643 924 q 585 926 606 926 q 585 912 585 918 q 586 896 586 906 l 586 864 l 608 864 q 621 865 615 864 q 633 865 626 865 q 676 859 656 865 q 707 832 696 853 l 708 829 q 697 782 706 796 l 489 400 l 479 400 q 383 559 431 479 q 286 719 335 639 q 267 756 275 738 q 256 794 258 774 l 256 796 q 285 831 261 824 q 331 840 308 838 q 337 841 333 840 q 343 842 340 842 q 365 843 350 843 l 379 843 l 379 904 q 290 892 336 897 q 194 888 243 888 l 181 888 q 97 892 136 888 q 19 904 58 897 q 19 885 19 897 q 17 863 18 874 q 16 853 17 857 q 15 844 15 849 l 31 844 m 10 844 l 15 839 l 15 844 l 10 844 m 915 844 q 916 845 914 844 q 915 846 918 846 l 915 844 z "},"Z":{"ha":790,"x_min":46,"x_max":718,"o":"m 50 46 q 51 21 51 33 q 51 -1 51 10 q 215 -28 129 -28 q 310 -22 263 -28 q 407 -8 358 -15 q 504 5 456 -1 q 603 11 553 11 q 658 8 632 11 q 708 1 685 6 l 718 235 q 701 237 713 236 q 676 239 690 238 q 656 242 665 240 q 635 244 646 243 l 635 229 q 634 219 635 224 q 633 208 633 214 l 633 190 q 630 143 633 165 q 607 101 626 121 l 606 100 q 551 82 581 86 q 490 75 521 78 q 469 73 479 74 q 444 69 458 72 l 424 65 q 322 48 374 54 q 218 42 271 42 q 190 42 203 42 q 163 44 176 43 l 158 53 q 277 216 221 133 q 390 383 333 299 q 546 611 468 500 q 708 819 624 722 q 708 842 708 831 q 707 864 708 853 q 706 885 706 875 q 704 908 706 896 q 630 924 668 919 q 554 928 592 928 q 457 923 506 928 q 360 911 408 918 q 263 899 311 904 q 167 893 215 893 q 78 900 117 893 q 75 831 75 864 q 74 763 75 799 q 73 718 74 739 q 71 674 72 697 q 153 665 122 668 q 151 683 151 672 q 151 710 151 696 l 151 717 q 160 772 151 744 q 197 813 169 800 l 199 813 q 250 824 225 819 q 303 832 275 828 q 324 835 314 835 q 346 839 335 836 q 439 854 392 850 q 535 858 486 858 q 561 858 549 858 q 586 857 574 857 l 590 849 q 485 702 536 775 q 383 554 433 629 q 217 316 300 432 q 47 96 135 200 q 49 71 49 85 q 50 46 49 58 m 47 99 l 46 94 q 46 94 46 94 q 47 96 46 96 l 47 99 z "},"[":{"ha":411,"x_min":117,"x_max":357,"o":"m 350 -125 l 350 -87 q 330 -81 339 -83 q 310 -78 321 -78 q 269 -85 289 -78 q 233 -104 249 -93 l 225 -100 q 226 28 226 -35 q 226 157 226 92 q 226 285 226 222 q 225 414 226 349 q 224 669 224 543 q 224 926 224 797 l 225 931 q 253 947 238 942 q 286 951 269 951 q 351 932 328 951 l 351 939 q 350 956 351 949 l 350 957 q 349 975 349 967 q 349 990 349 983 q 286 1014 322 1014 q 247 1006 265 1014 q 160 976 207 976 q 121 982 132 976 q 117 700 118 838 q 117 419 117 563 q 121 -153 117 132 q 144 -174 132 -168 q 171 -181 157 -181 q 201 -174 185 -181 q 238 -158 218 -167 q 276 -143 257 -150 q 317 -136 296 -136 q 349 -143 333 -136 q 349 -135 349 -139 q 350 -125 350 -131 m 349 -153 l 357 -149 q 349 -143 354 -146 l 349 -153 z "},"\\":{"ha":394,"x_min":-54,"x_max":435,"o":"m 1 914 q -31 918 -14 917 q -54 922 -47 919 q 51 640 -11 783 q 179 353 113 497 q 283 119 232 235 q 378 -121 335 3 q 435 -128 410 -121 q 326 165 390 15 q 192 468 261 315 q 94 690 142 579 q 3 914 46 800 l 1 914 m 7 914 l 1 918 q 3 914 1 915 l 7 914 z "},"]":{"ha":411,"x_min":50,"x_max":283,"o":"m 115 -181 q 150 -171 136 -181 q 239 -140 192 -140 q 278 -146 265 -140 q 282 138 281 -1 q 283 419 283 276 q 282 703 283 563 q 278 990 281 844 q 249 1009 265 1001 q 213 1017 232 1017 q 196 1015 206 1017 q 179 1008 186 1013 q 136 986 160 994 q 89 978 113 978 q 54 982 63 978 q 53 976 53 988 q 51 954 53 961 q 50 938 50 944 q 50 924 50 931 q 69 916 58 918 q 92 914 81 914 q 131 921 111 914 q 167 939 151 928 l 175 935 l 175 -93 l 174 -97 q 144 -115 160 -110 q 111 -121 128 -121 q 50 -100 67 -121 q 50 -106 50 -103 q 51 -117 50 -108 q 53 -126 53 -121 q 53 -137 53 -132 q 51 -154 53 -149 q 80 -174 63 -167 q 115 -181 97 -181 m 50 -151 l 51 -156 l 51 -154 q 51 -152 51 -153 q 50 -151 50 -151 z "},"^":{"ha":1408,"x_min":290,"x_max":1106,"o":"m 290 626 q 308 625 296 626 q 336 621 321 624 q 424 699 381 661 q 514 776 468 738 q 605 853 560 815 q 694 932 650 892 l 701 932 l 743 897 l 744 897 q 903 766 825 831 q 1057 629 982 701 q 1072 628 1065 628 q 1086 628 1079 628 l 1106 628 q 941 823 1031 726 q 756 1015 851 919 q 698 1013 726 1014 q 639 1007 669 1011 q 462 819 547 911 q 290 626 376 728 m 640 1008 l 636 1007 l 639 1007 l 640 1008 z "},"_":{"ha":706,"x_min":-11,"x_max":707,"o":"m -11 -332 q -8 -355 -11 -344 q -3 -375 -6 -365 q 94 -378 47 -378 q 190 -379 140 -379 q 289 -378 240 -379 q 386 -376 338 -378 q 497 -374 442 -374 q 610 -375 553 -375 l 699 -375 q 707 -337 707 -358 q 705 -315 707 -326 q 699 -296 703 -304 q 626 -294 661 -294 q 551 -293 590 -293 q 435 -294 493 -293 q 318 -296 376 -294 q 236 -297 276 -297 q 156 -297 196 -297 q 75 -297 115 -297 q -4 -296 36 -297 q -11 -332 -11 -314 m -3 -293 l -7 -296 l -4 -296 q -3 -293 -4 -293 z "},"`":{"ha":719,"x_min":157,"x_max":476,"o":"m 281 974 q 274 981 278 978 q 268 986 271 983 q 261 992 265 989 q 253 997 257 994 q 231 1017 242 1008 q 206 1025 221 1025 l 200 1025 q 172 1013 185 1025 q 157 986 160 1001 q 196 926 164 943 q 248 894 218 911 q 310 861 278 878 q 369 828 339 846 q 431 788 400 811 l 465 788 q 378 882 426 836 q 281 974 331 928 m 472 778 l 476 786 q 471 787 474 786 q 465 788 468 788 q 469 783 468 785 q 472 778 469 781 z "},"a":{"ha":746,"x_min":53,"x_max":703,"o":"m 703 51 q 669 58 688 54 q 631 68 650 63 l 628 69 q 605 111 611 89 q 599 158 599 133 l 599 175 q 599 245 599 210 q 600 317 600 281 q 599 386 600 351 q 599 456 599 421 q 588 547 597 501 q 546 628 578 593 q 479 669 518 657 q 400 682 440 682 q 346 675 376 682 q 252 660 297 668 q 167 631 207 651 q 98 563 122 607 q 74 471 74 518 q 119 467 101 467 q 160 465 139 467 q 168 465 165 465 q 176 464 171 464 l 176 469 q 191 529 176 501 q 228 577 206 557 q 281 610 251 597 q 340 622 310 622 q 356 624 347 624 q 375 624 364 624 q 417 619 396 624 q 454 599 438 614 l 454 597 q 484 538 475 569 q 493 472 493 506 l 493 403 l 488 397 q 433 392 460 394 q 378 386 406 390 q 368 385 374 385 q 360 383 364 385 q 263 367 311 376 q 165 342 214 358 q 84 278 115 324 q 53 179 53 232 l 53 163 q 69 86 53 122 q 114 22 86 50 q 178 -24 142 -7 q 254 -40 214 -40 q 263 -40 258 -40 q 271 -39 267 -39 q 338 -26 306 -39 q 397 7 369 -14 q 447 54 424 28 q 486 108 469 81 l 496 106 l 500 7 q 533 10 514 10 q 574 10 553 10 q 589 10 581 10 q 604 11 597 11 q 642 8 624 10 q 678 4 660 7 l 679 4 q 689 3 686 3 q 700 1 693 3 q 701 26 700 15 q 703 51 701 36 m 493 339 l 493 272 q 480 190 493 232 q 442 115 467 149 q 381 58 417 81 q 303 32 346 36 q 283 31 297 31 q 236 42 258 31 q 197 72 214 53 q 171 114 181 90 q 161 163 161 138 l 161 175 q 183 246 161 217 q 237 293 204 275 q 308 320 269 311 q 379 333 346 329 q 467 343 415 340 q 477 344 472 343 q 488 344 482 344 l 493 339 z "},"b":{"ha":807,"x_min":4,"x_max":746,"o":"m 219 79 l 231 82 q 310 4 258 31 q 419 -22 363 -22 q 442 -21 431 -22 q 465 -17 454 -19 l 467 -17 q 579 11 528 -17 q 667 84 631 39 q 725 186 704 129 q 746 300 746 243 q 746 314 746 307 q 744 331 746 322 l 744 332 q 746 349 746 340 q 746 367 746 357 q 728 480 746 422 q 676 583 710 538 q 595 658 643 629 q 488 688 547 688 q 475 688 481 688 q 463 686 469 688 l 461 686 q 335 640 392 679 q 243 543 279 600 l 233 546 q 234 768 233 658 q 238 990 235 878 q 181 983 210 985 q 121 981 153 981 q 96 981 108 981 q 71 982 83 981 l 36 986 q 20 988 28 988 q 8 989 13 989 q 6 963 7 974 q 6 938 6 951 q 51 930 28 935 q 99 915 75 925 l 100 914 q 126 872 119 894 q 132 822 132 850 l 132 811 q 130 656 132 733 q 128 500 128 579 q 130 320 128 410 q 132 140 132 231 l 132 121 q 130 82 132 101 q 113 47 128 63 l 110 46 q 65 39 90 39 q 4 47 26 39 q 6 23 6 33 q 7 -1 7 13 q 21 -6 14 -4 q 35 -8 28 -7 l 36 -8 l 71 -17 q 103 -22 86 -19 q 135 -26 119 -24 q 181 -33 160 -31 q 219 -37 201 -36 l 219 79 m 225 301 q 224 315 224 308 q 224 333 224 324 q 238 429 224 381 q 278 518 251 478 q 344 586 304 558 q 435 621 383 614 q 456 622 442 622 q 536 597 503 622 q 590 535 569 572 q 620 451 611 497 q 629 364 629 406 l 629 342 q 630 329 629 335 q 631 317 631 324 q 618 226 631 272 q 581 143 606 181 q 518 81 556 106 q 431 54 481 57 q 411 51 419 51 q 392 51 403 51 q 326 65 358 51 q 274 107 293 78 l 272 107 q 237 201 249 150 q 225 301 225 251 z "},"c":{"ha":689,"x_min":50,"x_max":625,"o":"m 417 689 q 397 688 407 689 q 378 686 388 688 q 256 651 315 679 q 151 577 197 622 q 78 474 106 532 q 50 351 50 417 q 50 339 50 344 q 51 328 50 335 l 51 325 q 50 311 50 318 q 50 299 50 306 q 69 185 50 243 q 124 78 89 126 q 207 0 158 31 q 314 -31 256 -31 q 339 -28 326 -31 q 365 -24 351 -26 l 367 -24 q 458 -6 413 -24 q 542 42 504 11 q 602 114 579 72 q 625 206 625 156 l 625 208 q 578 214 600 211 q 546 218 557 217 l 546 217 q 533 151 546 183 q 497 95 519 119 q 444 56 475 71 q 381 39 414 40 q 366 37 374 38 q 349 36 358 36 q 270 58 304 36 q 213 115 236 81 q 178 192 190 150 q 165 275 165 235 q 167 299 165 292 q 166 312 167 306 q 165 325 165 318 q 178 426 165 375 q 218 521 192 478 q 285 594 244 564 q 381 632 326 625 q 392 634 386 633 q 404 635 397 635 q 456 620 433 635 q 493 582 478 606 q 516 530 508 558 q 524 475 524 501 q 523 469 524 471 q 522 463 522 467 q 568 460 546 463 q 614 453 590 457 q 610 488 611 472 q 610 522 610 503 q 608 578 608 550 q 606 633 608 606 q 515 673 564 657 q 417 689 467 689 m 608 632 l 606 636 l 606 633 q 608 632 606 632 z "},"d":{"ha":807,"x_min":49,"x_max":790,"o":"m 556 847 q 557 713 557 781 q 557 579 557 646 l 546 576 q 475 645 522 625 q 378 665 428 665 q 331 661 353 665 l 329 661 q 213 633 271 656 q 111 563 154 611 q 62 465 75 522 q 49 347 49 408 l 49 310 q 65 188 49 251 q 113 73 81 125 q 193 -12 144 21 q 308 -46 242 -46 l 326 -46 q 462 8 401 -39 q 561 118 522 56 l 571 115 l 571 108 q 572 56 571 81 q 574 3 574 31 q 618 7 593 6 q 672 8 643 8 q 697 8 685 8 q 722 7 710 8 q 740 6 732 6 q 757 4 749 6 q 771 3 765 3 q 786 1 778 3 q 789 25 788 15 q 790 50 790 35 q 701 68 750 54 l 700 69 q 666 108 675 85 q 657 158 657 132 l 657 175 q 658 344 657 260 q 660 513 660 428 q 658 767 660 642 q 651 1022 656 892 q 567 1018 607 1021 q 485 1011 528 1015 q 468 1008 476 1010 q 450 1006 460 1007 q 432 1003 439 1004 q 419 1000 425 1001 l 419 947 q 422 947 422 947 q 425 949 422 949 q 455 953 440 951 q 485 954 469 954 q 499 954 492 954 q 513 953 506 954 l 514 953 q 549 907 543 938 q 556 847 556 876 m 567 339 q 567 326 567 332 q 568 313 568 319 q 556 220 568 267 q 518 134 543 174 q 456 67 493 94 q 368 33 418 40 q 354 31 361 32 q 340 31 347 31 q 259 55 293 31 q 203 117 225 79 q 172 199 182 154 q 161 285 161 243 q 162 294 161 290 q 163 304 163 299 q 161 318 161 311 q 161 336 161 326 q 173 426 161 381 q 208 510 185 472 q 269 572 232 547 q 356 599 306 596 q 393 604 371 604 q 465 589 431 604 q 519 540 500 574 l 521 540 q 556 451 544 499 q 567 354 567 403 l 567 339 z "},"e":{"ha":701,"x_min":50,"x_max":636,"o":"m 631 353 l 631 364 q 632 376 632 371 q 632 390 632 383 q 615 494 632 442 q 567 590 599 547 q 492 661 536 633 q 394 689 449 689 q 357 685 378 689 q 242 650 299 674 q 142 588 186 626 q 73 474 94 539 q 51 342 51 410 l 51 335 q 50 317 50 326 q 50 299 50 307 q 67 185 50 243 q 117 78 85 126 q 197 -1 150 31 q 303 -32 243 -32 q 326 -31 314 -32 q 351 -26 339 -29 l 353 -26 q 442 -7 396 -22 q 525 35 488 8 q 588 98 563 61 q 617 182 613 135 q 595 184 604 183 q 574 186 586 185 q 550 188 561 188 q 528 189 540 188 q 512 129 526 157 q 474 81 497 101 q 423 47 451 60 q 364 29 394 33 q 329 25 347 25 q 256 47 288 25 q 203 102 225 68 q 172 177 182 136 q 161 256 161 218 q 161 268 161 263 q 163 282 161 275 l 163 307 l 168 313 q 257 317 213 313 q 346 326 301 321 q 431 336 389 332 q 517 340 474 340 q 574 338 546 340 q 629 329 601 335 q 631 340 631 335 q 631 353 631 346 m 517 400 l 511 394 l 485 394 q 413 391 449 394 q 342 383 378 388 q 267 375 304 379 q 194 371 231 371 l 169 371 l 164 376 l 164 392 q 176 472 164 432 q 213 544 189 511 q 271 599 238 576 q 346 628 304 621 q 358 630 353 629 q 371 631 364 631 q 435 612 407 631 q 481 564 463 593 q 509 499 500 535 q 518 431 518 464 q 517 420 518 425 q 517 411 517 415 l 517 400 m 629 324 l 636 328 q 629 329 632 328 l 629 324 z "},"f":{"ha":518,"x_min":13,"x_max":581,"o":"m 151 578 q 153 360 151 469 q 154 143 154 251 l 154 126 q 153 95 154 111 q 147 64 151 79 l 146 61 q 117 44 132 49 q 83 39 101 39 q 56 42 69 39 q 29 47 43 44 l 26 49 l 24 49 q 24 24 24 35 q 26 -1 25 14 q 98 -15 63 -10 q 171 -21 133 -21 q 196 -21 185 -21 q 221 -18 208 -21 l 222 -18 q 297 -6 257 -14 q 351 5 325 0 q 407 10 378 10 q 415 9 413 10 q 422 8 417 8 q 423 22 422 17 q 424 36 424 28 l 424 63 l 418 63 q 394 62 407 63 q 371 58 382 61 q 349 54 360 56 q 325 53 338 53 l 322 53 q 293 60 304 53 q 276 81 282 68 q 267 108 269 93 q 264 138 264 124 l 264 217 q 264 293 264 256 q 263 371 264 331 q 261 479 261 425 q 261 588 261 533 l 265 594 q 350 613 307 606 q 438 619 393 619 l 443 619 l 443 646 q 442 659 443 654 q 442 671 442 664 l 431 671 q 349 664 390 671 q 268 646 308 657 l 261 651 l 261 754 q 268 828 261 789 q 292 899 275 867 q 336 953 308 932 q 407 975 364 975 l 414 975 q 460 961 442 975 q 489 926 478 947 q 505 880 500 906 q 510 831 510 854 l 510 825 q 531 821 517 824 q 563 814 546 818 q 572 812 569 813 q 581 810 574 811 q 578 897 579 856 q 575 982 578 938 q 501 1016 540 1003 q 419 1026 461 1029 q 315 998 364 1024 q 231 931 267 972 q 174 837 194 889 q 153 731 153 785 l 153 713 q 153 676 153 694 q 151 642 153 660 l 146 636 q 80 639 111 636 q 18 650 49 642 q 17 629 17 639 q 17 611 17 621 l 17 600 q 146 583 79 583 l 151 578 m 24 49 l 24 53 q 16 52 13 53 q 22 50 19 51 q 22 49 22 50 q 24 49 22 49 z "},"g":{"ha":725,"x_min":0,"x_max":685,"o":"m 671 653 q 632 662 651 657 q 593 669 613 667 q 575 670 583 669 q 556 671 567 671 q 540 672 549 671 q 525 672 532 672 q 475 668 500 672 l 469 668 q 394 683 435 683 q 359 681 376 683 q 324 675 342 678 l 322 675 q 227 650 275 669 q 141 599 179 631 q 79 524 103 567 q 56 431 56 481 l 56 404 q 86 296 56 346 q 165 215 117 246 l 164 206 q 131 196 149 201 q 99 181 114 190 q 75 159 85 172 q 65 128 65 146 q 98 69 67 90 q 163 38 129 47 l 163 26 q 108 8 136 19 q 55 -19 79 -3 q 15 -60 31 -36 q 0 -114 0 -83 l 0 -121 q 23 -209 0 -169 q 83 -276 46 -249 q 165 -320 119 -304 q 257 -336 211 -336 q 315 -329 281 -336 q 340 -322 328 -326 q 365 -315 351 -318 q 462 -289 413 -303 q 553 -252 511 -275 q 624 -194 594 -229 q 660 -106 653 -160 l 660 -92 q 641 -18 660 -51 q 592 40 622 15 q 523 77 561 64 q 446 90 485 90 q 428 90 438 90 q 411 88 419 89 q 342 79 376 85 q 314 74 328 76 q 285 72 300 72 l 246 72 q 189 81 215 72 q 158 126 163 90 q 183 164 161 154 q 228 179 204 174 q 242 183 233 181 l 243 183 q 429 232 336 192 l 431 232 q 491 263 461 244 q 544 307 521 282 q 582 363 568 332 q 596 428 596 393 q 595 435 596 432 q 594 443 594 439 q 578 528 593 488 q 536 604 564 569 l 540 614 q 615 605 579 610 q 685 590 651 600 q 685 603 685 597 q 683 619 685 610 q 682 635 682 626 q 681 650 682 643 q 675 651 678 651 q 671 653 674 651 m 331 -271 q 279 -278 306 -278 q 216 -269 247 -278 q 160 -242 185 -260 q 119 -197 135 -224 q 103 -135 103 -169 l 103 -131 q 126 -59 103 -87 q 182 -14 149 -31 q 255 12 215 3 q 328 25 294 21 q 392 35 353 35 q 449 27 421 35 q 501 4 478 19 q 538 -34 524 -11 q 551 -89 551 -57 l 551 -97 q 530 -170 551 -140 q 475 -219 508 -200 q 403 -251 442 -239 q 331 -271 364 -262 m 160 442 q 172 508 160 475 q 206 568 185 542 q 258 612 228 594 q 322 632 288 629 q 357 638 338 638 q 411 623 386 638 q 453 585 436 608 q 481 532 471 561 q 490 475 490 503 q 489 457 490 463 q 490 436 490 450 q 478 369 490 401 q 443 309 465 336 q 391 264 421 282 q 326 242 361 246 q 310 238 318 239 q 290 236 301 236 q 237 251 261 236 q 195 288 213 265 q 168 340 178 311 q 158 396 158 368 q 159 409 158 403 q 161 422 160 415 q 160 442 160 428 m 685 650 l 681 656 l 681 650 l 685 650 z "},"h":{"ha":831,"x_min":1,"x_max":792,"o":"m 365 38 q 353 36 360 38 l 351 36 q 331 34 340 35 q 311 33 321 33 q 290 35 300 33 q 269 40 279 36 l 268 42 q 242 83 249 61 q 236 129 236 106 l 236 142 q 235 235 236 189 q 235 329 235 282 q 233 343 233 336 q 233 357 233 350 q 245 441 233 399 q 281 518 257 483 q 339 577 304 553 q 418 607 374 601 q 433 610 425 610 q 451 610 443 610 q 508 599 481 610 q 551 558 536 588 q 574 486 568 525 q 581 407 581 447 l 581 396 q 579 288 581 342 q 578 179 578 235 l 578 171 q 575 124 578 147 q 556 83 572 100 l 554 82 q 503 62 528 71 q 451 50 478 53 l 451 -3 q 610 17 529 17 l 643 17 q 789 1 719 17 q 789 13 789 7 q 790 26 789 18 l 790 28 q 792 39 792 35 q 792 50 792 44 l 792 53 q 789 53 789 53 q 786 54 789 54 l 785 54 q 749 61 767 57 q 714 76 732 65 l 713 76 q 688 116 693 93 q 683 163 683 139 l 683 179 q 685 315 683 247 q 686 450 688 382 q 680 535 686 493 q 650 613 674 578 q 585 667 625 649 q 501 686 546 686 q 488 685 494 686 q 474 683 481 685 l 472 683 q 337 632 397 675 q 235 529 276 589 l 225 532 q 226 760 225 649 q 229 989 226 872 q 181 983 206 986 q 124 981 156 981 q 98 981 111 981 q 72 983 85 982 l 38 988 q 22 990 29 989 q 10 990 14 990 q 8 964 8 975 q 7 938 7 953 q 13 937 11 936 q 18 936 14 938 q 58 929 38 933 q 99 918 79 925 l 101 917 q 126 876 118 899 q 133 831 133 854 q 133 821 133 826 q 132 811 132 815 q 130 658 131 735 q 129 503 129 582 q 133 144 129 324 q 133 106 133 125 q 126 69 132 88 l 125 67 q 93 49 110 53 q 58 44 76 44 q 13 49 33 44 l 10 50 q 6 50 11 47 q 8 25 7 35 q 8 0 8 15 q 100 -13 56 -7 q 189 -19 144 -19 l 211 -19 q 247 -20 229 -19 q 283 -21 265 -21 q 365 -17 319 -21 l 365 38 m 6 50 l 6 53 q 4 51 1 53 q 4 50 4 51 q 6 50 4 50 z "},"i":{"ha":444,"x_min":29,"x_max":401,"o":"m 279 676 q 251 669 268 674 q 218 657 235 664 q 168 641 193 649 q 115 633 143 633 q 106 633 111 633 q 96 635 100 633 q 89 636 93 636 q 83 638 86 636 q 51 642 67 640 q 31 647 36 644 l 31 601 q 35 599 29 601 q 40 596 38 597 q 42 596 43 594 q 60 590 51 593 q 81 585 69 588 q 109 578 94 582 q 138 571 124 575 l 140 569 q 164 530 158 551 q 169 485 169 508 l 169 474 q 169 308 169 390 q 171 144 169 228 q 168 96 171 121 q 150 49 165 71 l 149 47 q 124 38 138 40 q 99 35 110 35 q 35 49 63 35 l 35 18 q 35 10 35 14 q 36 -1 35 6 q 129 -22 78 -22 q 221 -3 175 -22 q 268 11 243 7 q 318 15 293 15 q 401 3 368 15 l 401 54 q 381 59 390 57 q 363 64 371 61 q 336 71 349 68 q 311 78 324 74 l 308 79 q 284 122 290 99 q 278 169 278 146 l 278 178 q 278 273 278 226 q 279 368 279 319 l 279 676 m 138 914 l 138 910 q 156 866 138 886 q 199 846 175 846 q 219 851 208 846 l 221 853 q 279 888 254 864 q 306 947 304 913 q 286 997 306 974 q 240 1019 267 1019 q 224 1015 233 1019 q 165 976 192 1001 q 138 914 138 950 z "},"j":{"ha":396,"x_min":-160,"x_max":293,"o":"m 269 38 q 270 197 269 118 q 271 356 271 275 q 271 513 271 436 q 269 669 271 589 q 197 678 233 678 q 94 663 147 678 q 60 651 75 656 q 25 640 44 646 l 25 614 q 24 600 25 604 q 24 588 24 596 l 47 594 q 81 606 64 600 q 117 611 97 611 l 118 611 q 156 574 147 600 q 165 521 165 547 l 165 265 q 165 141 165 203 q 164 17 164 79 l 164 4 q 159 -83 164 -37 q 139 -171 154 -129 q 94 -245 124 -212 q 18 -293 65 -278 q 8 -294 14 -294 q 1 -294 4 -294 q -37 -283 -21 -294 q -63 -254 -53 -272 q -78 -215 -74 -236 q -83 -175 -83 -194 l -83 -158 q -124 -147 -106 -154 q -160 -133 -143 -140 q -158 -210 -158 -175 q -157 -287 -157 -244 q -94 -330 -129 -312 q -19 -347 -58 -347 q 14 -343 -3 -347 q 133 -287 76 -319 q 226 -207 190 -256 q 264 -95 258 -153 q 269 17 269 -37 l 269 38 m 131 950 q 158 894 131 917 q 217 868 185 872 q 233 865 228 865 q 274 879 256 865 q 293 917 293 893 l 293 919 q 269 987 290 956 q 211 1029 249 1018 l 203 1029 q 151 1003 171 1029 q 131 950 131 978 z "},"k":{"ha":804,"x_min":18,"x_max":772,"o":"m 151 811 q 149 645 150 728 q 149 479 149 563 q 153 144 149 311 q 152 106 153 125 q 146 68 151 88 l 144 65 q 113 47 129 51 q 81 43 97 43 q 53 44 67 43 q 29 49 40 46 l 26 50 q 22 50 28 47 q 24 24 24 35 q 25 -1 25 14 q 115 -14 69 -10 q 206 -19 160 -18 q 235 -20 221 -19 q 264 -21 250 -21 q 385 -12 322 -21 l 385 40 q 362 36 374 38 q 336 35 350 35 q 292 40 310 35 l 289 42 q 266 83 272 61 q 260 128 260 104 l 260 142 q 258 354 260 249 q 257 567 257 460 q 258 777 257 675 q 261 986 258 879 q 251 985 254 985 q 242 985 249 986 l 240 985 q 190 980 214 982 q 139 978 165 978 q 114 979 126 978 q 89 981 101 981 q 63 982 75 982 q 36 985 50 982 q 26 988 25 988 q 24 962 25 972 q 24 936 24 951 l 25 936 q 29 935 28 936 q 32 935 31 935 l 33 935 q 40 933 36 933 q 49 932 44 933 q 88 925 68 929 q 124 913 107 921 l 125 911 q 149 865 146 890 q 151 811 151 839 m 415 206 q 451 174 433 189 q 485 143 468 160 l 490 138 q 507 119 500 128 q 514 97 514 111 l 514 93 q 492 66 510 74 q 458 53 475 58 l 457 53 q 456 52 454 53 q 456 51 458 51 l 456 -1 q 540 15 496 10 q 632 19 585 19 l 633 19 q 649 18 640 18 q 664 17 657 18 q 721 12 692 14 q 769 3 750 10 q 770 26 769 17 q 772 50 771 35 q 692 89 728 57 q 621 153 656 121 l 606 167 q 509 269 558 219 q 404 364 460 319 l 404 372 q 466 441 435 407 q 529 510 497 475 q 610 578 564 547 q 710 608 656 608 l 722 608 l 722 660 q 642 663 681 663 q 563 664 604 664 q 501 662 531 664 q 440 657 471 660 q 425 656 432 656 q 410 654 418 656 l 410 603 l 417 604 l 419 604 q 438 606 425 606 q 467 599 453 606 q 483 572 481 592 l 483 571 q 470 540 481 553 q 449 515 460 526 q 440 506 442 508 q 435 500 438 503 l 435 499 q 406 467 419 483 q 379 435 393 451 q 331 381 356 407 q 281 331 307 354 q 347 267 313 299 q 415 206 382 236 m 276 335 l 276 326 l 281 331 l 276 335 m 22 50 l 22 53 q 21 51 18 53 q 21 50 21 51 q 22 50 21 50 z "},"l":{"ha":444,"x_min":35,"x_max":401,"o":"m 171 814 l 171 138 q 168 92 171 115 q 150 49 165 69 l 149 46 q 124 38 138 40 q 96 36 110 36 q 64 40 81 36 q 35 50 47 43 l 35 18 q 35 10 35 14 q 36 -1 35 6 q 129 -22 78 -22 q 221 -3 175 -22 q 268 11 243 7 q 318 15 293 15 q 401 3 368 15 l 401 54 q 375 62 386 58 q 350 68 364 65 q 313 78 332 74 l 311 79 q 283 124 288 96 q 278 176 278 151 q 279 367 279 272 q 279 558 279 463 q 279 789 279 676 q 276 1021 279 903 q 248 1013 265 1019 q 211 999 231 1007 q 165 981 188 989 q 114 974 142 974 q 106 974 110 974 q 99 975 103 975 l 97 975 q 81 976 92 976 q 53 980 65 978 q 35 985 42 982 l 35 935 q 60 928 46 931 q 90 922 75 925 q 107 920 99 921 q 125 917 115 919 q 151 898 142 910 q 165 872 160 886 q 170 843 169 858 q 171 814 171 828 z "},"m":{"ha":1246,"x_min":22,"x_max":1208,"o":"m 140 -6 q 171 -7 156 -7 q 201 -8 186 -7 l 272 -12 q 321 -15 299 -14 q 369 -19 343 -17 l 369 -14 q 369 -1 369 -7 q 368 11 369 4 q 367 24 367 18 q 367 35 367 29 q 321 37 343 35 q 276 50 299 39 l 275 51 q 250 98 256 71 q 243 153 244 125 q 240 244 240 199 q 240 339 240 292 q 239 351 239 346 q 239 365 239 358 q 250 446 239 404 q 283 522 261 488 q 339 578 306 557 q 418 600 372 600 l 429 600 q 490 589 460 600 q 540 550 519 578 l 542 550 q 567 467 561 511 q 572 378 572 422 q 573 324 572 350 q 574 269 574 297 l 574 154 q 572 106 574 131 q 554 63 569 82 l 553 60 q 504 43 529 50 q 451 36 479 36 l 450 36 q 450 8 450 19 q 451 -18 450 -1 q 539 -9 496 -14 q 626 0 582 -4 q 711 4 671 4 q 797 4 753 4 q 799 22 799 15 q 799 38 799 31 q 799 49 799 44 q 800 60 800 53 l 792 58 l 783 58 q 769 58 776 58 q 756 57 763 57 q 710 64 729 57 l 707 65 q 681 104 688 81 q 675 153 675 128 l 675 375 q 684 458 675 414 q 713 538 693 501 q 765 597 733 574 q 844 621 797 621 l 851 621 q 912 610 882 621 q 961 575 942 600 l 963 574 q 995 487 986 533 q 1004 393 1004 440 q 1003 285 1004 340 q 1001 176 1001 231 l 1001 163 q 998 120 1001 142 q 979 82 994 99 l 976 81 q 928 67 953 72 q 878 61 904 61 l 874 61 l 874 6 q 883 6 881 6 q 893 7 886 7 q 952 12 922 10 q 1011 14 982 14 q 1028 13 1019 14 q 1046 13 1038 13 q 1130 8 1090 11 q 1203 1 1169 6 q 1205 15 1204 7 q 1207 31 1206 22 l 1207 32 q 1208 42 1208 39 q 1208 54 1207 46 q 1172 58 1189 56 q 1136 69 1154 60 l 1135 71 q 1111 107 1117 86 q 1106 150 1106 128 q 1106 163 1106 157 q 1107 175 1106 168 q 1108 201 1107 189 q 1108 228 1108 213 q 1110 289 1110 258 q 1110 353 1110 321 q 1110 399 1110 376 q 1108 444 1110 421 q 1098 529 1106 488 q 1065 607 1090 571 q 994 669 1038 646 q 901 692 950 692 l 893 692 q 885 692 889 692 q 876 693 881 693 q 758 653 811 693 q 674 558 706 613 l 663 560 q 597 643 644 613 q 494 674 549 674 q 483 674 489 674 q 472 672 479 674 l 468 672 q 340 634 400 672 q 244 540 281 596 l 235 543 q 235 573 235 558 q 236 603 236 588 l 236 656 q 163 651 199 651 q 92 650 128 650 q 74 652 83 651 q 56 653 64 653 q 42 653 49 653 q 26 654 36 653 q 26 642 26 650 q 24 628 25 635 q 23 617 22 621 q 22 604 24 613 q 27 603 26 604 q 32 603 28 603 q 74 599 53 601 q 114 588 96 596 l 115 585 q 134 544 129 565 q 139 500 139 522 l 139 483 q 138 394 139 439 q 136 304 136 349 q 138 231 136 268 q 139 158 139 194 l 139 147 q 140 133 139 140 q 140 118 140 125 q 129 68 140 89 l 126 65 q 53 51 94 51 q 33 51 38 51 q 24 53 29 51 q 25 39 25 44 q 26 26 25 35 q 28 13 28 19 q 29 0 28 7 q 85 -2 57 -1 q 140 -6 113 -3 m 24 0 l 29 -6 l 29 0 l 24 0 z "},"n":{"ha":849,"x_min":6,"x_max":807,"o":"m 382 43 q 360 41 371 42 q 343 40 350 40 q 315 41 328 40 q 290 49 303 42 l 288 50 q 262 92 268 68 q 256 143 256 117 l 256 153 q 256 193 256 172 q 254 235 256 214 q 253 272 253 254 q 253 310 253 290 l 253 342 q 252 353 253 349 q 251 365 251 358 q 263 449 251 407 q 297 527 274 492 q 353 586 319 563 q 432 614 388 610 q 444 615 438 615 q 458 615 451 615 q 517 602 489 615 q 564 561 544 589 l 565 560 q 588 486 579 524 q 596 408 596 449 l 596 172 q 593 123 596 149 q 572 79 590 97 l 571 78 q 519 60 544 65 q 467 53 493 56 l 467 -1 q 642 14 551 14 l 658 14 q 734 10 699 14 q 803 1 769 7 q 803 14 804 10 q 804 26 803 18 q 806 43 806 35 q 807 56 807 51 l 786 58 q 759 63 772 61 q 731 74 746 65 l 729 74 q 705 113 711 90 q 699 158 699 135 q 699 167 699 163 q 700 176 700 172 q 702 256 701 217 q 703 335 703 294 q 702 391 703 363 q 701 447 701 419 q 692 534 700 492 q 661 611 685 576 q 593 670 635 650 q 506 690 551 690 q 485 689 492 690 l 483 689 q 414 676 447 689 q 351 644 381 664 q 297 597 322 624 q 254 540 272 569 l 243 543 q 241 600 242 574 q 240 656 240 626 q 188 651 213 653 q 138 649 163 649 q 111 649 125 649 q 86 650 99 649 q 64 651 75 650 q 40 653 53 651 q 32 653 35 653 q 24 654 29 654 l 24 651 q 24 639 24 646 q 22 628 24 633 q 21 615 21 621 q 21 604 21 610 q 10 603 6 604 q 26 601 14 603 q 52 599 38 600 q 74 596 67 597 q 90 593 82 594 q 106 590 97 592 l 108 589 q 141 548 132 574 q 150 497 150 522 l 150 481 q 149 388 150 435 q 149 292 149 340 q 149 223 149 257 q 150 154 150 189 l 150 124 q 147 89 150 106 q 128 60 143 72 l 125 58 q 89 50 108 53 q 77 51 86 50 q 58 52 68 51 q 37 53 47 53 q 22 54 26 54 q 23 40 24 46 q 24 26 22 35 q 26 10 25 18 q 26 0 26 3 q 119 -8 75 -6 q 206 -11 163 -10 q 251 -13 229 -12 q 297 -14 274 -14 q 340 -13 321 -14 q 382 -11 358 -12 l 382 43 z "},"o":{"ha":756,"x_min":51,"x_max":696,"o":"m 51 326 q 68 191 51 258 q 125 68 85 124 q 213 -5 160 22 q 325 -32 267 -32 q 371 -28 346 -32 q 493 3 433 -19 q 601 71 553 26 q 670 185 646 121 q 694 317 694 250 l 694 329 q 696 343 696 336 q 696 358 696 351 q 675 475 696 417 q 617 580 654 533 q 530 656 581 626 q 419 686 479 686 q 397 685 408 686 q 372 681 385 683 q 243 646 307 669 q 135 575 179 622 q 70 463 89 526 q 51 333 51 399 l 51 326 m 579 306 q 567 211 579 260 q 528 122 554 163 q 464 56 503 82 q 374 26 425 29 q 339 22 354 22 q 263 43 299 22 q 210 99 228 64 q 174 203 183 149 q 165 313 165 258 q 164 331 164 322 q 164 349 164 339 q 176 442 164 394 q 215 530 189 490 q 278 596 240 569 q 368 625 317 622 q 383 627 375 626 q 400 628 390 628 q 480 603 446 628 q 535 541 514 579 q 568 457 557 503 q 579 369 579 411 q 579 353 579 360 q 578 339 579 346 q 579 324 579 332 q 579 306 579 315 m 578 340 l 578 339 l 578 338 l 578 340 z "},"p":{"ha":810,"x_min":6,"x_max":751,"o":"m 224 547 q 222 568 222 558 q 222 589 222 578 l 222 647 q 181 643 203 644 q 135 642 160 642 q 103 641 119 642 q 71 643 86 640 l 36 647 q 20 649 28 649 q 8 650 13 650 q 6 624 7 635 q 6 600 6 614 q 44 593 22 597 q 90 583 67 589 l 92 583 q 125 544 117 568 q 133 493 133 521 l 133 476 q 132 345 133 410 q 131 215 131 281 q 133 33 131 124 q 135 -149 135 -57 l 135 -179 q 131 -213 135 -197 q 115 -240 128 -229 l 113 -242 q 65 -249 93 -249 q 14 -243 31 -249 l 14 -268 q 15 -278 14 -271 q 17 -294 15 -286 q 104 -308 61 -303 q 189 -312 147 -312 q 208 -314 199 -312 q 228 -315 218 -315 q 302 -312 264 -315 q 379 -301 340 -308 l 379 -247 q 349 -253 364 -250 q 314 -256 333 -256 q 300 -256 307 -256 q 288 -254 294 -256 q 249 -215 260 -243 q 239 -158 239 -186 l 239 -37 q 239 18 239 -10 q 238 76 239 47 l 247 79 q 333 8 279 29 q 444 -14 386 -14 q 461 -14 453 -14 q 479 -12 471 -14 l 485 -12 q 591 13 542 -12 q 676 79 640 38 q 731 174 711 121 q 751 281 751 226 q 751 297 751 289 q 750 315 751 306 q 751 327 750 322 q 751 339 751 332 q 733 460 751 399 q 678 574 714 522 q 592 658 643 625 q 475 690 540 690 q 463 690 468 690 q 451 689 458 690 l 450 689 q 327 640 382 682 q 235 544 272 599 l 224 547 m 228 318 q 226 332 226 325 q 226 347 226 339 q 238 438 226 392 q 272 523 249 485 q 331 588 296 561 q 417 621 367 615 q 431 622 424 622 q 444 622 438 622 q 531 596 494 622 q 590 529 567 569 q 624 440 613 489 q 635 347 635 392 q 634 336 635 340 q 633 326 633 332 q 635 313 635 319 q 635 299 635 306 q 622 214 635 257 q 585 137 610 171 q 525 80 561 103 q 443 56 489 57 q 403 51 424 51 q 328 73 361 51 q 272 128 294 94 q 237 204 249 163 q 225 286 225 246 q 226 301 225 293 q 228 318 226 308 z "},"q":{"ha":810,"x_min":44,"x_max":785,"o":"m 567 581 l 557 578 q 482 647 529 622 q 382 672 435 672 q 343 668 364 672 q 227 640 285 660 q 129 576 169 619 q 67 455 88 522 q 47 321 47 388 l 47 314 q 44 296 44 304 q 44 279 44 288 q 60 168 44 225 q 108 65 76 111 q 185 -10 139 19 q 290 -40 231 -40 q 311 -39 304 -40 l 313 -39 q 383 -26 349 -39 q 446 7 417 -14 q 501 55 475 28 q 546 111 526 82 l 556 108 q 556 -3 556 51 q 554 -115 556 -58 q 552 -163 554 -139 q 535 -210 550 -187 l 533 -211 q 482 -236 508 -229 q 429 -249 456 -243 q 423 -249 425 -250 q 415 -250 421 -249 l 415 -304 q 601 -276 507 -279 q 692 -278 647 -275 q 775 -289 736 -282 q 776 -282 775 -283 q 776 -275 776 -281 q 777 -258 776 -268 q 779 -237 778 -249 q 776 -237 776 -237 q 772 -236 775 -236 q 765 -235 769 -236 q 758 -235 761 -235 q 722 -229 739 -232 q 688 -219 706 -226 l 685 -218 q 660 -176 665 -200 q 654 -126 654 -151 l 654 -112 q 656 27 654 -42 q 657 165 657 96 q 656 335 657 250 q 654 504 656 419 q 653 518 654 511 q 653 532 653 525 q 656 568 653 551 q 672 600 660 585 l 675 601 q 701 607 688 606 q 728 608 714 608 q 785 601 760 608 q 784 626 785 617 q 782 651 783 636 q 760 656 772 654 q 736 661 749 658 q 725 663 731 663 q 715 664 721 663 l 651 672 q 609 678 628 675 q 567 683 590 681 l 567 581 m 563 326 q 549 228 563 278 q 510 138 536 179 q 445 68 485 96 q 354 35 406 40 q 340 33 347 33 q 329 33 335 33 q 253 55 285 33 q 199 110 221 76 q 167 186 178 144 q 157 267 157 228 q 157 279 157 274 q 158 293 157 286 q 157 307 157 300 q 157 321 157 314 q 171 419 157 369 q 212 509 185 468 q 279 577 239 550 q 374 607 319 604 q 389 610 382 610 q 406 610 397 610 q 476 588 447 610 q 525 533 506 567 q 553 460 544 500 q 563 382 563 419 q 563 364 563 372 q 561 350 563 357 q 562 338 561 343 q 563 326 563 332 z "},"r":{"ha":611,"x_min":18,"x_max":593,"o":"m 335 54 q 314 55 324 54 q 296 58 304 56 l 293 60 q 270 99 276 78 q 264 144 264 121 l 264 158 q 263 231 264 194 q 263 304 263 268 q 268 395 263 346 q 292 488 274 444 q 341 564 310 532 q 425 603 372 596 l 433 603 q 467 594 453 603 q 493 571 482 585 q 511 540 504 557 q 522 508 518 524 q 558 503 543 506 q 593 499 574 501 q 591 579 593 542 q 586 661 589 617 q 540 680 564 672 q 493 688 517 688 l 492 688 q 471 689 485 689 q 406 675 436 689 q 350 639 376 661 q 303 589 324 617 q 267 533 282 561 l 257 536 q 256 569 256 553 q 254 603 256 586 q 252 632 253 619 q 249 661 251 644 q 129 646 192 646 q 111 646 121 646 q 93 647 101 646 q 62 649 79 647 q 25 653 44 650 q 23 627 24 638 q 22 603 22 617 l 25 603 q 28 602 28 603 q 32 601 29 601 q 81 596 57 599 q 126 582 104 593 l 128 581 q 151 534 147 561 q 154 479 154 507 q 153 412 154 446 q 153 344 153 378 q 153 248 153 296 q 156 153 154 200 q 155 113 156 133 q 149 74 154 93 l 147 71 q 113 51 132 56 q 74 46 93 46 q 29 50 51 46 l 26 51 q 22 51 28 49 q 23 45 22 49 q 24 38 24 42 q 24 21 24 31 q 26 0 25 11 q 98 -9 63 -6 q 165 -12 133 -12 q 189 -12 178 -12 q 213 -11 201 -12 q 263 -8 238 -10 q 314 -3 289 -6 q 350 1 333 0 q 386 4 367 3 q 388 31 388 19 q 388 58 388 43 q 335 54 363 54 m 394 60 l 388 65 l 388 58 q 391 59 390 58 q 394 60 392 60 m 22 51 l 22 54 q 21 53 18 54 q 21 51 21 53 q 22 51 21 51 z "},"s":{"ha":638,"x_min":51,"x_max":578,"o":"m 236 -37 q 285 -33 260 -37 q 381 -9 329 -24 q 476 31 432 6 q 549 93 519 56 q 578 186 578 131 l 578 201 q 558 275 578 242 q 506 333 538 308 q 436 372 475 357 q 360 390 397 386 l 358 390 q 347 392 353 392 q 338 393 343 392 q 280 400 310 396 q 224 416 250 404 q 181 448 199 428 q 161 503 164 468 q 180 553 164 532 q 219 590 196 575 q 270 613 243 604 q 322 626 297 622 q 338 629 329 629 q 354 629 347 629 q 399 622 378 629 q 435 593 419 614 l 436 593 q 464 482 463 538 q 499 479 483 481 q 535 475 515 478 q 533 514 533 496 q 533 551 533 532 q 533 603 533 579 q 529 656 532 628 q 381 686 456 686 q 343 685 361 686 q 306 678 325 683 q 221 660 265 672 q 139 627 176 649 q 76 573 101 606 q 51 493 51 540 l 51 482 q 64 419 51 449 q 99 367 76 390 q 149 326 121 343 q 208 301 176 310 q 293 288 251 292 q 355 281 325 285 q 414 260 385 276 q 447 220 439 246 q 456 169 456 194 l 456 168 q 440 109 456 135 q 399 65 424 83 q 343 36 374 47 q 285 21 313 25 q 271 19 278 19 q 257 19 265 19 q 207 26 231 19 q 164 53 183 33 l 164 54 q 135 117 143 83 q 126 188 126 151 l 126 200 q 126 199 126 201 q 125 197 125 196 q 92 201 110 199 q 56 208 75 204 q 58 108 57 156 q 61 8 58 61 q 146 -25 101 -12 q 236 -37 190 -37 m 58 10 l 61 6 l 61 8 q 58 10 58 8 z "},"t":{"ha":540,"x_min":3,"x_max":483,"o":"m 122 586 l 128 581 q 126 465 126 524 q 126 350 126 408 q 126 265 126 308 q 128 182 126 224 q 133 103 129 142 q 156 28 136 65 q 197 -12 171 0 q 251 -25 224 -25 q 294 -18 271 -25 l 315 -14 q 368 -1 343 -8 q 415 24 393 7 l 417 24 q 466 83 450 46 q 482 160 482 121 l 482 164 q 483 170 482 168 q 483 175 483 172 l 483 181 q 447 188 464 186 q 411 192 429 189 l 411 178 q 406 134 411 157 q 390 92 401 111 q 363 61 379 74 q 321 47 346 49 q 313 45 317 46 q 304 44 310 44 q 270 56 286 44 q 247 83 254 68 l 247 85 q 238 133 240 113 q 236 176 236 154 l 236 199 q 237 248 236 224 q 238 299 238 272 q 238 347 238 324 q 236 397 238 371 q 235 496 235 446 q 235 594 235 546 l 239 600 q 358 618 293 618 q 389 617 372 618 q 424 613 406 615 q 424 639 424 628 q 422 667 424 651 q 356 671 386 671 q 299 667 328 671 q 242 656 271 664 l 235 661 l 235 853 q 198 846 213 849 q 163 840 183 843 q 164 828 164 835 q 164 817 164 821 q 154 758 164 788 q 127 703 144 728 q 84 664 110 679 q 28 649 58 649 q 4 651 18 649 q 3 642 4 644 q 3 633 3 640 l 3 597 q 107 586 54 586 l 122 586 m 163 840 l 163 842 l 163 840 z "},"u":{"ha":849,"x_min":22,"x_max":813,"o":"m 453 610 q 471 612 463 611 q 485 613 479 613 q 544 604 515 613 l 547 603 q 572 558 565 583 q 578 510 578 533 l 578 501 q 578 406 578 454 q 579 311 579 358 q 580 301 579 306 q 581 290 581 296 q 569 206 581 249 q 535 128 558 164 q 478 67 513 92 q 400 39 444 43 q 386 38 393 38 q 374 38 381 38 q 313 50 342 38 q 267 93 283 63 q 240 167 247 129 q 232 243 232 204 l 232 258 q 233 457 232 358 q 238 656 235 556 q 184 650 211 653 q 133 647 157 647 q 111 648 122 647 q 89 650 100 649 q 72 652 81 651 q 56 653 64 653 q 42 653 49 653 q 26 654 35 653 q 24 633 25 643 q 24 617 24 624 q 23 608 24 611 q 22 600 22 606 q 29 599 26 599 q 36 599 32 600 q 67 594 51 596 q 96 582 82 592 l 97 582 q 122 542 115 564 q 128 497 128 521 q 127 488 128 493 q 126 478 126 482 q 125 400 125 439 q 125 322 125 361 q 125 264 125 293 q 126 207 125 236 q 135 122 128 165 q 167 42 143 78 q 235 -17 192 3 q 322 -36 278 -36 q 343 -35 336 -36 l 344 -35 q 478 9 418 -35 q 576 113 538 53 l 586 110 q 588 54 588 81 q 588 -1 588 28 q 639 3 611 1 q 699 6 667 6 q 721 6 710 6 q 743 4 732 6 q 767 2 754 3 q 790 1 779 1 q 799 1 797 1 q 808 0 801 0 q 810 19 810 11 q 811 35 811 28 q 812 42 811 40 q 813 51 813 44 q 771 57 793 54 q 725 65 749 60 l 724 65 q 690 105 699 79 q 682 158 682 131 l 682 175 q 683 249 682 213 q 683 324 683 286 q 681 500 683 414 q 674 678 679 586 q 595 675 633 676 q 517 671 557 674 q 497 669 507 671 q 475 667 486 668 q 462 665 468 665 q 451 664 456 664 q 452 651 451 656 q 453 638 453 646 l 453 610 z "},"v":{"ha":810,"x_min":14,"x_max":768,"o":"m 546 206 q 600 338 574 272 q 650 472 626 404 q 666 515 657 492 q 688 556 675 538 q 720 588 701 575 q 764 600 739 600 l 768 600 q 767 613 767 608 q 767 626 768 618 q 765 640 765 635 q 764 654 765 646 q 737 656 749 656 q 710 658 725 657 q 664 661 686 660 q 618 665 642 663 l 593 665 q 564 665 578 665 q 536 667 550 665 q 503 668 517 668 q 472 668 490 668 l 472 613 q 473 613 475 613 q 474 614 471 614 l 494 614 q 523 613 508 614 q 550 608 538 613 q 572 592 563 603 q 583 564 581 582 l 583 563 q 580 535 583 547 q 572 510 576 522 q 569 502 571 506 q 567 494 568 499 q 515 354 542 424 q 463 214 489 285 q 437 144 450 179 q 410 75 424 110 l 399 75 q 365 158 382 118 q 329 240 347 199 q 286 346 307 294 q 244 453 265 397 q 224 498 232 475 q 217 546 217 521 l 217 547 q 252 588 226 581 q 306 596 278 594 q 320 597 310 596 q 342 601 331 599 l 342 654 q 271 644 306 647 q 193 640 236 640 l 158 640 q 86 643 121 640 q 19 651 51 646 q 19 642 19 649 q 17 626 18 635 q 15 613 15 618 q 14 600 15 608 q 56 583 39 597 q 86 550 74 569 q 108 507 99 531 q 125 463 117 483 q 212 247 165 353 q 304 32 258 140 l 304 31 q 317 2 311 15 q 329 -26 322 -11 q 368 -23 350 -25 q 406 -18 386 -21 q 433 -14 419 -15 q 461 -11 447 -12 q 502 99 481 44 q 546 206 524 153 m 342 599 q 360 604 364 604 q 342 601 356 604 l 342 599 m 460 -15 l 465 -11 l 461 -11 q 460 -15 460 -12 z "},"w":{"ha":1214,"x_min":7,"x_max":1181,"o":"m 490 256 q 542 410 517 333 q 592 565 568 486 l 603 565 q 635 463 618 514 q 671 360 653 413 q 730 176 701 267 q 783 -8 758 86 q 815 -8 801 -8 q 846 -7 829 -7 q 876 -7 863 -7 q 906 -6 890 -7 q 990 231 950 114 q 1065 469 1029 347 q 1078 515 1069 492 q 1100 556 1086 538 q 1134 588 1114 575 q 1179 600 1154 600 l 1181 600 q 1178 627 1179 614 q 1175 653 1178 640 q 1106 656 1139 654 q 1036 661 1072 658 l 1022 661 q 954 665 988 661 q 886 671 921 668 q 888 642 888 654 q 889 615 889 631 l 911 615 q 966 605 939 615 q 1000 561 993 594 l 1000 560 q 996 524 1000 540 q 988 493 992 508 q 942 332 967 411 q 892 174 917 253 q 876 126 885 150 q 861 78 868 101 l 850 78 q 766 344 810 213 q 678 608 722 475 q 668 637 672 624 q 657 665 664 650 q 606 661 635 665 q 550 656 579 656 q 504 512 528 582 q 456 369 481 442 q 401 213 428 290 q 351 56 375 135 l 340 56 q 281 251 310 153 q 228 449 251 349 q 217 493 222 471 q 211 539 211 515 l 211 540 q 242 581 215 571 q 296 592 268 592 l 321 592 q 322 618 322 608 q 322 646 322 629 q 317 645 318 646 q 311 644 315 644 q 267 640 289 642 q 224 639 246 639 q 199 640 211 639 q 176 642 188 640 q 92 645 133 644 q 17 651 51 646 q 16 644 15 649 q 15 633 17 640 q 13 613 15 629 q 8 583 10 596 q 7 571 7 571 q 13 600 8 571 q 56 586 38 599 q 87 555 74 574 q 108 513 100 536 q 118 467 115 489 q 192 217 153 339 q 276 -31 232 94 q 311 -32 296 -32 q 346 -32 326 -32 q 371 -32 358 -32 q 397 -31 385 -32 q 443 112 419 40 q 490 256 467 183 m 396 -35 l 401 -31 l 397 -31 q 396 -35 396 -32 z "},"x":{"ha":810,"x_min":21,"x_max":768,"o":"m 99 -6 q 132 -7 115 -7 q 167 -10 150 -7 q 256 -14 210 -14 q 285 -14 272 -14 q 315 -15 299 -14 l 315 39 q 311 38 313 39 q 307 38 310 38 q 295 37 301 38 q 282 35 289 36 l 281 35 q 244 40 264 35 q 224 69 224 46 l 224 71 q 232 91 226 82 q 244 108 238 100 q 249 115 246 111 q 253 121 251 118 l 254 122 l 292 169 q 336 224 314 197 q 379 278 358 250 l 388 279 l 443 221 q 471 190 458 206 q 496 158 483 174 q 499 153 499 156 q 503 147 500 150 q 519 124 513 136 q 528 99 525 111 l 528 96 q 501 65 521 71 q 461 57 481 60 q 450 56 456 56 q 440 54 444 56 l 439 54 l 432 53 l 432 -1 q 437 -1 436 0 q 442 0 438 -1 q 512 10 476 6 q 583 14 547 14 l 597 14 q 764 1 689 14 l 764 3 q 765 20 764 11 q 767 38 765 29 l 767 39 q 768 49 768 46 q 768 54 768 51 q 687 92 724 58 q 622 163 650 125 q 544 256 585 211 q 464 346 504 300 l 464 353 q 502 401 483 378 q 540 449 521 425 q 563 477 551 463 q 586 506 575 492 q 653 572 614 542 q 744 603 693 603 l 749 603 q 746 631 746 618 q 744 658 746 643 l 744 657 l 736 657 q 705 658 721 657 q 674 660 689 658 q 642 663 658 661 q 608 664 625 664 q 560 665 583 664 q 513 667 536 665 q 492 667 501 667 q 471 668 482 668 l 471 613 l 481 613 q 519 608 500 613 q 543 581 538 604 l 543 578 q 533 553 540 565 q 517 529 525 540 l 465 461 q 440 426 453 444 q 413 392 428 408 l 404 392 q 359 442 381 417 q 314 494 338 467 q 310 499 311 497 q 307 503 310 500 q 287 528 296 515 q 276 560 278 542 q 300 591 279 583 q 340 601 321 599 q 350 601 344 601 q 363 603 356 601 l 363 657 q 203 642 286 642 l 176 642 q 105 644 139 642 q 39 651 71 646 l 39 650 q 38 631 39 640 q 36 614 38 622 l 36 613 q 35 597 35 606 q 113 563 75 588 q 176 501 150 538 q 223 444 196 475 q 278 381 250 414 q 301 354 289 367 q 324 328 313 342 l 324 321 q 251 228 288 271 q 213 183 232 204 q 176 138 194 161 q 117 78 151 104 q 39 51 82 51 q 21 53 25 51 q 23 31 22 42 q 24 15 24 21 q 25 -1 24 4 q 63 -4 46 -4 q 99 -6 81 -4 m 21 0 l 25 -6 l 25 -1 q 23 -1 24 -1 q 21 0 22 0 z "},"y":{"ha":778,"x_min":14,"x_max":742,"o":"m 644 663 q 619 666 632 664 q 594 668 607 668 q 565 669 579 669 q 536 669 551 668 q 512 670 524 669 q 488 671 500 671 q 468 671 478 671 q 446 669 458 671 q 446 642 446 653 q 447 615 446 632 q 450 615 450 615 q 453 617 450 617 q 468 618 460 618 q 486 618 476 618 q 531 611 511 618 q 558 576 551 604 l 558 575 q 553 535 558 554 q 540 497 547 515 q 469 320 504 408 q 399 142 435 232 l 388 140 q 314 303 351 219 q 242 467 276 388 q 226 500 233 482 q 219 540 219 518 l 219 542 q 251 580 228 571 q 299 593 275 589 q 312 595 306 594 q 325 599 318 596 l 331 600 l 331 653 q 258 640 294 644 q 182 635 222 635 l 165 635 q 88 639 125 635 q 17 650 51 643 l 17 625 q 16 615 17 622 q 14 599 15 607 q 58 582 39 596 q 90 548 76 568 q 113 504 103 528 q 131 460 122 481 q 221 244 172 350 q 319 31 269 138 q 328 11 324 21 q 338 -8 333 1 l 338 -12 q 310 -87 324 -50 q 281 -161 296 -125 q 238 -230 274 -203 q 161 -257 203 -257 q 148 -256 154 -257 q 135 -254 142 -256 l 132 -254 q 133 -269 132 -264 q 133 -283 133 -274 l 133 -315 q 154 -317 144 -317 q 172 -317 164 -317 q 207 -316 190 -317 q 243 -314 224 -315 q 271 -312 258 -312 q 299 -311 283 -311 q 313 -308 306 -310 q 328 -306 319 -307 q 399 -296 364 -300 q 465 -289 435 -292 q 467 -272 467 -281 q 467 -258 467 -265 l 467 -228 l 460 -229 l 447 -229 q 435 -231 440 -229 q 419 -233 428 -232 q 401 -233 411 -233 q 374 -228 386 -233 q 360 -204 363 -222 l 360 -203 q 379 -118 364 -160 q 497 181 438 33 q 615 478 557 328 q 632 517 622 496 q 654 558 642 539 q 685 589 667 576 q 726 601 703 601 q 740 600 736 601 l 740 625 q 740 638 740 632 q 738 651 739 644 q 691 657 714 654 q 644 663 668 660 m 742 651 l 738 656 l 738 651 l 742 651 z "},"z":{"ha":708,"x_min":64,"x_max":631,"o":"m 199 -18 q 280 -14 239 -18 q 363 -4 321 -10 q 444 5 403 1 q 526 8 486 8 q 578 7 554 8 q 624 1 601 6 q 624 24 624 15 q 626 49 625 33 q 631 210 631 132 q 603 213 615 213 q 576 217 592 214 l 575 217 q 564 217 568 218 q 553 218 560 217 l 553 196 q 551 148 553 172 q 539 100 549 124 l 538 99 q 489 74 517 78 q 433 67 461 69 q 396 63 414 65 q 358 57 378 60 q 285 48 321 51 q 211 44 250 44 l 185 44 l 181 54 q 263 153 222 103 q 344 257 304 204 q 478 426 411 343 q 617 581 544 510 q 617 599 617 590 q 615 619 617 608 q 614 639 614 631 q 614 657 614 647 q 490 671 558 671 q 410 667 450 671 q 329 658 369 663 q 249 649 289 653 q 167 644 208 644 q 126 646 146 644 q 90 650 106 647 q 90 630 90 642 q 88 606 89 618 q 84 528 85 565 q 83 451 83 492 q 99 449 85 451 q 158 444 133 444 l 158 457 q 160 509 158 483 q 172 557 163 535 l 174 558 q 223 588 196 581 q 279 597 250 594 q 309 600 294 599 q 339 604 324 601 q 398 612 368 608 q 458 615 428 615 q 475 615 467 615 q 492 614 483 615 l 496 604 q 430 524 463 564 q 365 443 397 485 q 217 259 292 350 q 64 90 143 168 q 65 69 64 81 q 67 44 65 57 q 68 21 68 32 q 68 -1 68 10 q 199 -18 135 -18 m 64 0 l 68 -6 l 68 -1 q 64 0 65 -1 z "},"{":{"ha":711,"x_min":115,"x_max":578,"o":"m 571 1028 q 530 1041 550 1036 q 488 1046 510 1046 q 435 1038 461 1046 q 390 1011 410 1029 q 331 910 349 967 q 314 794 314 853 l 314 621 q 308 547 314 583 q 278 479 301 511 l 278 478 q 224 444 254 457 q 161 432 193 432 q 135 434 146 432 q 115 439 125 436 l 115 411 q 149 397 139 400 q 174 388 160 393 q 212 372 193 379 q 251 351 231 365 q 306 278 293 324 q 318 189 318 233 l 318 42 q 324 -42 318 1 q 358 -115 329 -85 q 423 -137 390 -132 q 488 -149 456 -143 q 532 -155 511 -151 q 575 -165 553 -158 q 576 -160 575 -162 q 576 -156 576 -158 l 576 -142 q 560 -137 568 -139 q 539 -132 553 -135 q 495 -120 517 -126 q 453 -99 474 -114 l 451 -99 q 415 -37 424 -71 q 407 31 407 -4 l 407 110 q 408 129 407 119 q 408 149 408 139 q 408 163 408 156 q 407 178 407 171 q 402 254 406 217 q 379 332 399 292 q 324 369 360 358 q 249 389 288 381 q 227 394 238 392 q 206 399 217 396 l 207 410 q 297 443 258 415 q 360 511 335 471 q 397 600 385 551 q 410 696 410 649 q 409 717 410 707 q 407 739 408 728 q 406 788 406 763 q 406 838 406 813 q 409 907 406 872 q 429 972 413 942 l 431 972 q 470 1006 447 996 q 518 1015 493 1015 q 576 1004 554 1015 l 576 1013 q 576 1019 576 1015 q 575 1026 575 1022 l 574 1028 l 571 1028 m 575 -167 l 578 -167 q 576 -165 576 -167 q 575 -165 576 -165 l 575 -167 m 576 1025 l 575 1029 l 575 1026 l 576 1025 z "},"|":{"ha":790,"x_min":335,"x_max":435,"o":"m 344 364 q 345 14 344 188 q 346 -336 346 -160 l 346 -337 l 347 -340 q 358 -358 353 -350 q 371 -367 363 -367 q 378 -358 375 -364 q 386 -346 382 -353 l 404 -321 l 411 -318 q 422 -322 418 -321 q 432 -326 426 -324 q 434 19 433 -150 q 435 364 435 188 q 434 713 435 540 q 432 1061 433 885 q 422 1079 428 1069 q 406 1090 417 1089 q 395 1076 403 1086 q 382 1058 388 1065 l 374 1046 l 365 1043 q 358 1046 363 1044 q 351 1049 354 1047 q 348 1049 349 1049 q 346 1050 347 1050 q 344 707 344 876 q 344 364 344 538 m 346 1063 l 335 1058 q 346 1050 340 1053 l 346 1063 m 406 1090 q 404 1090 408 1093 l 406 1090 z "},"}":{"ha":711,"x_min":122,"x_max":585,"o":"m 122 999 q 139 993 129 996 q 158 988 149 990 q 203 974 181 981 q 246 953 226 968 l 247 953 q 285 883 275 922 q 293 804 294 844 q 292 754 293 779 q 292 704 292 729 q 296 615 292 660 q 322 521 300 569 q 376 483 342 494 q 446 465 410 472 q 470 460 458 463 q 494 454 482 457 l 493 443 q 403 410 442 438 q 340 342 365 382 q 301 254 314 303 q 289 158 289 206 q 290 138 289 147 q 292 117 290 128 l 292 15 q 289 -53 292 -18 q 271 -118 286 -87 l 269 -118 q 179 -161 235 -161 q 122 -147 146 -161 q 122 -151 122 -151 q 124 -156 124 -151 l 124 -169 q 125 -169 125 -171 q 126 -171 125 -169 l 125 -171 l 128 -172 q 167 -187 147 -182 q 211 -193 188 -193 q 260 -185 236 -193 q 303 -161 285 -178 q 366 -63 347 -121 q 385 53 385 -6 l 385 215 q 391 297 385 256 q 424 374 397 339 l 424 375 q 477 411 447 400 q 539 422 507 422 q 563 421 553 422 q 585 417 574 419 l 585 446 q 531 467 556 458 q 485 483 507 475 q 440 507 464 492 l 439 507 q 397 571 410 535 q 383 646 383 607 l 383 810 q 383 819 383 814 q 382 828 382 824 q 374 907 381 868 q 336 971 368 946 q 274 993 304 986 q 211 1006 243 1000 q 167 1012 189 1008 q 124 1022 146 1015 l 124 1013 q 123 1006 124 1008 q 122 999 122 1003 m 124 1024 l 122 1024 q 123 1023 124 1024 q 124 1022 122 1022 l 124 1024 z "},"~":{"ha":1171,"x_min":107,"x_max":1056,"o":"m 788 422 l 781 422 q 697 433 736 422 q 618 458 658 444 q 582 472 601 465 q 569 476 575 475 q 557 479 564 476 q 474 504 515 493 q 389 515 432 515 l 376 515 q 234 487 301 515 q 107 417 167 458 q 108 411 107 413 q 108 407 108 410 q 113 369 111 388 q 119 335 114 350 q 235 409 172 379 q 371 440 299 439 q 491 424 433 442 q 607 386 549 406 q 629 379 618 383 q 651 372 640 375 q 667 369 660 369 q 681 365 674 368 q 727 353 704 358 q 774 349 750 349 l 782 349 q 925 378 856 349 q 1056 447 994 407 q 1051 486 1053 467 q 1042 526 1049 506 q 922 451 988 481 q 788 422 857 422 m 1049 532 l 1039 535 q 1040 531 1040 532 q 1042 526 1040 529 q 1044 528 1043 528 q 1049 532 1046 529 z "},"‚":{"ha":410,"x_min":92,"x_max":285,"o":"m 190 -94 q 221 -24 206 -58 q 251 46 236 11 q 257 54 254 49 q 265 68 260 60 q 278 96 272 82 q 285 126 285 110 q 261 154 278 144 q 225 164 244 164 q 176 148 194 164 q 148 108 158 132 q 133 56 138 83 q 125 7 128 29 l 125 6 q 119 -40 122 -18 q 111 -85 115 -61 q 99 -141 104 -115 q 92 -197 94 -167 q 110 -201 100 -200 q 131 -204 119 -203 q 142 -206 138 -204 q 166 -150 154 -178 q 190 -94 178 -122 m 140 -210 l 146 -206 l 142 -206 q 140 -210 140 -206 z "},"ƒ":{"ha":785,"x_min":14,"x_max":731,"o":"m 335 435 q 317 335 326 386 q 301 236 308 285 q 286 136 293 186 q 271 36 279 86 l 267 11 q 262 -6 264 3 q 257 -26 260 -15 q 244 -74 251 -50 q 224 -118 236 -99 q 194 -151 213 -137 q 147 -164 175 -164 q 120 -154 131 -162 q 103 -133 110 -146 q 95 -107 97 -121 q 93 -81 93 -93 l 93 -68 q 85 -67 88 -67 q 78 -67 83 -68 q 53 -62 65 -64 q 29 -57 40 -60 q 24 -97 26 -79 q 19 -135 22 -114 q 17 -156 18 -146 q 14 -176 15 -165 q 110 -215 53 -204 q 126 -219 118 -218 q 143 -221 135 -221 q 220 -202 183 -221 q 283 -154 257 -183 q 326 -89 310 -124 q 354 -17 343 -54 q 372 60 365 21 q 386 138 379 99 q 391 168 389 153 q 396 199 393 183 q 408 264 403 232 q 418 328 413 296 q 439 457 428 394 l 443 461 q 557 469 497 469 q 585 469 572 469 q 614 467 599 468 q 617 479 615 474 q 619 492 618 485 q 623 513 622 507 q 625 524 624 519 q 590 526 606 525 q 554 526 574 526 q 506 525 531 526 q 458 521 482 524 l 451 526 q 457 560 454 544 q 463 592 460 576 q 466 608 465 601 q 468 622 467 615 l 468 624 q 477 678 472 651 q 486 733 482 706 q 490 756 489 744 q 494 778 492 767 q 496 783 496 781 q 497 790 496 788 q 507 826 501 807 q 523 860 513 844 q 548 886 533 876 q 586 896 563 896 q 633 869 618 896 q 649 815 649 843 l 649 808 q 649 804 649 806 q 650 800 650 803 l 650 797 q 682 792 665 794 q 715 785 699 790 q 717 808 717 796 q 719 824 718 821 q 726 869 722 846 q 731 906 731 893 q 684 931 708 921 q 632 943 660 940 l 631 943 q 593 947 610 947 q 496 917 538 947 q 426 840 454 886 q 383 738 397 793 q 368 636 368 683 l 368 635 q 363 603 365 619 q 358 571 361 586 q 353 540 356 556 q 347 506 350 524 l 343 501 q 256 490 299 494 q 172 485 214 485 q 171 474 171 478 q 169 463 171 469 q 167 442 168 450 q 164 428 165 435 l 178 428 q 253 431 215 428 q 328 442 290 435 l 335 435 z "},"„":{"ha":554,"x_min":89,"x_max":519,"o":"m 488 43 q 509 80 499 60 q 519 122 519 100 q 498 151 517 143 q 460 163 479 160 l 458 163 q 442 164 451 164 q 410 153 422 164 q 389 126 397 143 q 374 90 381 110 q 364 51 368 69 q 359 33 361 42 q 354 17 357 25 q 336 -40 344 -11 q 318 -97 328 -68 q 301 -151 308 -126 q 285 -203 294 -175 q 293 -202 286 -203 q 307 -200 300 -201 q 321 -199 314 -199 q 335 -197 328 -199 q 409 -76 371 -136 q 488 43 447 -17 m 194 -68 q 217 -17 206 -42 q 240 36 229 8 q 248 52 246 49 q 253 61 250 56 q 267 97 261 81 q 275 128 274 113 q 256 148 269 143 q 225 153 242 153 l 218 153 q 175 144 197 153 q 142 111 153 136 q 126 62 132 88 q 117 8 121 36 q 99 -100 107 -47 q 89 -196 92 -153 q 97 -197 92 -196 q 110 -199 103 -197 q 122 -199 114 -199 q 138 -200 131 -200 q 165 -134 151 -167 q 194 -68 179 -101 m 136 -206 l 142 -203 q 147 -202 150 -203 q 138 -200 144 -201 q 137 -203 138 -201 q 136 -206 136 -204 m 333 -200 l 336 -197 l 335 -197 q 333 -200 333 -197 z "},"…":{"ha":1403,"x_min":139,"x_max":1254,"o":"m 622 71 l 622 57 q 642 3 622 28 q 690 -21 663 -21 l 699 -21 q 749 3 728 -21 q 771 60 771 28 l 771 75 q 750 130 771 106 q 700 154 729 154 l 690 154 q 641 128 660 154 q 622 71 622 103 m 1106 69 l 1106 63 q 1118 8 1106 35 q 1158 -18 1131 -18 l 1167 -18 q 1226 4 1199 -18 q 1254 61 1254 26 l 1254 68 q 1226 129 1254 104 q 1164 154 1197 154 l 1156 154 q 1117 131 1131 154 q 1104 83 1104 108 q 1105 76 1104 81 q 1106 69 1106 72 m 139 71 l 139 64 q 166 5 139 31 q 225 -21 193 -21 l 231 -21 q 269 2 256 -21 q 283 50 283 25 q 283 56 283 53 q 282 63 282 60 l 282 67 q 278 95 282 81 q 268 122 275 110 q 251 143 261 135 q 228 151 242 151 l 224 151 q 165 128 192 151 q 139 71 139 104 z "},"†":{"ha":710,"x_min":86,"x_max":614,"o":"m 358 -7 q 377 -3 369 -4 q 394 0 385 -3 q 395 80 394 40 q 396 160 396 119 q 397 332 397 247 q 397 504 397 417 l 397 647 l 403 654 q 474 658 438 658 q 614 640 551 658 l 614 653 q 613 669 614 663 l 613 671 q 611 688 611 681 q 611 701 611 694 q 543 715 579 710 q 471 719 507 719 q 401 715 435 719 l 396 721 l 396 825 q 395 874 396 851 q 394 922 394 897 q 381 919 386 919 q 365 917 375 919 q 333 911 347 914 q 303 904 319 908 l 303 804 q 303 751 303 778 q 301 700 303 726 l 296 694 q 199 686 250 686 q 86 699 138 686 l 86 638 q 208 625 144 625 q 251 626 229 625 q 293 632 272 628 l 301 626 q 301 303 301 463 q 303 -19 301 143 q 330 -13 317 -17 q 358 -7 343 -10 m 294 -21 l 303 -26 l 303 -19 q 294 -21 300 -21 z "},"‡":{"ha":710,"x_min":86,"x_max":614,"o":"m 396 93 l 396 189 l 400 194 q 449 199 425 197 q 500 200 474 200 q 558 198 529 200 q 611 190 586 196 q 611 203 611 197 q 613 219 611 210 l 613 221 q 614 238 614 228 l 614 249 q 489 261 551 261 q 448 260 469 261 q 404 256 426 258 l 397 261 l 397 671 l 403 676 q 478 681 440 681 q 613 664 550 681 q 612 674 613 671 q 611 685 611 678 l 611 724 q 543 737 579 732 q 471 742 507 742 q 401 738 435 742 l 396 743 q 394 832 394 790 q 394 922 394 875 q 381 919 386 919 q 365 917 375 919 q 333 911 347 914 q 303 904 319 908 l 303 722 l 299 717 q 200 708 250 708 q 88 721 139 708 q 86 697 86 707 q 86 675 86 689 l 86 661 q 146 651 115 654 q 208 647 176 647 q 293 656 251 647 l 301 650 l 301 239 l 296 233 q 262 229 279 231 q 225 228 244 228 q 154 233 189 228 q 86 247 119 239 l 86 236 q 86 211 86 222 q 88 188 86 201 q 153 171 119 176 q 221 165 188 165 q 258 167 240 165 q 294 171 276 168 l 303 165 l 303 -19 q 358 -7 331 -15 q 377 -3 368 -4 q 394 0 386 -3 q 395 47 394 24 q 396 93 396 69 m 394 -4 l 399 1 q 397 1 397 1 q 394 0 396 0 l 394 -4 z "},"ˆ":{"ha":714,"x_min":149,"x_max":544,"o":"m 185 781 q 230 822 208 801 q 275 865 251 843 q 311 900 293 883 q 347 933 329 917 l 354 933 q 442 860 400 897 q 517 789 483 824 l 526 789 q 538 788 533 789 l 544 786 q 497 870 522 831 q 443 950 471 910 q 416 988 429 969 q 390 1026 403 1007 q 351 1024 369 1025 q 313 1021 333 1024 q 283 976 297 997 q 253 933 268 956 q 204 863 228 899 q 157 785 181 828 l 185 781 m 149 786 l 154 776 q 157 785 154 776 l 149 786 z "},"‰":{"ha":1543,"x_min":43,"x_max":1490,"o":"m 810 -29 l 813 -29 q 894 -6 858 -29 q 955 52 931 17 q 992 132 979 88 q 1004 218 1004 176 q 1003 230 1004 225 q 1003 240 1003 235 q 998 322 1003 281 q 974 403 993 364 q 915 467 954 443 q 832 490 876 490 q 824 490 828 490 q 813 489 819 490 l 811 489 q 728 466 764 489 q 669 408 693 443 q 634 328 646 372 q 622 243 622 285 q 622 228 622 236 q 624 214 622 221 l 624 211 q 622 196 622 204 q 622 181 622 189 q 633 107 622 144 q 663 38 643 69 q 713 -13 683 7 q 779 -33 742 -33 q 810 -29 793 -33 m 1285 -14 q 1306 -15 1292 -15 q 1381 5 1347 -15 q 1438 58 1414 25 q 1475 130 1463 90 q 1488 208 1488 169 q 1487 219 1488 214 q 1486 229 1486 224 l 1486 231 q 1490 271 1490 251 q 1478 351 1490 311 q 1442 424 1465 392 q 1385 477 1419 457 q 1308 497 1351 497 l 1299 497 q 1288 499 1292 499 q 1278 499 1283 499 q 1205 478 1236 499 q 1153 424 1174 457 q 1122 351 1132 392 q 1111 274 1111 311 q 1111 258 1111 267 q 1113 244 1111 251 l 1113 243 q 1110 224 1111 233 q 1110 204 1110 215 q 1119 128 1110 167 q 1149 57 1129 89 q 1197 5 1168 25 q 1267 -15 1226 -15 q 1275 -15 1271 -15 q 1283 -14 1279 -14 l 1285 -14 m 221 400 l 228 400 q 239 399 235 399 q 250 399 244 399 q 323 419 292 399 q 375 473 354 440 q 407 546 396 506 q 418 625 418 586 q 418 639 418 632 q 417 654 418 647 l 417 656 q 419 674 418 664 q 419 693 419 683 q 410 769 419 731 q 380 840 400 808 q 330 893 360 872 q 258 914 300 914 q 250 913 254 914 q 242 913 246 913 l 240 913 q 221 914 233 914 q 148 893 181 914 q 92 839 115 872 q 58 765 69 806 q 46 688 46 725 l 46 669 q 44 650 44 660 q 43 629 43 640 q 55 548 43 589 q 89 474 67 507 q 144 421 111 442 q 221 400 178 400 m 810 11 q 753 29 774 11 q 722 75 732 47 q 709 135 711 103 q 707 196 707 167 l 707 231 q 709 297 707 261 q 722 365 711 333 q 753 419 732 396 q 811 447 774 442 l 813 447 q 872 428 851 447 q 903 379 893 408 q 915 316 913 350 q 917 253 917 282 l 917 222 q 915 156 917 192 q 902 90 913 121 q 870 38 892 60 q 811 11 849 15 l 810 11 m 225 442 q 171 463 190 446 q 141 506 151 481 q 128 561 131 531 q 125 621 125 592 l 125 663 q 126 669 125 665 q 126 678 126 674 q 131 740 128 707 q 145 801 135 772 q 177 849 156 829 q 236 869 199 868 q 293 848 274 867 q 322 801 313 829 q 333 742 332 774 q 335 681 335 710 l 335 638 q 332 574 335 608 q 318 511 329 540 q 285 463 307 482 q 225 442 264 443 m 1289 26 q 1238 45 1257 29 q 1210 85 1219 61 q 1197 136 1200 108 q 1194 192 1194 164 l 1194 261 q 1197 324 1194 290 q 1209 388 1199 358 q 1241 436 1219 417 q 1300 456 1263 456 l 1301 456 q 1356 433 1335 451 q 1387 390 1376 415 q 1401 335 1397 365 q 1404 276 1404 306 q 1403 256 1404 265 q 1403 236 1403 246 q 1399 171 1401 207 q 1386 103 1397 135 q 1353 49 1375 71 q 1289 26 1331 28 m 551 438 q 694 685 625 564 q 829 939 763 807 q 799 937 810 938 q 771 933 789 936 q 638 692 707 810 q 500 453 569 574 q 359 207 426 326 q 225 -40 292 88 q 240 -42 232 -42 q 258 -43 249 -43 l 283 -43 q 414 198 346 79 q 551 438 482 317 m 282 -47 l 289 -44 q 286 -44 288 -44 q 283 -43 285 -43 q 283 -45 283 -44 q 282 -47 282 -46 z "},"Š":{"ha":753,"x_min":69,"x_max":696,"o":"m 294 -44 q 344 -40 319 -44 q 462 -9 400 -29 q 576 44 524 11 q 662 125 628 76 q 696 240 696 174 l 696 251 q 678 344 696 300 q 628 419 661 388 q 523 485 582 463 q 403 518 464 508 q 329 535 368 524 q 257 568 290 547 q 202 619 224 589 q 181 692 181 649 l 181 700 q 201 772 181 742 q 251 822 221 801 q 317 856 281 843 q 388 876 354 869 q 426 881 406 881 q 470 875 450 881 q 510 854 490 869 l 513 854 q 556 779 542 821 q 571 696 571 738 q 611 693 592 694 q 649 689 631 692 q 648 788 649 740 q 644 886 647 835 q 556 928 604 913 q 458 944 508 944 q 432 943 446 944 q 404 939 418 942 q 292 910 351 928 q 184 862 233 892 q 102 787 135 832 q 69 678 69 742 l 69 675 q 83 597 69 635 q 122 526 97 558 q 178 471 146 494 q 250 436 211 447 l 251 436 q 306 419 279 425 q 361 407 333 413 q 450 388 406 399 q 531 343 494 376 q 562 293 553 324 q 571 233 571 263 l 571 228 q 550 149 571 183 q 497 90 529 115 q 426 47 465 64 q 347 24 386 31 q 331 22 339 22 q 313 21 322 21 q 253 31 282 21 q 203 64 225 40 l 203 65 q 163 147 175 104 q 147 233 150 189 l 126 238 q 96 243 110 240 q 71 249 82 246 q 73 140 72 190 q 76 31 74 89 q 179 -24 122 -3 q 294 -44 236 -44 m 74 33 l 76 29 l 76 31 q 74 33 74 33 m 314 1072 l 342 1031 q 382 1033 364 1032 q 421 1038 400 1035 l 479 1125 q 528 1199 506 1164 q 575 1274 551 1235 q 569 1274 571 1275 q 563 1275 568 1274 q 546 1276 556 1276 q 520 1253 532 1264 q 493 1228 508 1242 q 440 1178 467 1203 q 385 1125 413 1153 l 378 1125 q 290 1199 329 1163 q 214 1271 250 1235 l 193 1271 l 188 1271 q 250 1166 218 1213 q 314 1072 282 1119 m 183 1282 l 178 1272 q 183 1272 181 1272 q 188 1271 185 1271 q 183 1282 185 1276 z "},"‹":{"ha":403,"x_min":76,"x_max":361,"o":"m 194 318 l 193 322 q 268 499 229 414 q 349 663 307 583 q 320 670 333 667 q 289 674 307 674 l 281 674 q 252 622 265 647 q 224 568 239 596 q 157 444 192 506 q 76 326 122 383 q 151 198 113 257 q 231 81 190 139 q 256 44 243 61 q 282 7 269 26 l 290 7 q 320 6 306 7 q 350 1 335 4 q 278 165 318 86 q 194 318 239 243 m 354 -7 l 361 0 q 356 1 358 0 q 350 1 353 1 l 354 -7 z "},"Œ":{"ha":1440,"x_min":50,"x_max":1361,"o":"m 833 440 l 838 446 q 864 449 851 449 q 892 449 876 449 q 905 449 899 449 q 918 450 911 450 l 950 450 q 993 449 972 450 q 1033 442 1014 449 q 1077 406 1063 432 q 1092 353 1092 381 l 1092 317 l 1107 317 q 1118 317 1114 317 q 1131 315 1124 317 q 1147 314 1140 314 q 1161 314 1154 314 q 1163 368 1163 342 q 1163 424 1163 394 q 1163 503 1163 464 q 1161 582 1163 542 q 1160 613 1161 599 q 1160 646 1160 628 q 1124 648 1139 647 q 1089 649 1110 649 l 1090 640 l 1090 622 q 1091 615 1090 619 q 1092 608 1092 611 q 1081 560 1092 583 q 1044 526 1069 536 l 1043 526 q 982 516 1014 519 q 918 511 950 513 q 900 510 910 510 q 882 510 892 510 q 860 510 871 510 q 839 507 850 510 l 832 513 q 821 604 829 558 q 796 694 813 650 q 753 775 779 738 q 689 842 728 813 l 692 851 q 837 863 765 860 q 982 865 908 865 l 1049 865 q 1111 863 1081 865 q 1171 853 1142 860 q 1224 810 1207 840 q 1242 744 1242 781 l 1242 703 q 1290 699 1268 701 q 1338 693 1311 696 l 1333 763 q 1328 833 1331 799 q 1321 907 1326 867 q 1149 924 1233 918 q 981 929 1065 929 q 802 924 890 929 q 625 908 714 918 q 579 906 601 906 q 533 907 557 907 q 503 906 518 907 q 474 906 489 906 q 313 881 393 903 q 174 801 233 858 q 115 729 139 769 q 77 644 92 689 q 56 553 63 600 q 50 461 50 507 l 50 454 q 70 279 50 367 q 143 121 90 192 q 280 8 197 49 q 453 -32 363 -32 q 467 -31 460 -32 q 481 -31 474 -31 l 493 -31 q 594 -22 542 -31 l 624 -18 l 625 -18 q 852 3 739 -4 q 1081 10 965 10 q 1205 8 1143 10 q 1329 0 1267 6 q 1339 113 1335 60 q 1344 226 1343 167 q 1359 227 1361 226 q 1347 228 1357 228 q 1325 230 1338 229 q 1307 231 1313 231 l 1306 231 q 1260 235 1278 235 l 1260 193 q 1249 133 1260 163 q 1204 96 1238 103 q 1146 87 1175 89 q 1086 85 1117 85 l 1069 85 q 883 81 976 85 q 694 64 789 76 l 689 74 q 799 236 765 140 q 833 433 833 332 l 833 440 m 714 451 q 715 431 715 442 q 715 410 715 421 q 701 281 715 347 q 656 159 688 214 q 575 68 625 104 q 453 32 525 32 l 432 32 q 312 67 363 32 q 228 156 261 101 q 178 275 194 210 q 163 401 163 340 q 162 420 163 411 q 164 439 161 429 q 174 570 167 504 q 210 694 181 636 q 305 796 242 757 q 440 835 368 835 l 454 835 q 566 813 511 835 q 651 738 621 790 q 701 603 688 674 q 714 463 714 533 l 714 451 z "},"‘":{"ha":410,"x_min":115,"x_max":310,"o":"m 226 960 q 188 869 207 915 q 146 778 168 822 q 144 774 144 775 q 142 771 143 774 l 142 769 q 125 733 132 750 q 115 700 118 717 q 136 673 118 682 q 172 664 154 664 l 174 664 q 222 680 203 664 q 251 720 240 696 q 267 772 263 744 q 276 822 272 799 q 288 884 282 854 q 297 946 293 914 q 303 984 300 965 q 310 1022 306 1003 q 290 1026 300 1025 q 269 1029 281 1028 q 264 1028 267 1029 q 258 1029 261 1028 q 242 994 250 1013 q 226 960 233 976 m 260 1033 l 251 1031 q 258 1029 253 1029 q 260 1033 258 1032 z "},"’":{"ha":410,"x_min":92,"x_max":285,"o":"m 186 767 q 217 842 201 804 q 251 915 233 879 q 257 924 254 918 q 265 938 260 929 q 278 965 272 951 q 285 994 283 979 q 261 1022 278 1013 q 225 1031 244 1031 l 224 1031 q 176 1015 194 1031 q 147 975 158 999 q 131 924 136 951 q 125 875 126 897 l 125 874 q 110 792 117 833 q 97 710 103 751 q 94 692 96 699 q 92 674 93 685 q 110 669 100 671 q 131 665 119 668 q 136 665 133 665 q 142 664 139 664 q 164 714 153 689 q 186 767 175 739 m 140 661 l 146 664 l 142 664 q 140 661 140 663 q 140 661 140 661 z "},"“":{"ha":554,"x_min":25,"x_max":456,"o":"m 210 1022 q 157 939 182 978 q 108 859 132 899 q 57 782 83 819 l 57 781 q 53 776 56 779 q 50 772 51 774 q 33 743 40 758 q 25 708 25 728 l 25 707 q 49 678 31 686 q 86 668 67 671 q 103 667 92 667 q 135 676 122 667 q 158 702 149 686 q 172 737 167 718 q 183 775 178 756 q 189 794 186 785 q 194 810 192 803 q 211 866 203 838 q 228 922 219 894 q 243 975 236 950 q 258 1028 250 1000 q 246 1025 260 1028 q 230 1023 238 1024 q 214 1022 222 1022 l 210 1022 m 329 847 q 317 819 322 832 q 306 790 313 806 q 290 760 299 775 q 278 731 283 744 q 271 701 272 717 q 290 681 276 686 q 319 676 304 676 l 326 676 q 370 684 349 676 q 400 714 392 692 q 417 767 411 742 q 428 821 424 793 q 444 927 439 879 q 456 1021 450 975 q 448 1022 453 1021 q 436 1024 443 1022 q 422 1026 429 1025 q 404 1028 414 1026 q 367 936 385 981 q 329 847 349 892 m 407 1031 l 400 1028 l 404 1028 q 404 1028 404 1028 q 407 1031 404 1029 z "},"”":{"ha":554,"x_min":89,"x_max":521,"o":"m 385 751 q 435 831 410 792 q 488 911 460 871 q 509 949 500 929 q 521 989 518 968 q 496 1018 514 1008 q 460 1028 478 1028 l 457 1028 q 443 1029 451 1029 q 410 1019 424 1029 q 388 992 397 1008 q 372 956 378 976 q 361 917 367 936 q 357 901 358 908 q 353 886 356 893 l 322 790 q 303 731 311 758 q 285 669 296 703 q 295 670 292 671 q 307 671 299 669 q 321 673 314 672 q 335 674 328 674 q 358 712 346 693 q 385 751 371 731 m 190 789 q 217 847 204 818 q 240 904 229 875 q 254 933 249 919 q 267 964 261 949 q 275 993 274 979 q 256 1013 269 1008 q 225 1018 242 1018 l 218 1018 q 174 1011 197 1015 q 143 985 151 1007 q 128 931 133 958 q 117 875 122 903 q 100 770 106 818 q 89 675 94 722 q 97 674 92 675 q 110 672 103 674 q 122 671 114 671 q 138 669 131 671 q 163 731 150 701 q 190 789 176 760 m 136 664 l 142 668 q 147 669 150 668 q 138 669 144 669 q 137 667 138 668 q 136 664 136 665 m 333 671 l 338 674 l 335 674 q 333 671 333 672 q 333 671 333 671 z "},"•":{"ha":743,"x_min":254,"x_max":574,"o":"m 254 525 l 254 519 q 265 463 254 490 q 297 414 276 436 q 342 378 317 392 q 397 365 368 365 q 413 367 407 365 l 414 367 q 472 383 443 369 q 524 418 501 397 q 560 466 546 439 q 574 525 574 493 l 574 526 q 562 583 574 556 q 529 633 550 611 q 481 667 508 654 q 425 681 454 681 q 419 680 422 681 q 414 679 417 679 q 356 663 385 675 q 305 630 328 650 q 268 583 282 610 q 254 525 254 556 z "},"–":{"ha":706,"x_min":-10,"x_max":707,"o":"m 143 339 q 376 343 260 339 q 458 344 418 344 q 539 344 499 344 q 618 344 579 344 q 699 343 657 344 q 707 375 707 353 q 705 394 707 385 q 699 411 703 404 q 626 413 661 413 q 551 414 590 414 q 435 413 493 414 q 318 411 376 413 q 236 410 276 410 q 156 410 196 410 q 76 410 115 410 q -4 411 38 410 q -10 378 -10 400 q -3 343 -10 361 q 143 339 69 339 m -7 343 l -1 339 q -3 343 -3 339 l -7 343 z "},"—":{"ha":1400,"x_min":-24,"x_max":1413,"o":"m -24 376 q -8 343 -24 354 q 289 339 142 339 q 753 343 519 339 q 914 344 835 344 q 1076 344 994 344 q 1238 344 1158 344 q 1399 343 1317 344 q 1409 356 1406 347 q 1413 376 1413 365 q 1399 411 1413 401 q 1249 413 1324 413 q 1100 414 1175 414 q 868 413 983 414 q 636 411 753 413 q 474 410 554 410 q 314 410 394 410 q 151 410 232 410 q -8 411 72 410 q -24 376 -24 399 m -10 411 l -8 411 l -10 411 z "},"˜":{"ha":715,"x_min":157,"x_max":546,"o":"m 546 1006 q 531 1007 536 1007 q 521 1007 526 1007 q 499 965 518 983 q 456 946 481 946 l 453 946 q 431 949 442 947 q 410 953 421 950 q 388 960 397 958 q 369 964 379 961 q 332 971 350 965 q 308 974 319 974 q 286 975 297 975 l 281 975 q 233 964 256 975 q 193 934 210 953 q 167 891 176 915 q 157 842 157 867 l 157 835 l 182 835 q 201 878 186 858 q 244 899 217 899 l 250 899 q 256 898 253 899 q 261 897 258 897 q 276 897 269 897 q 288 894 282 896 q 308 890 299 892 q 328 885 317 888 q 347 881 338 882 q 368 876 357 879 q 389 872 379 874 q 408 869 399 869 l 424 869 q 471 881 449 869 q 510 910 493 892 q 536 953 526 929 q 546 1003 546 976 l 546 1006 z "},"™":{"ha":1157,"x_min":156,"x_max":979,"o":"m 540 989 l 549 988 l 558 988 q 584 974 574 988 q 594 946 594 960 q 595 885 596 915 q 596 825 594 856 q 597 789 597 807 q 597 754 597 772 q 597 717 597 735 q 596 681 596 700 l 596 678 q 585 650 596 663 q 560 633 575 638 l 558 633 l 546 632 l 542 631 l 542 624 q 585 627 565 626 q 626 629 604 628 q 646 631 638 631 q 667 632 656 631 l 667 639 l 651 639 q 626 653 635 639 q 614 681 617 667 l 614 744 q 614 818 614 782 q 613 893 614 856 q 612 928 613 911 q 611 964 611 946 l 622 967 q 626 958 625 963 q 629 950 626 954 l 629 949 q 690 793 661 869 q 743 633 718 717 l 744 633 q 812 800 779 717 q 868 967 844 883 l 881 965 q 885 894 883 929 q 888 822 888 858 q 887 767 888 794 q 885 713 886 740 q 884 699 885 706 q 883 686 883 693 q 872 659 883 671 q 844 643 860 647 l 833 643 q 830 642 831 643 q 826 642 829 642 l 825 635 l 849 635 q 913 634 882 635 q 975 631 943 633 q 978 638 978 633 l 979 638 q 963 640 965 640 l 961 640 q 936 656 944 643 q 928 683 928 668 q 932 743 931 714 q 933 803 933 772 q 932 875 933 839 q 928 947 931 911 q 927 951 928 950 q 926 954 926 951 q 936 978 926 968 q 960 988 946 988 l 975 988 q 974 992 974 990 q 974 993 974 993 q 965 994 971 993 q 951 996 958 994 q 864 1000 906 1000 q 832 894 850 946 q 794 789 814 842 q 782 756 788 772 q 769 724 776 740 l 758 724 q 710 863 735 794 q 657 1001 686 931 q 628 1001 642 1001 q 599 999 614 1000 q 569 997 583 997 q 540 996 554 996 l 540 989 m 169 965 q 161 916 165 940 q 156 879 157 892 l 158 879 q 160 878 161 879 q 161 878 158 878 q 169 915 163 896 q 189 949 176 933 q 217 974 201 964 q 254 983 233 983 q 269 982 265 983 q 272 982 272 982 q 275 983 272 983 l 282 983 l 288 976 q 283 895 285 936 q 281 814 281 854 q 282 744 281 779 q 286 675 283 710 l 286 669 q 276 645 286 656 q 251 632 267 635 l 235 632 q 235 631 235 629 q 236 631 236 633 l 236 625 q 335 621 288 621 q 365 621 351 621 q 397 619 381 621 l 397 624 q 397 626 397 626 q 396 628 396 625 q 381 629 392 629 l 379 629 q 353 645 363 632 q 342 674 343 658 q 339 753 340 714 q 338 833 338 793 q 342 976 338 903 l 347 983 l 372 983 q 408 974 392 983 q 437 949 425 964 q 456 914 449 933 q 464 875 463 894 q 466 876 467 875 q 468 876 465 876 l 471 876 q 470 906 471 893 q 468 936 469 919 q 467 964 467 951 q 465 993 467 976 q 380 991 421 992 q 296 990 339 990 q 234 990 264 990 q 174 992 204 989 l 169 965 m 540 1001 l 535 996 l 540 996 l 540 1001 m 175 997 l 169 993 q 172 992 171 993 q 174 992 172 992 q 174 994 174 993 q 175 997 175 996 m 825 635 l 825 631 l 825 635 z "},"š":{"ha":624,"x_min":51,"x_max":578,"o":"m 236 -37 q 285 -33 260 -37 q 381 -9 329 -24 q 476 31 432 6 q 549 93 519 56 q 578 186 578 131 l 578 201 q 558 275 578 242 q 506 333 538 308 q 436 372 475 357 q 360 390 397 386 l 358 390 q 347 392 353 392 q 338 393 343 392 q 280 400 310 396 q 224 416 250 404 q 181 448 199 428 q 161 503 164 468 q 180 553 164 532 q 219 590 196 575 q 270 613 243 604 q 322 626 297 622 q 338 629 329 629 q 354 629 347 629 q 399 622 378 629 q 435 593 419 614 l 436 593 q 464 482 463 538 q 499 479 483 481 q 535 475 515 478 q 533 514 533 496 q 533 551 533 532 q 533 603 533 579 q 529 656 532 628 q 381 686 456 686 q 343 685 361 686 q 306 678 325 683 q 221 660 265 672 q 139 627 176 649 q 76 573 101 606 q 51 493 51 540 l 51 482 q 64 419 51 449 q 99 367 76 390 q 149 326 121 343 q 208 301 176 310 q 293 288 251 292 q 355 281 325 285 q 414 260 385 276 q 447 220 439 246 q 456 169 456 194 l 456 168 q 440 109 456 135 q 399 65 424 83 q 343 36 374 47 q 285 21 313 25 q 271 19 278 19 q 257 19 265 19 q 207 26 231 19 q 164 53 183 33 l 164 54 q 135 117 143 83 q 126 188 126 151 l 126 200 q 126 199 126 201 q 125 197 125 196 q 92 201 110 199 q 56 208 75 204 q 58 108 57 156 q 61 8 58 61 q 146 -25 101 -12 q 236 -37 190 -37 m 58 10 l 61 6 l 61 8 q 58 10 58 8 m 250 821 l 278 779 q 318 782 300 781 q 357 786 336 783 l 415 874 q 465 948 442 913 q 511 1022 488 983 q 506 1023 507 1024 q 499 1024 504 1022 q 482 1025 492 1025 q 456 1001 468 1013 q 429 976 444 990 q 376 926 403 951 q 321 874 349 901 l 314 874 q 226 947 265 911 q 150 1019 186 983 l 129 1019 l 124 1019 q 186 915 154 961 q 250 821 218 868 m 119 1031 l 114 1021 q 119 1020 117 1021 q 124 1019 121 1019 q 119 1031 121 1025 z "},"›":{"ha":401,"x_min":39,"x_max":321,"o":"m 114 -18 q 141 29 129 6 q 167 78 153 53 q 238 206 201 143 q 321 328 274 269 q 244 466 286 403 q 157 592 201 529 q 136 621 146 607 q 115 651 126 635 l 104 651 q 74 652 86 651 q 47 656 61 653 q 119 493 81 572 q 204 335 157 414 l 206 331 q 131 163 171 246 q 43 -3 92 81 q 81 -14 63 -10 q 114 -18 99 -18 m 39 0 l 40 -8 q 43 -3 43 -3 q 40 -1 42 -1 q 39 0 40 -1 z "},"œ":{"ha":1196,"x_min":40,"x_max":1147,"o":"m 1143 353 l 1143 364 q 1144 376 1144 371 q 1144 389 1144 382 q 1124 499 1144 444 q 1068 596 1104 553 q 983 665 1032 639 q 876 692 933 692 l 844 692 q 719 656 778 692 q 629 563 661 621 l 619 563 q 520 643 582 618 q 393 668 458 668 q 379 668 386 668 q 365 667 372 668 l 364 667 q 236 647 300 667 q 129 579 172 628 q 64 468 86 531 q 42 339 42 406 l 42 326 q 40 310 40 318 q 40 296 40 303 q 63 174 40 233 q 126 66 86 114 q 222 -11 167 18 q 340 -40 276 -40 q 351 -40 347 -40 q 364 -39 357 -40 l 382 -39 q 515 -3 453 -39 q 618 89 576 33 l 628 89 q 720 10 661 35 q 842 -14 779 -14 l 872 -14 q 960 0 915 -14 q 1040 39 1004 14 q 1100 100 1076 64 q 1128 182 1124 136 q 1106 184 1118 183 q 1078 185 1093 185 q 1061 185 1069 185 q 1042 186 1053 185 q 1024 131 1039 157 q 988 84 1010 104 q 937 53 965 64 q 878 42 908 42 l 857 42 q 779 63 813 42 q 724 119 746 85 q 692 194 703 153 q 681 276 681 236 q 681 289 681 283 q 682 303 681 296 l 682 329 l 688 335 q 778 339 732 338 q 869 340 824 340 q 1142 328 1006 340 q 1143 340 1143 335 q 1143 353 1143 346 m 567 324 q 568 306 568 314 q 568 290 568 299 q 557 196 568 244 q 523 107 546 147 q 463 41 500 67 q 374 15 425 15 l 353 15 q 264 41 301 15 q 201 106 226 67 q 164 194 176 146 q 151 288 151 242 q 151 303 151 296 q 153 318 151 311 q 151 335 151 326 q 151 351 151 343 q 164 442 151 396 q 201 526 176 489 q 262 588 225 564 q 349 613 299 613 l 361 613 q 374 614 368 614 q 386 614 381 614 q 467 590 433 614 q 524 528 501 565 q 557 445 546 490 q 568 357 568 400 q 568 340 568 349 q 567 324 568 332 m 1029 396 l 1024 390 q 857 394 940 394 q 689 390 772 394 l 683 396 l 683 410 q 694 489 683 449 q 726 562 704 529 q 780 615 747 594 q 856 636 813 636 l 863 636 q 935 616 904 636 q 988 565 967 596 q 1019 494 1008 533 q 1029 419 1029 456 l 1029 396 m 1142 324 l 1147 328 l 1142 328 l 1142 324 z "},"Ÿ":{"ha":926,"x_min":10,"x_max":918,"o":"m 31 844 q 72 835 53 844 q 105 809 90 825 q 131 774 119 793 q 150 736 142 754 q 275 517 213 625 q 408 304 338 410 l 410 301 l 410 160 q 406 110 410 135 q 383 65 403 85 l 382 65 q 313 40 347 44 q 242 35 278 36 l 242 -3 q 242 -15 242 -10 q 243 -26 243 -19 q 351 -17 296 -24 q 465 -3 407 -11 l 467 -3 q 560 6 514 3 q 653 10 606 10 q 669 9 663 10 q 686 8 676 8 q 688 39 688 26 q 689 71 689 51 q 675 72 681 71 q 661 72 669 72 q 617 73 639 72 q 575 76 596 74 l 574 76 q 535 119 544 92 q 526 176 526 146 l 526 318 l 528 321 q 643 528 581 428 q 767 733 706 629 q 788 770 776 750 q 815 808 800 790 q 847 837 829 825 q 888 849 864 849 q 899 848 894 849 q 910 846 904 847 l 915 846 l 915 850 q 915 863 915 857 q 914 876 915 869 l 914 878 q 912 894 913 886 q 911 907 911 901 q 830 914 869 913 q 749 918 790 915 l 664 922 q 624 925 643 924 q 585 926 606 926 q 585 912 585 918 q 586 896 586 906 l 586 864 l 608 864 q 621 865 615 864 q 633 865 626 865 q 676 859 656 865 q 707 832 696 853 l 708 829 q 697 782 706 796 l 489 400 l 479 400 q 383 559 431 479 q 286 719 335 639 q 267 756 275 738 q 256 794 258 774 l 256 796 q 285 831 261 824 q 331 840 308 838 q 337 841 333 840 q 343 842 340 842 q 365 843 350 843 l 379 843 l 379 904 q 290 892 336 897 q 194 888 243 888 l 181 888 q 97 892 136 888 q 19 904 58 897 q 19 885 19 897 q 17 863 18 874 q 16 853 17 857 q 15 844 15 849 l 31 844 m 10 844 l 15 839 l 15 844 l 10 844 m 915 844 q 916 845 914 844 q 915 846 918 846 l 915 844 m 539 1176 q 556 1128 538 1150 q 601 1107 574 1107 q 649 1126 626 1107 q 671 1175 671 1146 q 649 1222 671 1204 q 600 1243 626 1240 l 596 1243 q 556 1222 572 1243 q 539 1176 539 1201 m 265 1174 q 286 1125 264 1146 q 333 1104 308 1104 q 376 1124 357 1104 q 394 1168 394 1143 l 394 1175 q 376 1221 394 1201 q 332 1239 357 1240 q 288 1220 308 1239 q 265 1174 267 1201 z "},"¡":{"ha":497,"x_min":171,"x_max":325,"o":"m 250 649 q 231 637 240 642 q 217 631 222 632 q 209 469 214 547 q 200 310 204 390 q 193 202 197 256 q 189 96 189 149 l 189 24 q 190 6 189 15 q 194 -12 192 -3 l 194 -14 q 195 -15 194 -15 q 196 -15 196 -14 q 208 -34 199 -26 q 229 -42 218 -42 q 249 -32 240 -42 l 250 -31 q 274 -15 258 -25 q 304 6 290 -4 q 318 35 318 15 l 318 38 q 317 79 318 58 q 315 119 317 100 q 307 273 313 197 q 296 425 301 349 q 287 545 292 485 q 279 664 282 606 q 264 658 271 661 q 250 649 257 654 m 171 840 q 185 778 171 810 q 201 760 190 767 q 224 753 213 753 q 244 763 235 753 l 246 763 q 275 779 258 771 l 275 781 q 310 802 294 790 q 325 833 325 814 l 325 840 q 322 869 325 853 q 313 902 319 886 q 295 928 306 918 q 271 939 285 939 q 251 935 260 939 q 239 926 244 931 q 226 917 233 922 q 189 887 207 903 q 171 846 171 871 l 171 840 m 285 665 l 279 671 l 279 664 q 285 665 281 665 z "},"¢":{"ha":788,"x_min":81,"x_max":656,"o":"m 450 689 q 439 688 444 689 q 428 688 433 688 l 422 693 l 422 738 q 422 755 422 749 q 421 772 421 761 l 404 769 q 381 764 394 767 q 363 760 368 761 l 363 676 l 358 671 q 253 628 303 658 q 165 554 203 597 q 103 458 126 511 q 81 349 81 406 q 81 336 81 342 q 82 325 81 332 l 82 303 q 99 187 82 246 q 148 80 115 128 q 228 1 181 32 q 339 -31 276 -31 q 349 -30 344 -31 q 360 -29 354 -29 l 365 -35 l 365 -121 q 378 -118 369 -119 q 399 -115 386 -117 q 425 -111 418 -112 l 425 -19 l 429 -14 q 512 10 471 -8 q 585 58 553 29 q 636 123 617 86 q 656 204 656 160 l 656 210 q 616 216 636 214 q 576 219 596 218 l 576 215 q 565 157 576 185 q 534 106 554 129 q 488 67 514 83 q 432 46 461 51 l 425 51 q 426 131 426 92 q 426 210 426 169 q 426 288 426 249 q 425 365 426 326 q 424 496 424 432 q 424 628 424 561 l 429 633 l 439 633 q 492 617 469 633 q 528 576 514 601 q 548 522 542 551 q 554 465 554 492 l 554 463 q 591 459 569 463 q 635 453 613 456 q 640 452 639 451 q 644 451 640 453 q 643 496 643 475 q 643 540 643 517 q 642 586 643 564 q 640 632 642 608 q 549 673 597 657 q 450 689 501 689 m 360 40 q 284 68 315 44 q 234 126 253 92 q 207 201 215 160 q 199 279 199 242 l 199 315 q 207 403 199 358 q 234 488 215 449 q 283 560 253 528 q 356 611 313 592 l 364 606 l 364 269 q 365 158 364 214 q 365 46 365 103 l 360 40 m 363 760 l 363 763 q 363 760 358 760 m 643 631 l 640 635 l 640 632 q 643 631 640 631 z "},"£":{"ha":785,"x_min":11,"x_max":719,"o":"m 182 -26 q 285 -20 233 -26 q 388 -7 336 -14 q 490 6 439 0 q 594 13 542 13 q 654 10 626 13 q 710 1 682 7 q 717 150 714 79 q 719 297 719 221 q 678 303 696 300 q 638 310 661 307 q 637 264 638 285 q 636 219 636 243 l 636 208 q 633 156 636 182 q 611 110 631 129 l 610 108 q 555 91 585 96 q 493 83 525 86 q 472 81 482 82 q 449 78 461 81 l 447 78 q 410 72 428 75 q 374 65 393 68 q 333 57 354 60 q 288 51 311 54 l 282 57 l 282 432 l 286 438 q 318 442 301 440 q 350 447 335 444 q 408 457 379 453 q 461 464 438 461 l 461 526 q 420 522 446 525 q 365 513 394 518 q 326 507 346 510 q 288 501 307 504 l 282 507 l 282 619 q 281 633 281 626 q 281 649 281 640 q 292 728 281 688 q 327 803 304 769 q 384 857 350 836 q 463 878 418 878 q 472 878 467 878 q 481 879 476 879 q 581 849 536 879 l 582 847 q 610 792 601 822 q 619 729 619 761 q 635 727 626 728 q 658 724 644 726 q 682 720 675 721 q 694 718 689 719 q 692 748 693 735 q 692 778 692 761 q 690 842 690 811 q 686 906 689 874 q 589 935 638 925 q 489 946 540 946 l 469 946 q 349 921 407 946 q 246 854 292 896 q 188 741 204 804 q 172 613 172 678 l 172 500 l 167 494 q 115 497 142 494 q 63 501 89 499 l 61 501 q 52 502 54 503 q 43 503 50 501 l 43 442 q 106 435 75 438 q 167 432 138 432 l 172 425 q 173 362 172 393 q 174 299 174 331 l 174 146 q 170 101 174 124 q 150 63 167 79 l 147 60 q 79 49 111 49 q 45 51 63 49 q 13 58 28 54 q 13 46 13 51 q 14 31 13 40 q 15 14 15 22 q 15 -1 15 7 q 99 -21 57 -15 q 182 -26 140 -26 m 11 0 l 15 -6 l 15 -1 q 11 0 13 -1 z "},"¤":{"ha":882,"x_min":40,"x_max":857,"o":"m 43 383 l 44 376 q 46 360 44 376 q 50 333 47 344 q 93 330 72 331 q 135 328 114 329 q 163 203 142 264 q 222 90 183 143 q 342 -1 269 28 q 493 -31 415 -31 q 538 -27 515 -31 q 585 -19 561 -24 q 629 -14 607 -15 q 675 -10 651 -12 q 764 0 719 -6 q 847 13 808 6 q 853 101 851 58 q 856 190 854 144 q 856 224 856 208 q 857 258 856 240 q 818 263 842 261 q 771 268 794 265 l 771 274 l 765 268 l 771 268 q 763 190 769 229 q 738 117 757 150 l 736 117 q 665 61 708 76 q 578 39 621 46 q 511 35 544 35 q 421 48 464 35 q 347 99 378 61 q 285 206 307 147 q 257 326 264 264 q 358 328 307 326 q 460 331 408 329 q 683 335 572 335 q 742 335 714 335 q 803 333 769 335 q 813 396 811 364 q 734 399 769 399 q 661 400 699 400 q 456 397 558 400 q 251 392 354 393 l 251 408 q 250 433 251 419 q 249 458 249 446 q 253 528 249 492 q 443 532 349 529 q 633 535 538 535 q 720 534 676 535 q 813 529 764 533 q 801 593 813 553 q 705 599 751 597 q 613 600 658 600 q 440 597 525 600 q 267 593 354 594 q 307 697 281 647 q 371 786 333 747 q 458 851 408 825 q 567 881 507 876 q 583 883 575 882 q 600 883 592 883 q 660 874 631 883 q 714 843 690 865 l 714 842 q 751 751 740 797 q 761 658 761 704 q 772 657 768 657 q 785 656 778 657 q 817 651 801 653 q 847 646 832 649 q 844 765 846 708 q 838 883 842 821 q 723 931 785 915 q 599 946 661 946 q 585 945 592 946 q 572 944 579 944 q 396 888 481 929 q 244 783 311 847 q 185 693 208 742 q 147 592 161 644 q 106 592 126 592 q 61 593 85 592 l 61 596 q 58 597 61 596 q 51 593 54 599 l 49 593 q 44 562 46 578 q 40 531 43 546 q 90 528 67 529 q 136 528 113 528 q 131 481 132 504 q 129 433 129 457 l 129 415 l 129 393 q 98 394 117 393 q 67 395 79 394 q 53 396 54 396 l 53 397 l 43 383 z "},"¥":{"ha":921,"x_min":3,"x_max":897,"o":"m 449 -3 q 538 7 493 4 q 628 10 582 10 q 647 9 639 10 q 667 8 656 8 q 668 39 668 26 q 668 71 668 51 l 639 71 q 597 72 617 71 q 556 76 576 72 l 554 76 q 526 98 536 85 q 513 128 517 111 q 508 163 508 144 q 507 197 507 181 l 507 318 l 513 324 q 686 332 597 332 q 867 324 772 332 l 867 372 q 697 381 779 381 q 622 379 660 381 q 547 375 585 378 l 543 383 l 628 526 l 632 529 q 656 531 644 531 q 681 531 668 531 q 772 527 725 531 q 867 518 818 524 l 867 568 q 857 569 860 569 q 847 569 854 568 q 764 577 806 574 q 681 581 722 581 l 665 581 l 661 589 q 704 661 683 625 q 747 733 725 697 q 767 772 756 751 q 794 809 779 792 q 826 838 808 826 q 868 849 844 849 q 889 846 875 849 l 894 846 l 890 906 q 838 910 863 908 q 786 914 814 911 l 732 918 l 647 922 q 608 925 626 924 q 568 926 589 926 q 569 912 568 918 q 569 896 569 906 l 569 864 l 593 864 q 606 865 600 864 q 619 865 613 865 q 661 860 642 865 q 692 832 681 854 l 693 829 q 687 797 692 811 q 674 768 682 783 q 573 584 624 676 q 472 399 522 492 l 463 399 q 428 458 444 429 q 393 515 411 486 q 326 624 361 567 q 263 732 292 681 q 263 731 260 735 q 264 731 267 728 q 247 762 254 746 q 239 794 239 778 l 239 796 q 263 830 242 824 q 307 839 283 836 q 315 840 311 840 q 325 842 321 840 l 338 842 q 350 842 344 842 q 363 843 356 842 l 363 904 q 273 892 319 897 q 178 888 226 888 q 89 892 131 888 q 7 904 47 897 q 6 885 7 897 q 4 863 6 874 q 3 853 4 856 q 3 844 3 851 l 17 844 q 59 834 40 844 q 92 808 78 824 q 117 774 106 793 q 138 736 128 754 q 153 706 146 721 q 171 676 161 692 l 172 676 q 204 615 189 644 q 238 556 219 585 l 233 547 q 215 547 224 547 q 197 546 207 546 q 117 549 158 546 q 32 557 75 553 l 32 507 q 111 499 72 501 q 188 496 150 496 q 228 497 207 496 q 268 499 249 497 l 272 496 q 288 474 281 485 q 301 451 294 463 q 328 406 315 429 q 357 361 342 383 l 353 353 q 281 348 317 350 q 211 346 246 346 q 32 358 117 346 l 32 331 q 33 322 32 324 q 33 313 33 319 q 130 302 82 306 q 225 299 178 299 q 388 307 306 299 l 394 301 q 395 269 394 285 q 396 239 396 254 l 396 161 q 392 111 396 136 q 369 65 389 86 l 368 65 q 298 40 333 44 q 228 35 263 36 l 228 -3 q 228 -14 228 -8 q 229 -26 229 -19 q 338 -18 283 -24 q 449 -3 393 -12 m 224 -26 l 229 -32 l 229 -26 l 224 -26 m 894 844 q 895 845 893 844 q 894 846 897 846 l 894 844 z "},"¦":{"ha":793,"x_min":335,"x_max":442,"o":"m 347 964 q 346 711 346 833 q 346 458 346 589 q 368 443 356 443 q 375 444 371 443 l 386 458 q 407 482 394 472 l 415 482 q 425 475 421 479 q 437 469 432 472 q 435 474 442 467 q 435 722 435 604 q 433 971 435 840 q 432 972 432 972 q 432 974 433 972 l 432 975 q 422 988 426 982 q 408 996 417 994 q 390 978 397 986 q 375 960 382 969 l 365 958 q 364 958 365 958 q 360 960 363 958 q 354 963 357 960 l 353 963 l 347 964 m 347 -246 q 348 -246 347 -247 q 349 -246 349 -244 q 360 -262 354 -253 q 374 -272 367 -272 l 381 -262 q 396 -244 386 -256 q 410 -228 406 -233 l 414 -228 q 418 -229 417 -229 q 422 -231 419 -229 q 425 -232 425 -232 q 425 -233 425 -233 l 429 -233 l 433 -235 q 435 18 435 -104 q 435 271 435 140 q 432 273 433 272 q 429 275 431 274 q 418 281 424 278 q 408 285 413 285 q 399 274 406 282 q 386 258 392 265 q 381 252 385 256 q 376 246 378 249 l 367 244 q 346 258 357 249 q 346 7 346 132 q 347 -246 346 -118 m 346 274 l 335 271 q 346 258 338 267 l 346 274 z "},"§":{"ha":707,"x_min":40,"x_max":650,"o":"m 256 -176 q 331 -167 296 -176 q 428 -137 376 -154 q 523 -94 479 -121 q 596 -30 567 -68 q 626 64 625 8 q 608 149 628 108 q 554 219 589 190 l 556 229 q 623 283 596 247 q 650 363 650 319 l 650 369 q 628 453 650 417 q 572 518 606 490 q 495 565 538 546 q 411 594 453 583 q 397 597 404 596 q 382 600 390 599 l 381 600 q 319 610 351 604 q 262 629 288 617 q 219 664 236 642 q 201 722 201 686 l 201 726 q 216 781 201 757 q 253 824 231 806 q 303 853 276 842 q 357 871 331 864 q 394 876 372 876 q 426 872 410 876 q 456 860 442 868 l 457 860 q 494 804 482 836 q 507 736 507 772 l 507 718 l 510 718 q 527 717 518 718 q 544 715 536 717 q 556 714 547 714 q 576 713 565 714 q 574 808 575 763 q 571 903 574 854 q 499 932 538 922 q 422 942 461 942 q 391 940 407 942 q 360 935 375 939 q 270 908 318 924 q 183 867 222 892 q 117 806 143 842 q 90 719 90 771 l 90 714 q 106 636 90 674 q 153 571 122 599 l 150 561 q 77 509 108 546 q 46 426 46 472 l 46 418 q 70 326 46 367 q 133 255 94 285 q 218 208 171 225 q 311 185 265 190 l 313 185 q 376 175 342 181 q 440 157 410 169 q 490 122 469 144 q 510 60 510 99 q 492 -5 510 22 q 445 -51 474 -32 q 384 -81 417 -69 q 322 -101 351 -93 q 297 -106 310 -104 q 269 -107 283 -107 q 210 -97 235 -107 l 208 -96 q 160 -40 176 -75 q 144 31 144 -6 l 144 67 q 126 71 136 68 q 101 76 115 74 q 90 78 97 76 q 72 81 82 79 q 74 -19 74 29 q 78 -119 75 -68 q 162 -162 115 -147 q 256 -176 208 -176 m 475 263 q 417 280 447 274 q 357 292 388 286 q 290 303 324 297 q 228 324 257 310 q 178 360 200 338 q 147 421 157 383 l 147 422 q 167 478 147 456 q 210 524 188 501 l 211 525 q 215 528 214 526 q 218 531 215 529 l 224 531 q 278 512 250 518 q 336 499 307 506 q 401 484 369 492 q 460 462 433 476 q 508 424 488 447 q 538 365 528 401 l 538 364 q 521 308 538 332 q 482 264 504 285 l 475 263 m 72 81 l 72 85 q 46 86 53 86 q 42 85 40 86 q 53 83 44 85 q 72 81 63 82 m 576 711 q 594 711 590 711 q 599 711 600 711 q 591 712 597 711 q 576 713 585 713 l 576 711 m 75 -118 l 78 -122 l 78 -119 q 76 -119 76 -119 q 75 -118 75 -118 z "},"¨":{"ha":714,"x_min":147,"x_max":554,"o":"m 422 925 q 439 877 421 899 q 485 856 457 856 q 532 875 510 856 q 554 924 554 894 q 532 971 554 953 q 483 992 510 989 l 479 992 q 439 971 456 992 q 422 925 422 950 m 149 922 q 169 874 147 894 q 217 853 192 853 q 259 872 240 853 q 278 917 278 892 l 278 924 q 259 969 278 950 q 215 988 240 989 q 171 969 192 988 q 149 922 150 950 z "},"©":{"ha":1154,"x_min":81,"x_max":1065,"o":"m 575 944 q 389 889 479 929 q 225 782 299 849 q 119 638 158 722 q 81 461 81 553 l 81 457 q 120 267 81 358 q 228 103 160 175 q 358 6 283 44 q 515 -32 432 -32 q 571 -28 542 -32 q 755 27 667 -12 q 914 133 843 67 q 1022 278 979 196 q 1065 451 1065 360 l 1065 460 q 1024 651 1065 560 q 913 813 982 742 q 778 909 854 871 q 619 947 703 947 q 597 947 608 947 q 575 944 586 947 m 572 899 q 594 901 583 900 q 617 901 606 901 q 760 868 692 901 q 881 782 829 835 q 979 638 943 719 q 1015 467 1015 556 l 1015 463 q 978 301 1015 378 q 881 165 942 224 q 739 68 817 107 q 574 18 661 29 q 522 14 549 14 q 378 45 447 14 q 258 132 308 76 q 163 273 200 194 q 126 438 126 351 l 126 458 q 160 617 126 542 q 256 749 194 692 q 402 848 321 810 q 572 899 483 886 m 771 758 q 758 728 768 743 q 728 714 747 714 l 722 714 q 707 719 715 717 q 692 724 699 721 q 640 741 665 733 q 589 749 614 749 q 577 748 583 749 q 564 746 571 747 l 563 746 q 454 713 506 740 q 364 644 403 686 q 302 550 325 603 q 279 440 279 497 l 279 421 q 299 323 279 371 q 353 238 319 275 q 433 178 388 201 q 529 156 478 156 q 546 156 538 156 q 564 158 554 157 q 701 210 638 168 q 797 318 764 251 q 793 321 794 321 q 790 324 793 321 q 786 326 788 325 q 782 328 785 326 q 699 238 750 275 q 585 193 647 200 q 549 189 568 189 q 477 210 508 189 q 424 265 446 232 q 392 339 403 299 q 381 417 381 379 q 381 431 381 424 q 382 446 381 439 l 382 464 q 392 551 382 507 q 426 633 403 596 q 484 697 449 671 q 568 726 519 722 q 581 728 575 728 q 593 729 586 729 q 658 713 628 729 q 710 672 688 697 q 749 616 733 647 q 771 554 764 585 l 790 554 q 790 604 790 582 q 789 656 790 628 q 787 708 788 683 q 786 758 786 732 l 771 758 z "},"ª":{"ha":563,"x_min":40,"x_max":533,"o":"m 471 506 l 469 508 q 453 540 458 524 q 447 574 447 557 l 447 579 q 448 629 447 604 q 449 679 449 654 q 448 728 449 703 q 447 776 447 753 q 440 839 446 808 q 414 893 435 869 q 362 924 390 914 q 301 933 333 933 q 260 929 281 933 l 258 929 q 192 922 228 929 q 127 897 157 914 q 77 854 97 881 q 57 792 57 828 l 57 788 q 69 787 61 788 q 85 785 76 786 q 111 783 99 783 q 132 782 124 782 q 142 826 132 806 q 170 863 153 847 q 210 886 188 878 q 254 894 232 894 q 281 899 267 899 q 344 870 317 899 q 372 804 372 842 q 372 796 372 801 q 371 788 372 792 l 371 740 l 365 735 q 311 731 338 735 q 283 725 294 728 q 206 714 249 721 q 127 692 164 707 q 65 651 90 678 q 40 581 40 625 l 40 571 q 53 515 40 542 q 88 470 67 489 q 138 440 110 451 q 194 429 165 429 l 204 429 q 296 461 256 429 q 364 533 336 493 l 374 532 q 376 511 376 521 q 376 490 376 501 l 376 463 q 396 465 383 465 q 422 465 408 465 l 454 465 q 483 464 469 465 q 508 460 497 463 q 516 459 514 458 q 525 458 518 460 q 526 475 526 467 q 528 490 526 483 q 496 494 510 490 q 471 506 482 499 m 371 694 l 371 644 q 360 584 371 614 q 330 531 349 554 q 284 492 311 507 q 226 478 257 478 l 217 478 q 150 506 179 478 q 121 571 121 533 l 121 575 q 138 628 121 607 q 179 663 154 650 q 233 683 204 676 q 288 693 263 690 q 326 697 307 696 q 365 700 346 699 l 371 694 m 533 490 l 528 496 l 528 490 l 529 490 l 533 490 z "},"«":{"ha":638,"x_min":67,"x_max":575,"o":"m 261 150 q 219 230 240 190 q 178 310 197 269 l 178 315 q 183 327 181 322 q 189 339 186 332 q 265 500 229 422 q 336 665 301 578 q 315 663 322 663 q 294 660 308 663 l 271 656 q 188 513 231 582 q 99 374 144 443 q 83 349 90 360 q 67 326 75 339 q 143 190 107 250 q 215 72 179 129 q 244 28 231 49 q 271 -15 257 7 q 303 -12 286 -14 q 340 -6 321 -10 q 301 72 321 35 q 261 150 282 110 m 414 335 l 414 340 q 448 414 431 378 q 483 486 465 450 q 525 572 506 531 q 564 658 544 614 q 555 660 557 660 q 546 663 553 661 q 501 669 521 669 l 497 669 q 482 642 489 656 q 465 615 475 629 q 382 467 424 540 q 300 319 340 394 q 409 160 357 238 q 501 7 461 82 q 557 3 528 7 q 564 1 560 1 q 493 167 532 83 q 414 335 454 251 m 568 -7 l 575 0 q 564 1 568 0 l 568 -7 m 343 -11 l 349 -3 q 340 -6 340 -6 q 343 -11 340 -6 z "},"¬":{"ha":1172,"x_min":164,"x_max":1000,"o":"m 164 518 q 241 514 203 515 q 315 513 279 513 q 435 515 376 513 q 554 519 494 517 q 675 524 615 522 q 796 525 735 525 q 858 525 828 525 q 922 522 890 525 l 928 517 q 930 472 929 493 q 931 426 931 450 q 928 341 931 385 q 919 253 925 297 q 938 251 929 251 q 953 251 946 251 q 968 251 961 251 q 986 250 976 251 q 997 331 993 289 q 1000 419 1000 374 q 997 501 1000 460 q 986 588 993 543 q 885 594 935 593 q 783 596 835 596 q 664 594 724 596 q 543 590 604 593 q 420 585 481 588 q 297 583 360 583 q 235 583 265 583 q 172 585 204 582 q 168 552 169 567 q 164 518 167 538 m 174 592 l 168 588 q 170 586 169 588 q 172 585 171 585 q 173 589 172 588 q 174 592 174 590 z "},"®":{"ha":1154,"x_min":81,"x_max":1064,"o":"m 574 944 q 389 889 478 929 q 225 782 300 849 q 119 638 158 722 q 81 461 81 553 l 81 457 q 120 267 81 358 q 228 103 160 175 q 359 6 285 44 q 514 -32 433 -32 q 567 -28 538 -32 q 750 25 663 -14 q 908 131 838 64 q 1020 279 976 194 q 1064 458 1064 364 q 1022 649 1063 557 q 914 811 982 740 q 780 909 857 871 q 618 947 703 947 q 596 947 607 947 q 574 944 585 947 m 571 899 q 593 901 582 900 q 615 901 604 901 q 759 868 690 901 q 879 782 828 835 q 978 638 942 719 q 1014 467 1014 556 l 1014 463 q 977 301 1014 378 q 879 165 940 224 q 738 67 815 104 q 574 18 660 29 q 522 14 549 14 q 378 45 447 14 q 258 132 308 76 q 163 273 200 194 q 126 438 126 351 l 126 458 q 160 617 126 542 q 256 749 194 692 q 402 848 322 811 q 571 899 482 885 m 328 700 q 365 694 350 700 l 367 693 q 390 668 381 682 q 400 636 400 654 l 400 268 q 401 263 400 265 q 401 258 401 261 q 376 210 401 229 q 321 192 350 192 q 313 192 317 192 q 313 190 308 192 l 313 175 l 333 175 q 452 179 392 175 q 575 194 513 183 l 575 210 q 557 208 572 208 q 506 224 529 208 q 483 267 483 239 q 484 271 483 269 q 485 275 485 272 l 485 449 l 489 454 q 503 456 493 456 q 508 456 506 456 q 514 457 511 457 q 547 461 528 461 q 622 440 588 461 q 667 378 657 419 q 670 351 669 367 q 672 319 671 335 q 677 276 674 297 q 690 231 681 254 q 722 206 701 213 q 767 199 743 199 l 778 199 q 851 231 821 199 q 881 303 881 263 q 880 310 881 307 q 879 317 879 314 l 879 319 l 861 319 l 861 318 q 851 263 861 290 q 810 228 840 235 l 808 228 q 769 253 776 232 q 760 299 763 274 q 757 318 758 310 q 753 336 756 326 q 703 425 744 389 q 608 467 661 461 l 607 478 q 622 483 614 481 q 638 488 631 485 q 694 506 665 496 q 746 532 722 517 q 786 569 769 547 q 806 622 803 590 q 788 678 804 654 q 747 717 772 701 q 692 739 722 732 q 631 746 661 746 q 608 744 619 746 q 586 742 597 743 q 449 726 517 731 q 313 719 381 721 l 313 700 l 328 700 m 485 475 l 485 658 q 511 706 485 690 q 565 722 538 721 q 596 726 579 726 q 638 719 617 726 q 674 698 658 711 q 701 666 690 685 q 711 625 711 647 l 711 615 q 695 557 711 582 q 654 514 679 532 q 599 486 629 496 q 540 474 568 476 q 516 470 529 471 q 490 469 503 469 l 485 475 m 313 725 l 313 719 l 306 719 l 313 725 z "},"¯":{"ha":717,"x_min":171,"x_max":535,"o":"m 247 925 q 368 929 307 925 q 410 931 390 931 q 451 931 431 931 q 490 931 472 931 q 531 929 508 931 q 535 969 535 947 q 531 1011 535 992 q 494 1013 511 1013 q 457 1014 476 1014 q 397 1013 426 1014 q 336 1011 367 1013 q 294 1010 315 1010 q 254 1010 274 1010 q 214 1010 233 1010 q 175 1011 196 1010 q 173 996 174 1004 q 172 976 172 988 q 173 952 172 964 q 175 926 174 940 q 211 925 193 925 q 247 925 229 925 m 171 929 l 176 924 q 175 925 176 925 q 175 926 175 925 q 173 928 174 926 q 171 929 172 929 z "},"°":{"ha":469,"x_min":32,"x_max":429,"o":"m 231 1006 q 158 985 194 1001 q 94 944 122 969 q 49 886 67 919 q 32 814 32 853 l 32 806 q 46 735 32 769 q 83 675 60 701 q 140 632 107 649 q 208 615 172 615 q 217 615 213 615 q 228 617 221 615 q 301 638 265 622 q 366 678 338 653 q 412 735 394 703 q 429 808 429 768 l 429 813 q 415 883 429 847 q 375 946 400 918 q 317 991 350 974 q 246 1008 283 1008 q 238 1007 242 1008 q 231 1006 235 1006 m 231 960 q 249 961 236 961 q 299 949 275 961 q 342 917 324 936 q 371 872 360 897 q 382 821 382 847 l 382 810 q 369 755 382 781 q 335 710 356 729 q 287 678 314 690 q 233 661 260 665 q 222 660 229 660 q 213 660 217 660 q 161 672 186 660 q 117 703 136 683 q 88 747 99 722 q 76 799 76 772 l 76 807 q 90 864 76 838 q 125 910 103 890 q 174 942 147 929 q 231 960 201 956 z "},"±":{"ha":1172,"x_min":163,"x_max":1000,"o":"m 543 565 l 538 560 q 445 551 492 554 q 351 549 399 549 q 163 561 247 549 l 163 492 q 251 483 204 485 q 346 481 297 481 q 442 483 394 481 q 538 490 490 485 l 543 485 l 543 443 q 543 394 543 419 q 544 346 543 371 q 546 299 546 321 q 546 250 546 276 q 560 253 550 253 q 583 256 571 254 q 601 258 594 257 q 618 261 607 260 q 619 288 619 276 q 619 315 619 300 q 619 344 619 331 q 618 375 619 360 q 617 435 617 404 q 617 494 617 465 l 622 500 q 782 508 701 508 q 890 505 835 508 q 1000 494 944 501 q 999 528 999 514 q 999 563 999 542 q 892 574 944 569 q 788 578 839 578 q 622 569 703 578 l 617 575 l 617 696 q 617 754 617 726 q 615 811 617 782 q 599 809 608 810 q 571 806 590 808 q 558 803 564 804 q 544 801 551 803 q 544 682 544 742 q 543 565 544 624 m 172 49 q 173 38 172 42 q 174 26 174 33 q 268 11 219 15 q 368 7 317 7 q 490 12 429 7 q 611 22 550 17 q 731 33 672 29 q 849 38 789 38 q 986 29 925 38 q 988 46 988 40 q 989 64 988 53 q 990 82 990 75 q 992 99 990 89 q 922 106 958 104 q 846 108 886 108 q 725 104 785 108 q 604 93 665 100 q 481 82 542 86 q 360 78 421 78 q 169 96 260 78 q 170 73 169 85 q 172 49 171 61 m 169 103 l 163 97 q 169 96 164 96 l 169 103 m 544 807 l 540 801 l 544 801 l 544 807 z "},"²":{"ha":525,"x_min":54,"x_max":456,"o":"m 415 485 q 403 452 415 464 q 374 435 392 440 q 338 428 357 429 q 304 426 319 426 q 299 426 301 426 q 294 425 297 425 q 228 413 263 418 q 160 408 194 408 q 147 409 153 408 q 135 410 142 410 l 132 419 q 199 478 165 444 q 267 549 232 513 q 304 587 286 568 q 342 625 322 606 l 357 640 q 388 672 372 656 q 417 705 404 688 q 439 741 431 722 q 447 782 447 760 l 447 792 q 434 847 447 821 q 399 892 421 872 q 351 922 378 911 q 294 933 324 933 q 261 929 278 933 l 260 929 q 193 914 228 925 q 129 883 158 903 q 81 835 100 863 q 61 772 61 807 q 62 764 61 768 q 63 757 63 760 q 74 756 67 757 q 89 754 82 756 q 109 752 100 753 q 129 751 118 751 l 133 751 l 133 768 q 166 853 133 815 q 247 894 199 890 q 258 897 253 897 q 271 897 265 897 q 338 870 308 897 q 368 804 368 843 l 368 797 q 319 683 351 736 q 244 585 286 631 q 153 501 201 540 q 54 425 104 461 q 55 396 54 410 q 57 367 56 382 q 103 355 81 358 q 151 351 126 351 q 210 355 179 351 q 268 363 240 358 q 328 370 299 367 q 389 374 357 374 q 421 373 406 374 q 447 369 436 372 q 449 397 449 382 q 450 432 450 413 q 449 456 450 443 q 450 481 449 468 q 429 483 436 483 q 415 485 422 483 m 456 479 l 451 485 q 451 483 451 483 q 450 481 450 482 q 452 480 451 481 q 456 479 453 479 z "},"³":{"ha":524,"x_min":38,"x_max":446,"o":"m 104 488 q 72 491 89 489 q 38 497 54 493 l 38 489 q 51 431 38 458 q 86 383 64 404 q 137 351 108 363 q 196 339 165 339 q 211 340 203 339 q 228 343 219 342 q 300 359 261 349 q 371 388 339 369 q 424 433 403 406 q 446 503 446 461 l 446 514 q 435 563 446 540 q 405 604 424 586 q 362 633 386 622 q 313 646 338 643 l 311 657 q 352 673 332 663 q 389 698 372 683 q 416 731 406 713 q 426 774 426 750 l 426 779 q 413 837 426 810 q 378 885 400 864 q 329 918 357 906 q 271 931 301 931 q 236 924 257 931 l 235 924 q 171 909 203 921 q 112 878 139 897 q 68 831 85 858 q 51 771 51 804 q 78 767 64 768 q 114 767 93 767 l 122 767 l 122 771 q 157 849 122 817 q 238 886 192 882 q 260 889 244 889 q 322 860 296 889 q 349 796 349 832 l 349 781 q 333 725 349 749 q 292 685 317 701 q 237 660 267 669 q 181 649 207 651 l 172 649 q 172 648 169 649 q 171 647 174 647 l 171 611 q 173 612 174 611 q 175 613 172 613 q 188 615 182 614 q 200 615 194 615 q 246 624 221 624 q 290 617 268 624 q 328 597 311 610 q 355 566 344 585 q 365 525 365 547 q 365 517 365 522 q 364 510 365 513 l 364 507 q 352 458 364 481 q 321 419 340 436 q 278 392 301 403 q 229 379 254 382 q 217 376 224 376 q 206 376 211 376 q 167 385 185 376 q 135 410 149 394 q 113 444 121 425 q 104 483 104 463 l 104 488 z "},"´":{"ha":719,"x_min":231,"x_max":551,"o":"m 251 782 q 269 781 258 781 l 274 781 q 342 821 314 801 q 399 858 371 840 q 454 897 426 878 q 511 932 482 915 l 511 933 q 538 953 526 940 q 551 981 550 965 q 535 1014 550 1000 q 503 1031 519 1028 q 467 1017 483 1028 q 439 992 450 1007 l 439 989 q 344 884 394 935 q 243 783 294 833 q 251 782 246 782 m 231 785 l 235 775 l 243 783 q 237 784 240 783 q 231 785 233 785 z "},"µ":{"ha":771,"x_min":-60,"x_max":750,"o":"m 103 108 q 115 56 104 82 q 144 11 126 31 q 186 -21 163 -8 q 238 -33 210 -33 q 247 -33 243 -33 q 258 -32 251 -33 l 260 -32 q 324 -12 294 -28 q 378 27 354 3 q 421 81 403 51 q 451 140 439 110 l 464 139 l 464 113 q 471 72 464 92 q 491 35 478 51 q 522 9 504 19 q 563 -1 540 -1 l 569 -1 q 660 27 618 -1 q 721 101 701 56 q 740 149 732 125 q 750 197 747 172 q 738 219 750 213 q 720 199 726 213 q 708 168 714 185 q 699 144 704 156 q 685 122 694 133 q 647 90 669 103 q 600 78 624 78 l 597 78 q 546 101 565 78 q 526 153 526 124 l 526 158 q 530 197 526 179 q 536 232 533 214 q 538 243 538 238 q 540 254 539 249 q 578 434 561 346 q 611 614 596 522 q 589 615 604 615 q 558 615 574 615 q 539 615 547 615 q 519 617 531 615 q 485 440 503 526 q 449 263 467 353 q 426 190 442 226 q 388 124 411 154 q 333 74 365 94 q 263 47 301 53 q 243 46 257 46 q 203 55 222 46 q 169 80 183 64 q 146 115 154 96 q 138 156 138 135 q 138 162 138 158 q 139 168 139 165 l 139 181 q 140 209 139 196 q 144 235 142 222 q 146 240 146 238 q 147 249 146 244 q 168 337 158 293 q 188 425 178 381 q 206 508 197 469 q 224 590 214 547 q 167 586 200 586 q 150 586 158 586 q 132 585 142 586 q 108 481 119 532 q 85 378 96 431 q 67 306 76 342 q 51 233 58 269 q 27 131 40 181 q 0 29 14 81 q -34 -102 -18 -37 q -60 -233 -50 -167 q -44 -275 -58 -256 q -6 -299 -29 -294 q 21 -288 11 -297 q 36 -265 31 -279 q 44 -235 42 -251 q 47 -203 46 -219 q 54 -160 50 -176 q 69 -26 61 -93 q 92 110 78 40 l 103 108 z "},"¶":{"ha":707,"x_min":44,"x_max":646,"o":"m 644 1004 q 475 1029 563 1029 q 397 1024 436 1029 q 318 1007 357 1018 l 317 1007 q 223 984 271 1001 q 135 938 175 967 q 71 868 96 908 q 46 776 46 828 l 46 769 q 45 760 46 764 q 44 750 44 756 q 63 665 44 706 q 111 592 81 624 q 183 542 142 561 q 268 524 224 524 q 285 524 276 524 q 303 526 293 524 l 310 521 q 310 250 310 383 q 311 -19 310 118 q 324 -17 319 -17 q 338 -14 329 -17 q 356 -9 346 -11 q 367 -7 367 -7 q 367 481 367 239 q 364 968 367 722 l 368 974 q 467 985 419 985 q 482 984 474 985 q 499 983 490 983 l 504 978 q 508 465 508 721 q 508 237 508 349 q 504 10 507 125 l 557 10 q 563 240 560 128 q 565 471 565 353 q 563 722 565 597 q 557 974 560 847 l 565 979 q 574 978 569 978 q 582 976 578 978 q 618 970 601 974 q 646 963 635 967 q 645 969 646 968 q 644 975 644 969 l 644 1004 z "},"·":{"ha":413,"x_min":113,"x_max":288,"o":"m 113 479 l 113 474 q 136 416 113 442 q 192 390 160 390 l 199 390 q 260 417 232 394 q 288 474 288 440 l 288 476 q 265 535 288 508 q 208 563 242 563 l 200 563 q 140 538 167 563 q 113 479 113 514 z "},"∙":{"ha":413,"x_min":113,"x_max":288,"o":"m 113 479 l 113 474 q 136 416 113 442 q 192 390 160 390 l 199 390 q 260 417 232 394 q 288 474 288 440 l 288 476 q 265 535 288 508 q 208 563 242 563 l 200 563 q 140 538 167 563 q 113 479 113 514 z "},"¸":{"ha":717,"x_min":186,"x_max":544,"o":"m 361 -315 q 375 -315 368 -315 q 390 -314 383 -315 l 394 -314 q 446 -306 419 -314 q 494 -283 472 -299 q 531 -246 517 -268 q 544 -196 544 -224 l 544 -186 q 535 -144 544 -164 q 510 -110 526 -125 q 474 -87 494 -96 q 433 -78 454 -78 q 419 -79 425 -78 l 418 -79 q 389 -82 403 -79 q 374 -86 382 -86 l 368 -81 q 367 -43 367 -60 q 367 -7 367 -28 q 351 -9 360 -8 q 333 -10 343 -10 l 333 -133 q 342 -132 340 -132 q 350 -131 344 -132 q 361 -128 356 -129 q 372 -126 367 -128 q 388 -125 376 -125 q 438 -143 414 -125 q 461 -189 461 -161 l 461 -199 q 452 -230 461 -217 q 429 -252 443 -243 q 399 -265 415 -261 q 367 -269 382 -269 q 358 -270 363 -269 q 349 -271 353 -271 q 274 -258 310 -271 q 208 -224 239 -244 q 200 -244 204 -235 q 190 -265 196 -254 q 272 -301 228 -287 q 361 -315 315 -315 m 186 -262 l 189 -269 q 190 -267 189 -268 q 190 -265 190 -267 q 186 -262 188 -262 z "},"¹":{"ha":533,"x_min":132,"x_max":388,"o":"m 199 356 q 265 367 232 356 q 328 376 294 376 q 386 369 361 376 l 386 389 q 387 395 386 393 q 388 403 388 397 l 375 406 q 353 410 364 408 q 331 413 342 413 l 326 414 q 304 468 304 436 l 304 613 q 304 774 304 696 q 303 936 304 853 q 284 933 296 936 q 257 924 272 929 q 227 916 242 919 q 196 913 213 913 l 190 913 q 176 911 186 911 q 156 913 161 911 q 142 915 150 914 q 138 916 139 915 q 136 917 138 917 q 135 899 135 906 q 135 885 135 892 q 149 883 144 883 q 163 881 154 882 q 182 878 174 879 q 197 875 190 878 l 199 874 q 226 815 226 854 l 226 444 q 225 420 226 432 q 213 397 224 408 l 211 396 q 174 390 196 390 q 135 397 151 390 l 135 379 q 136 365 135 369 q 199 356 167 356 m 132 368 l 136 363 l 136 365 q 133 367 135 367 q 132 368 133 367 m 136 917 l 136 918 q 136 917 135 918 z "},"º":{"ha":569,"x_min":36,"x_max":521,"o":"m 38 692 l 38 685 q 36 672 36 678 q 36 661 36 668 q 51 578 36 619 q 94 505 67 538 q 158 452 121 472 q 236 432 194 432 q 278 438 257 432 l 279 438 q 367 455 324 438 q 445 503 411 472 q 500 574 479 533 q 521 661 521 615 q 521 672 521 668 q 519 685 521 678 l 519 686 q 520 696 519 692 q 521 706 521 700 q 505 789 521 747 q 460 864 489 831 q 394 918 432 897 q 314 939 357 939 q 278 935 296 939 q 189 913 233 928 q 110 868 144 899 q 56 788 74 835 q 38 692 38 742 m 435 674 q 425 603 435 639 q 396 540 415 568 q 347 492 376 511 q 281 472 318 474 q 267 470 274 471 q 253 469 260 469 q 194 487 219 469 q 153 531 169 504 q 128 592 136 558 q 119 656 119 625 q 119 668 119 663 q 121 679 119 674 q 120 688 121 685 q 119 697 119 692 q 129 767 119 732 q 159 831 139 801 q 208 878 179 860 q 276 899 238 897 q 289 901 283 900 q 301 901 294 901 q 360 885 335 901 q 401 841 385 868 q 426 781 418 814 q 435 718 435 749 q 435 706 435 711 q 433 693 435 700 q 434 683 433 688 q 435 674 435 678 z "},"»":{"ha":638,"x_min":54,"x_max":560,"o":"m 103 -10 q 115 -12 110 -11 q 126 -15 119 -14 q 155 31 142 8 q 183 78 168 54 q 258 204 222 142 q 328 333 293 267 q 314 354 321 344 q 300 375 307 364 q 205 520 251 450 q 125 650 158 590 q 94 651 110 650 q 64 656 79 653 q 131 488 96 572 q 213 317 167 404 l 213 311 q 183 249 197 279 q 151 186 168 218 q 105 92 128 139 q 60 -3 82 46 q 81 -6 69 -6 q 103 -10 92 -7 m 317 -6 q 335 -3 326 -4 q 356 1 344 -1 q 560 326 449 168 q 483 462 522 396 q 401 594 443 528 q 378 633 389 614 q 356 671 367 651 q 289 661 321 668 q 319 601 304 629 q 350 540 333 572 q 399 442 374 492 q 446 342 424 392 l 446 336 q 431 303 439 319 q 415 269 422 286 q 349 130 382 199 q 288 -10 317 61 l 317 -6 m 276 -12 l 285 -19 q 286 -14 286 -17 q 288 -10 286 -12 q 282 -11 285 -11 q 276 -12 279 -11 m 54 0 l 58 -8 q 58 -6 58 -6 q 60 -3 60 -6 q 54 0 57 -3 z "},"¼":{"ha":1217,"x_min":108,"x_max":1200,"o":"m 925 11 q 965 13 947 13 q 1007 13 983 13 l 1046 13 q 1109 10 1078 13 q 1168 3 1140 7 q 1169 6 1168 6 q 1169 10 1169 7 q 1169 24 1169 21 q 1171 31 1169 26 q 1142 33 1156 32 q 1113 40 1128 35 l 1110 42 q 1093 65 1099 51 q 1088 94 1088 79 l 1088 103 q 1088 127 1088 115 q 1089 151 1089 139 l 1094 157 q 1111 156 1103 156 q 1129 154 1121 156 q 1163 152 1147 153 q 1197 149 1179 151 q 1197 157 1197 153 q 1199 168 1197 161 q 1200 179 1200 172 l 1200 185 q 1167 189 1183 188 q 1133 192 1151 190 q 1115 193 1124 193 q 1097 194 1107 193 l 1092 200 q 1094 316 1093 258 q 1094 432 1094 374 l 1094 513 q 1083 513 1092 513 q 1065 515 1075 514 q 1040 517 1051 517 q 1013 518 1028 518 q 874 358 942 438 q 739 193 806 278 l 739 150 q 844 158 792 156 q 946 161 896 161 q 981 161 964 161 q 1015 160 997 161 l 1021 156 q 1022 142 1022 151 q 1021 128 1022 132 q 1019 115 1019 121 q 1019 104 1019 111 q 1015 72 1019 89 q 994 46 1011 54 l 992 46 q 986 45 989 46 q 981 44 983 44 q 957 42 969 43 q 931 40 944 40 l 925 40 q 926 40 925 38 q 926 39 926 42 l 926 31 l 925 15 l 925 11 m 258 -40 l 278 -43 q 299 -45 289 -44 q 317 -46 310 -46 q 538 297 429 126 q 754 643 646 468 q 849 794 803 722 q 943 946 894 867 q 932 946 938 946 q 918 947 928 946 l 917 947 q 900 949 910 949 q 883 947 890 949 q 575 449 731 693 q 258 -40 419 206 m 108 399 q 138 397 124 397 q 167 394 151 396 q 199 392 182 393 q 232 389 217 390 q 287 384 261 386 q 343 379 313 382 l 343 408 q 337 409 338 408 q 332 410 336 410 l 331 410 q 317 412 324 411 q 303 413 310 413 l 301 413 q 272 435 282 419 q 261 471 261 451 q 262 475 261 474 q 263 479 263 476 q 265 690 263 588 q 274 901 268 793 q 253 900 267 900 q 225 900 240 900 q 196 900 211 900 q 167 903 181 900 q 154 905 160 904 q 143 906 149 906 l 124 906 q 124 892 124 899 q 122 879 124 885 q 149 875 138 876 q 175 871 160 874 l 178 869 q 199 807 201 844 q 193 647 196 726 q 190 485 190 567 q 190 461 190 472 q 183 439 189 450 l 179 436 q 125 425 153 425 q 108 426 113 425 l 108 399 m 803 203 q 897 318 849 261 q 994 431 946 375 q 1026 467 1008 449 l 1036 463 q 1031 383 1033 422 q 1026 304 1028 344 q 1026 279 1026 292 q 1025 254 1026 267 q 1022 228 1022 242 q 1022 203 1022 215 l 1017 197 q 976 199 996 199 q 935 200 956 200 q 871 199 903 200 q 807 194 839 197 l 803 203 m 885 950 l 882 947 l 883 947 q 883 947 883 947 q 885 950 883 949 z "},"½":{"ha":1217,"x_min":110,"x_max":1157,"o":"m 1129 104 q 1124 105 1125 104 q 1121 106 1124 106 q 1097 69 1119 78 q 1049 60 1075 60 q 1031 60 1039 60 q 1015 61 1022 60 q 1003 63 1008 61 q 992 64 999 64 q 957 65 974 65 q 924 65 940 65 q 891 65 907 65 q 858 61 875 64 l 854 72 q 918 126 886 100 q 983 179 950 151 l 1054 239 l 1056 239 q 1091 269 1074 253 q 1123 306 1108 286 q 1147 347 1138 325 q 1156 392 1156 368 q 1140 449 1156 424 q 1099 492 1124 475 q 1044 519 1075 510 q 985 529 1014 529 l 979 529 q 966 531 972 531 q 954 532 960 532 q 896 521 925 532 q 844 490 867 510 q 808 442 822 469 q 794 385 794 415 l 794 375 q 810 376 800 376 q 832 376 821 376 q 846 376 839 376 q 863 378 854 376 l 863 394 q 889 468 863 435 q 956 501 915 501 q 961 501 958 501 q 967 500 964 500 l 974 500 q 1014 492 994 500 q 1049 472 1033 485 q 1073 440 1064 458 q 1082 401 1082 422 l 1082 394 q 1051 322 1071 354 q 1006 260 1032 289 q 951 206 981 232 q 890 156 921 181 l 889 156 q 835 111 861 135 q 782 58 808 88 l 782 35 q 782 21 782 28 q 781 4 782 14 q 856 9 818 7 q 929 11 893 11 q 1035 8 982 11 q 1146 0 1089 6 q 1150 51 1149 28 q 1153 103 1151 75 q 1140 104 1146 104 q 1129 104 1136 104 m 258 -42 l 260 -42 q 275 -42 268 -42 q 289 -43 282 -42 q 303 -45 296 -44 q 315 -46 310 -46 q 547 315 433 136 q 774 675 661 493 q 859 810 818 746 q 943 946 900 875 l 917 946 q 899 946 907 946 q 882 947 892 946 q 574 449 728 693 q 258 -42 421 206 m 110 399 q 139 397 125 397 q 168 394 153 396 q 201 392 183 393 q 233 389 218 390 q 247 388 240 388 q 261 388 254 388 q 307 385 286 386 q 344 381 328 383 l 344 408 l 343 408 q 333 408 339 408 q 322 410 328 408 q 303 413 308 413 l 301 413 q 272 435 282 419 q 261 471 261 451 q 262 475 261 474 q 263 479 263 476 q 265 690 263 588 q 272 901 267 793 q 253 899 264 900 q 229 899 243 899 q 215 899 222 899 q 201 900 208 900 q 184 901 192 900 q 168 901 176 901 l 167 901 q 138 906 151 906 l 124 906 l 124 890 q 123 885 124 886 q 122 881 122 885 q 126 880 125 881 q 131 879 128 879 q 175 871 154 876 l 178 869 q 195 844 190 858 q 200 815 200 831 l 200 808 q 196 647 200 726 q 192 485 192 567 q 191 462 192 474 q 183 439 190 450 l 181 436 q 126 425 154 425 q 110 426 114 425 l 110 399 m 1157 101 l 1153 107 l 1153 103 q 1155 102 1154 103 q 1157 101 1156 101 m 885 950 l 881 947 l 882 947 q 885 950 882 947 z "},"¾":{"ha":1217,"x_min":19,"x_max":1199,"o":"m 922 11 q 944 13 935 13 q 965 13 954 13 l 1044 13 q 1068 10 1056 11 q 1092 8 1081 10 q 1135 6 1115 7 q 1167 3 1154 6 l 1167 -1 q 1169 17 1168 8 q 1169 28 1169 25 q 1161 29 1174 29 q 1109 43 1135 29 q 1083 86 1083 57 q 1086 104 1083 93 q 1088 115 1088 111 q 1088 128 1088 121 l 1088 151 l 1093 157 q 1119 156 1107 157 q 1142 153 1131 154 l 1143 153 q 1196 149 1172 149 q 1196 157 1196 153 q 1197 168 1196 161 q 1199 179 1199 172 l 1199 185 q 1165 188 1181 186 q 1131 192 1149 189 q 1114 193 1122 193 q 1096 194 1106 193 l 1090 200 q 1092 316 1092 258 q 1093 432 1093 374 l 1093 513 q 1079 513 1088 513 q 1060 515 1071 514 q 1042 517 1051 517 q 1025 517 1033 517 l 1013 517 q 874 357 940 438 q 740 193 808 276 l 740 171 q 740 162 740 164 q 739 153 739 160 q 838 160 789 157 q 935 163 888 163 q 976 162 956 163 q 1015 160 996 161 l 1021 154 q 1019 129 1021 142 q 1018 104 1018 117 l 1018 94 q 1014 66 1018 79 q 993 46 1010 53 l 992 46 q 986 45 989 46 q 981 44 983 44 q 956 42 969 43 q 929 40 943 40 l 924 40 l 924 31 l 922 15 l 922 11 m 83 513 q 73 514 83 513 q 54 517 63 515 l 53 517 q 19 521 32 521 l 19 513 q 35 453 19 481 q 74 408 50 426 q 128 378 97 389 q 188 368 158 368 l 196 368 q 208 367 203 367 q 224 367 215 367 q 286 376 254 367 q 344 401 318 385 q 386 444 369 418 q 403 503 403 469 l 403 519 q 391 564 403 544 q 360 598 379 583 q 319 622 342 613 q 275 633 297 631 l 274 644 q 313 663 293 651 q 350 688 333 674 q 377 722 367 703 q 388 763 388 740 l 388 774 q 372 828 388 804 q 333 869 357 853 q 278 894 308 886 q 219 903 249 903 l 211 903 q 193 904 204 904 q 140 894 167 904 q 92 868 114 885 q 57 828 71 851 q 43 778 43 806 q 56 776 46 776 q 78 774 67 775 q 91 773 86 772 q 104 772 96 774 l 104 769 q 133 838 104 808 q 199 868 161 868 q 215 867 210 868 q 221 867 218 867 q 226 868 224 868 q 288 840 261 868 q 314 776 314 813 q 313 771 314 774 q 313 765 313 768 l 313 757 q 300 712 313 731 q 268 681 288 693 q 225 663 249 668 q 178 657 201 657 q 164 657 171 657 q 151 658 158 657 l 147 658 l 147 629 l 157 629 q 174 628 168 629 l 179 628 q 228 622 203 628 q 275 601 254 615 q 310 567 296 588 q 324 519 324 547 q 323 514 324 517 q 322 508 322 511 l 322 501 q 313 462 322 481 q 287 429 303 443 q 251 408 271 415 q 210 400 231 400 q 193 401 199 400 l 192 401 q 151 410 171 401 q 116 434 131 419 q 92 468 101 449 q 83 508 83 488 l 83 513 m 882 947 q 572 448 726 692 q 256 -46 417 204 q 265 -46 260 -46 q 278 -47 271 -46 q 290 -49 285 -49 q 304 -49 297 -49 l 314 -49 q 553 326 436 140 q 789 703 671 513 q 865 824 829 765 q 940 946 901 882 q 931 947 933 946 q 922 947 929 947 l 882 947 m 803 206 q 913 338 858 272 q 1025 468 967 403 l 1035 464 q 1029 384 1032 424 q 1025 304 1026 344 q 1025 279 1025 292 q 1024 254 1025 267 q 1022 228 1022 242 q 1022 203 1022 215 l 1017 197 q 969 199 993 199 q 922 199 946 199 q 865 199 894 199 q 807 196 838 199 l 803 206 z "}}}
